<?xml version="1.0" encoding="UTF-8"?>
<svg id="_レイヤー_1" data-name="レイヤー 1" xmlns="http://www.w3.org/2000/svg" viewBox="0 0 1024 1024">
  <defs>
    <style>
      .cls-1 {
        fill: none;
      }

      .cls-2 {
        fill: #fff;
      }

      .cls-3 {
        fill: #51a2da;
      }
    </style>
  </defs>
  <rect class="cls-3" y="0" width="1024" height="1024"/>
  <g>
    <rect class="cls-1" y="0" width="64" height="64"/>
    <rect class="cls-1" x="64" y="0" width="64" height="64"/>
    <rect class="cls-1" x="128" y="0" width="64" height="64"/>
    <rect class="cls-1" x="192" y="0" width="64" height="64"/>
    <rect class="cls-1" x="256" y="0" width="64" height="64"/>
    <rect class="cls-1" x="320" y="0" width="64" height="64"/>
    <rect class="cls-1" x="384" y="0" width="64" height="64"/>
    <rect class="cls-1" x="448" y="0" width="64" height="64"/>
    <rect class="cls-1" x="512" y="0" width="64" height="64"/>
    <rect class="cls-1" x="576" y="0" width="64" height="64"/>
    <rect class="cls-1" x="640" y="0" width="64" height="64"/>
    <rect class="cls-1" x="704" y="0" width="64" height="64"/>
    <rect class="cls-1" x="768" y="0" width="64" height="64"/>
    <rect class="cls-1" x="832" y="0" width="64" height="64"/>
    <rect class="cls-1" x="896" y="0" width="64" height="64"/>
    <rect class="cls-1" x="960" y="0" width="64" height="64"/>
    <rect class="cls-1" x="0" y="64" width="64" height="64"/>
    <rect class="cls-1" x="64" y="64" width="64" height="64"/>
    <rect class="cls-1" x="128" y="64" width="64" height="64"/>
    <rect class="cls-1" x="192" y="64" width="64" height="64"/>
    <rect class="cls-1" x="256" y="64" width="64" height="64"/>
    <rect class="cls-1" x="320" y="64" width="64" height="64"/>
    <rect class="cls-1" x="384" y="64" width="64" height="64"/>
    <rect class="cls-1" x="448" y="64" width="64" height="64"/>
    <rect class="cls-1" x="512" y="64" width="64" height="64"/>
    <rect class="cls-1" x="576" y="64" width="64" height="64"/>
    <rect class="cls-1" x="640" y="64" width="64" height="64"/>
    <rect class="cls-1" x="704" y="64" width="64" height="64"/>
    <rect class="cls-1" x="768" y="64" width="64" height="64"/>
    <rect class="cls-1" x="832" y="64" width="64" height="64"/>
    <rect class="cls-1" x="896" y="64" width="64" height="64"/>
    <rect class="cls-1" x="960" y="64" width="64" height="64"/>
    <rect class="cls-1" x="0" y="128" width="64" height="64"/>
    <rect class="cls-1" x="64" y="128" width="64" height="64"/>
    <rect class="cls-1" x="128" y="128" width="64" height="64"/>
    <rect class="cls-1" x="192" y="128" width="64" height="64"/>
    <rect class="cls-1" x="256" y="128" width="64" height="64"/>
    <rect class="cls-1" x="320" y="128" width="64" height="64"/>
    <rect class="cls-1" x="384" y="128" width="64" height="64"/>
    <rect class="cls-1" x="448" y="128" width="64" height="64"/>
    <rect class="cls-1" x="512" y="128" width="64" height="64"/>
    <rect class="cls-1" x="576" y="128" width="64" height="64"/>
    <rect class="cls-1" x="640" y="128" width="64" height="64"/>
    <rect class="cls-1" x="704" y="128" width="64" height="64"/>
    <rect class="cls-1" x="768" y="128" width="64" height="64"/>
    <rect class="cls-1" x="832" y="128" width="64" height="64"/>
    <rect class="cls-1" x="896" y="128" width="64" height="64"/>
    <rect class="cls-1" x="960" y="128" width="64" height="64"/>
    <rect class="cls-1" x="0" y="192" width="64" height="64"/>
    <rect class="cls-1" x="64" y="192" width="64" height="64"/>
    <rect class="cls-1" x="128" y="192" width="64" height="64"/>
    <rect class="cls-2" x="192" y="192" width="64" height="64"/>
    <rect class="cls-2" x="256" y="192" width="64" height="64"/>
    <rect class="cls-2" x="320" y="192" width="64" height="64"/>
    <rect class="cls-2" x="384" y="192" width="64" height="64"/>
    <rect class="cls-2" x="448" y="192" width="64" height="64"/>
    <rect class="cls-2" x="512" y="192" width="64" height="64"/>
    <rect class="cls-2" x="576" y="192" width="64" height="64"/>
    <rect class="cls-2" x="640" y="192" width="64" height="64"/>
    <rect class="cls-2" x="704" y="192" width="64" height="64"/>
    <rect class="cls-2" x="768" y="192" width="64" height="64"/>
    <rect class="cls-1" x="832" y="192" width="64" height="64"/>
    <rect class="cls-1" x="896" y="192" width="64" height="64"/>
    <rect class="cls-1" x="960" y="192" width="64" height="64"/>
    <rect class="cls-1" x="0" y="256" width="64" height="64"/>
    <rect class="cls-1" x="64" y="256" width="64" height="64"/>
    <rect class="cls-1" x="128" y="256" width="64" height="64"/>
    <rect class="cls-1" x="192" y="256" width="64" height="64"/>
    <rect class="cls-1" x="256" y="256" width="64" height="64"/>
    <rect class="cls-1" x="320" y="256" width="64" height="64"/>
    <rect class="cls-1" x="384" y="256" width="64" height="64"/>
    <rect class="cls-1" x="448" y="256" width="64" height="64"/>
    <rect class="cls-1" x="512" y="256" width="64" height="64"/>
    <rect class="cls-1" x="576" y="256" width="64" height="64"/>
    <rect class="cls-1" x="640" y="256" width="64" height="64"/>
    <rect class="cls-1" x="704" y="256" width="64" height="64"/>
    <rect class="cls-2" x="768" y="256" width="64" height="64"/>
    <rect class="cls-1" x="832" y="256" width="64" height="64"/>
    <rect class="cls-1" x="896" y="256" width="64" height="64"/>
    <rect class="cls-1" x="960" y="256" width="64" height="64"/>
    <rect class="cls-1" x="0" y="320" width="64" height="64"/>
    <rect class="cls-1" x="64" y="320" width="64" height="64"/>
    <rect class="cls-1" x="128" y="320" width="64" height="64"/>
    <rect class="cls-1" x="192" y="320" width="64" height="64"/>
    <rect class="cls-1" x="256" y="320" width="64" height="64"/>
    <rect class="cls-1" x="320" y="320" width="64" height="64"/>
    <rect class="cls-1" x="384" y="320" width="64" height="64"/>
    <rect class="cls-1" x="448" y="320" width="64" height="64"/>
    <rect class="cls-1" x="512" y="320" width="64" height="64"/>
    <rect class="cls-1" x="576" y="320" width="64" height="64"/>
    <rect class="cls-1" x="640" y="320" width="64" height="64"/>
    <rect class="cls-1" x="704" y="320" width="64" height="64"/>
    <rect class="cls-2" x="768" y="320" width="64" height="64"/>
    <rect class="cls-1" x="832" y="320" width="64" height="64"/>
    <rect class="cls-1" x="896" y="320" width="64" height="64"/>
    <rect class="cls-1" x="960" y="320" width="64" height="64"/>
    <rect class="cls-1" x="0" y="384" width="64" height="64"/>
    <rect class="cls-1" x="64" y="384" width="64" height="64"/>
    <rect class="cls-1" x="128" y="384" width="64" height="64"/>
    <rect class="cls-1" x="192" y="384" width="64" height="64"/>
    <rect class="cls-1" x="256" y="384" width="64" height="64"/>
    <rect class="cls-1" x="320" y="384" width="64" height="64"/>
    <rect class="cls-1" x="384" y="384" width="64" height="64"/>
    <rect class="cls-1" x="448" y="384" width="64" height="64"/>
    <rect class="cls-1" x="512" y="384" width="64" height="64"/>
    <rect class="cls-1" x="576" y="384" width="64" height="64"/>
    <rect class="cls-1" x="640" y="384" width="64" height="64"/>
    <rect class="cls-1" x="704" y="384" width="64" height="64"/>
    <rect class="cls-2" x="768" y="384" width="64" height="64"/>
    <rect class="cls-1" x="832" y="384" width="64" height="64"/>
    <rect class="cls-1" x="896" y="384" width="64" height="64"/>
    <rect class="cls-1" x="960" y="384" width="64" height="64"/>
    <rect class="cls-1" x="0" y="448" width="64" height="64"/>
    <rect class="cls-1" x="64" y="448" width="64" height="64"/>
    <rect class="cls-1" x="128" y="448" width="64" height="64"/>
    <rect class="cls-1" x="192" y="448" width="64" height="64"/>
    <rect class="cls-1" x="256" y="448" width="64" height="64"/>
    <rect class="cls-1" x="320" y="448" width="64" height="64"/>
    <rect class="cls-1" x="384" y="448" width="64" height="64"/>
    <rect class="cls-1" x="448" y="448" width="64" height="64"/>
    <rect class="cls-2" x="512" y="448" width="64" height="64"/>
    <rect class="cls-2" x="576" y="448" width="64" height="64"/>
    <rect class="cls-2" x="640" y="448" width="64" height="64"/>
    <rect class="cls-2" x="704" y="448" width="64" height="64"/>
    <rect class="cls-2" x="768" y="448" width="64" height="64"/>
    <rect class="cls-1" x="832" y="448" width="64" height="64"/>
    <rect class="cls-1" x="896" y="448" width="64" height="64"/>
    <rect class="cls-1" x="960" y="448" width="64" height="64"/>
    <rect class="cls-1" x="0" y="512" width="64" height="64"/>
    <rect class="cls-1" x="64" y="512" width="64" height="64"/>
    <rect class="cls-1" x="128" y="512" width="64" height="64"/>
    <rect class="cls-2" x="192" y="512" width="64" height="64"/>
    <rect class="cls-2" x="256" y="512" width="64" height="64"/>
    <rect class="cls-2" x="320" y="512" width="64" height="64"/>
    <rect class="cls-2" x="384" y="512" width="64" height="64"/>
    <rect class="cls-2" x="448" y="512" width="64" height="64"/>
    <rect class="cls-1" x="512" y="512" width="64" height="64"/>
    <rect class="cls-1" x="576" y="512" width="64" height="64"/>
    <rect class="cls-1" x="640" y="512" width="64" height="64"/>
    <rect class="cls-1" x="704" y="512" width="64" height="64"/>
    <rect class="cls-1" x="768" y="512" width="64" height="64"/>
    <rect class="cls-1" x="832" y="512" width="64" height="64"/>
    <rect class="cls-1" x="896" y="512" width="64" height="64"/>
    <rect class="cls-1" x="960" y="512" width="64" height="64"/>
    <rect class="cls-1" x="0" y="576" width="64" height="64"/>
    <rect class="cls-1" x="64" y="576" width="64" height="64"/>
    <rect class="cls-1" x="128" y="576" width="64" height="64"/>
    <rect class="cls-2" x="192" y="576" width="64" height="64"/>
    <rect class="cls-1" x="256" y="576" width="64" height="64"/>
    <rect class="cls-1" x="320" y="576" width="64" height="64"/>
    <rect class="cls-1" x="384" y="576" width="64" height="64"/>
    <rect class="cls-1" x="448" y="576" width="64" height="64"/>
    <rect class="cls-1" x="512" y="576" width="64" height="64"/>
    <rect class="cls-1" x="576" y="576" width="64" height="64"/>
    <rect class="cls-1" x="640" y="576" width="64" height="64"/>
    <rect class="cls-1" x="704" y="576" width="64" height="64"/>
    <rect class="cls-1" x="768" y="576" width="64" height="64"/>
    <rect class="cls-1" x="832" y="576" width="64" height="64"/>
    <rect class="cls-1" x="896" y="576" width="64" height="64"/>
    <rect class="cls-1" x="960" y="576" width="64" height="64"/>
    <rect class="cls-1" x="0" y="640" width="64" height="64"/>
    <rect class="cls-1" x="64" y="640" width="64" height="64"/>
    <rect class="cls-1" x="128" y="640" width="64" height="64"/>
    <rect class="cls-2" x="192" y="640" width="64" height="64"/>
    <rect class="cls-1" x="256" y="640" width="64" height="64"/>
    <rect class="cls-1" x="320" y="640" width="64" height="64"/>
    <rect class="cls-1" x="384" y="640" width="64" height="64"/>
    <rect class="cls-1" x="448" y="640" width="64" height="64"/>
    <rect class="cls-1" x="512" y="640" width="64" height="64"/>
    <rect class="cls-1" x="576" y="640" width="64" height="64"/>
    <rect class="cls-1" x="640" y="640" width="64" height="64"/>
    <rect class="cls-1" x="704" y="640" width="64" height="64"/>
    <rect class="cls-1" x="768" y="640" width="64" height="64"/>
    <rect class="cls-1" x="832" y="640" width="64" height="64"/>
    <rect class="cls-1" x="896" y="640" width="64" height="64"/>
    <rect class="cls-1" x="960" y="640" width="64" height="64"/>
    <rect class="cls-1" x="0" y="704" width="64" height="64"/>
    <rect class="cls-1" x="64" y="704" width="64" height="64"/>
    <rect class="cls-1" x="128" y="704" width="64" height="64"/>
    <rect class="cls-2" x="192" y="704" width="64" height="64"/>
    <rect class="cls-1" x="256" y="704" width="64" height="64"/>
    <rect class="cls-1" x="320" y="704" width="64" height="64"/>
    <rect class="cls-1" x="384" y="704" width="64" height="64"/>
    <rect class="cls-1" x="448" y="704" width="64" height="64"/>
    <rect class="cls-1" x="512" y="704" width="64" height="64"/>
    <rect class="cls-1" x="576" y="704" width="64" height="64"/>
    <rect class="cls-1" x="640" y="704" width="64" height="64"/>
    <rect class="cls-1" x="704" y="704" width="64" height="64"/>
    <rect class="cls-1" x="768" y="704" width="64" height="64"/>
    <rect class="cls-1" x="832" y="704" width="64" height="64"/>
    <rect class="cls-1" x="896" y="704" width="64" height="64"/>
    <rect class="cls-1" x="960" y="704" width="64" height="64"/>
    <rect class="cls-1" x="0" y="768" width="64" height="64"/>
    <rect class="cls-1" x="64" y="768" width="64" height="64"/>
    <rect class="cls-1" x="128" y="768" width="64" height="64"/>
    <rect class="cls-2" x="192" y="768" width="64" height="64"/>
    <rect class="cls-2" x="256" y="768" width="64" height="64"/>
    <rect class="cls-2" x="320" y="768" width="64" height="64"/>
    <rect class="cls-2" x="384" y="768" width="64" height="64"/>
    <rect class="cls-2" x="448" y="768" width="64" height="64"/>
    <rect class="cls-2" x="512" y="768" width="64" height="64"/>
    <rect class="cls-2" x="576" y="768" width="64" height="64"/>
    <rect class="cls-2" x="640" y="768" width="64" height="64"/>
    <rect class="cls-2" x="704" y="768" width="64" height="64"/>
    <rect class="cls-2" x="768" y="768" width="64" height="64"/>
    <rect class="cls-1" x="832" y="768" width="64" height="64"/>
    <rect class="cls-1" x="896" y="768" width="64" height="64"/>
    <rect class="cls-1" x="960" y="768" width="64" height="64"/>
    <rect class="cls-1" x="0" y="832" width="64" height="64"/>
    <rect class="cls-1" x="64" y="832" width="64" height="64"/>
    <rect class="cls-1" x="128" y="832" width="64" height="64"/>
    <rect class="cls-1" x="192" y="832" width="64" height="64"/>
    <rect class="cls-1" x="256" y="832" width="64" height="64"/>
    <rect class="cls-1" x="320" y="832" width="64" height="64"/>
    <rect class="cls-1" x="384" y="832" width="64" height="64"/>
    <rect class="cls-1" x="448" y="832" width="64" height="64"/>
    <rect class="cls-1" x="512" y="832" width="64" height="64"/>
    <rect class="cls-1" x="576" y="832" width="64" height="64"/>
    <rect class="cls-1" x="640" y="832" width="64" height="64"/>
    <rect class="cls-1" x="704" y="832" width="64" height="64"/>
    <rect class="cls-1" x="768" y="832" width="64" height="64"/>
    <rect class="cls-1" x="832" y="832" width="64" height="64"/>
    <rect class="cls-1" x="896" y="832" width="64" height="64"/>
    <rect class="cls-1" x="960" y="832" width="64" height="64"/>
    <rect class="cls-1" x="0" y="896" width="64" height="64"/>
    <rect class="cls-1" x="64" y="896" width="64" height="64"/>
    <rect class="cls-1" x="128" y="896" width="64" height="64"/>
    <rect class="cls-1" x="192" y="896" width="64" height="64"/>
    <rect class="cls-1" x="256" y="896" width="64" height="64"/>
    <rect class="cls-1" x="320" y="896" width="64" height="64"/>
    <rect class="cls-1" x="384" y="896" width="64" height="64"/>
    <rect class="cls-1" x="448" y="896" width="64" height="64"/>
    <rect class="cls-1" x="512" y="896" width="64" height="64"/>
    <rect class="cls-1" x="576" y="896" width="64" height="64"/>
    <rect class="cls-1" x="640" y="896" width="64" height="64"/>
    <rect class="cls-1" x="704" y="896" width="64" height="64"/>
    <rect class="cls-1" x="768" y="896" width="64" height="64"/>
    <rect class="cls-1" x="832" y="896" width="64" height="64"/>
    <rect class="cls-1" x="896" y="896" width="64" height="64"/>
    <rect class="cls-1" x="960" y="896" width="64" height="64"/>
    <rect class="cls-1" x="0" y="960" width="64" height="64"/>
    <rect class="cls-1" x="64" y="960" width="64" height="64"/>
    <rect class="cls-1" x="128" y="960" width="64" height="64"/>
    <rect class="cls-1" x="192" y="960" width="64" height="64"/>
    <rect class="cls-1" x="256" y="960" width="64" height="64"/>
    <rect class="cls-1" x="320" y="960" width="64" height="64"/>
    <rect class="cls-1" x="384" y="960" width="64" height="64"/>
    <rect class="cls-1" x="448" y="960" width="64" height="64"/>
    <rect class="cls-1" x="512" y="960" width="64" height="64"/>
    <rect class="cls-1" x="576" y="960" width="64" height="64"/>
    <rect class="cls-1" x="640" y="960" width="64" height="64"/>
    <rect class="cls-1" x="704" y="960" width="64" height="64"/>
    <rect class="cls-1" x="768" y="960" width="64" height="64"/>
    <rect class="cls-1" x="832" y="960" width="64" height="64"/>
    <rect class="cls-1" x="896" y="960" width="64" height="64"/>
    <rect class="cls-1" x="960" y="960" width="64" height="64"/>
  </g>
</svg>