<?xml version="1.0" encoding="UTF-8"?>
<svg id="_レイヤー_1" data-name="レイヤー 1" xmlns="http://www.w3.org/2000/svg" viewBox="0 0 1024 1024">
  <defs>
    <style>
      .cls-1 {
        opacity: .5;
      }

      .cls-1, .cls-2 {
        fill: #fff;
      }

      .cls-3 {
        fill: #00c878;
      }
    </style>
  </defs>
  <rect class="cls-3" x="0" y="0" width="1024" height="1024"/>
  <g>
    <rect class="cls-2" x="320" y="64" width="64" height="64"/>
    <rect class="cls-2" x="640" y="64" width="64" height="64"/>
    <rect class="cls-2" x="576" y="128" width="64" height="320"/>
    <rect class="cls-2" x="384" y="128" width="64" height="320"/>
    <rect class="cls-2" x="320" y="448" width="64" height="64"/>
    <rect class="cls-2" x="640" y="448" width="64" height="64"/>
    <rect class="cls-2" x="256" y="512" width="64" height="64"/>
    <rect class="cls-2" x="704" y="512" width="64" height="64"/>
    <rect class="cls-2" x="192" y="576" width="64" height="64"/>
    <rect class="cls-2" x="768" y="576" width="64" height="64"/>
    <rect class="cls-2" x="128" y="640" width="64" height="64"/>
    <rect class="cls-2" x="832" y="640" width="64" height="64"/>
    <rect class="cls-2" x="896" y="704" width="64" height="192"/>
    <rect class="cls-2" x="64" y="704" width="64" height="192"/>
    <rect class="cls-2" x="128" y="896" width="768" height="64"/>
  </g>
  <polygon class="cls-1" points="896 704 896 896 128 896 128 704 192 704 192 640 832 640 832 704 896 704"/>
</svg>