<?xml version="1.0" encoding="UTF-8"?>
<svg id="_レイヤー_1" data-name="レイヤー 1" xmlns="http://www.w3.org/2000/svg" viewBox="0 0 1024 1024">
  <defs>
    <style>
      .cls-1 {
        opacity: .5;
      }

      .cls-1, .cls-2 {
        fill: #fff;
      }

      .cls-3 {
        fill: #00c878;
      }
    </style>
  </defs>
  <rect class="cls-3" x="0" y="0" width="1024" height="1024"/>
  <g>
    <rect class="cls-2" x="271.88" y="752" width="480.17" height="96"/>
    <rect class="cls-2" x="176" y="560" width="96" height="192"/>
    <rect class="cls-2" x="272" y="464" width="96" height="96"/>
    <rect class="cls-2" x="368" y="272" width="96" height="192"/>
    <rect class="cls-2" x="272" y="176" width="96" height="96"/>
    <rect class="cls-2" x="752" y="560" width="96" height="192" transform="translate(1600 1312) rotate(180)"/>
    <rect class="cls-2" x="656" y="464" width="96" height="96" transform="translate(1408 1024) rotate(180)"/>
    <rect class="cls-2" x="560" y="272" width="96" height="192" transform="translate(1216 736) rotate(180)"/>
    <rect class="cls-2" x="656" y="176" width="96" height="96"/>
    <polygon class="cls-1" points="752 560 752 752 272 752 272 560 368 560 368 464 656 464 656 560 752 560"/>
  </g>
</svg>