<?xml version="1.0" encoding="UTF-8"?>
<svg id="_レイヤー_1" data-name="レイヤー 1" xmlns="http://www.w3.org/2000/svg" viewBox="0 0 1024 1024">
  <defs>
    <style>
      .cls-1 {
        opacity: .25;
      }

      .cls-1, .cls-2 {
        fill: #fff;
      }

      .cls-3 {
        fill: #22b573;
      }
    </style>
  </defs>
  <g id="_背景" data-name="背景">
    <rect class="cls-3" x="0" y="0" width="1024" height="1024"/>
  </g>
  <g>
    <rect class="cls-1" x="62" y="62" width="36" height="36"/>
    <rect class="cls-1" x="116" y="62" width="36" height="36"/>
    <rect class="cls-1" x="170" y="62" width="36" height="36"/>
    <rect class="cls-1" x="224" y="62" width="36" height="36"/>
    <rect class="cls-1" x="278" y="62" width="36" height="36"/>
    <rect class="cls-1" x="332" y="62" width="36" height="36"/>
    <rect class="cls-1" x="386" y="62" width="36" height="36"/>
    <rect class="cls-1" x="440" y="62" width="36" height="36"/>
    <rect class="cls-1" x="494" y="62" width="36" height="36"/>
    <rect class="cls-1" x="548" y="62" width="36" height="36"/>
    <rect class="cls-1" x="602" y="62" width="36" height="36"/>
    <rect class="cls-1" x="656" y="62" width="36" height="36"/>
    <rect class="cls-1" x="710" y="62" width="36" height="36"/>
    <rect class="cls-1" x="764" y="62" width="36" height="36"/>
    <rect class="cls-1" x="818" y="62" width="36" height="36"/>
    <rect class="cls-1" x="872" y="62" width="36" height="36"/>
    <rect class="cls-1" x="926" y="62" width="36" height="36"/>
    <rect class="cls-1" x="62" y="116" width="36" height="36"/>
    <rect class="cls-1" x="116" y="116" width="36" height="36"/>
    <rect class="cls-1" x="170" y="116" width="36" height="36"/>
    <rect class="cls-1" x="224" y="116" width="36" height="36"/>
    <rect class="cls-1" x="278" y="116" width="36" height="36"/>
    <rect class="cls-1" x="332" y="116" width="36" height="36"/>
    <rect class="cls-1" x="386" y="116" width="36" height="36"/>
    <rect class="cls-1" x="440" y="116" width="36" height="36"/>
    <rect class="cls-1" x="494" y="116" width="36" height="36"/>
    <rect class="cls-1" x="548" y="116" width="36" height="36"/>
    <rect class="cls-1" x="602" y="116" width="36" height="36"/>
    <rect class="cls-1" x="656" y="116" width="36" height="36"/>
    <rect class="cls-1" x="710" y="116" width="36" height="36"/>
    <rect class="cls-1" x="764" y="116" width="36" height="36"/>
    <rect class="cls-1" x="818" y="116" width="36" height="36"/>
    <rect class="cls-1" x="872" y="116" width="36" height="36"/>
    <rect class="cls-1" x="926" y="116" width="36" height="36"/>
    <rect class="cls-1" x="62" y="170" width="36" height="36"/>
    <rect class="cls-1" x="116" y="170" width="36" height="36"/>
    <rect class="cls-1" x="170" y="170" width="36" height="36"/>
    <rect class="cls-1" x="224" y="170" width="36" height="36"/>
    <rect class="cls-1" x="278" y="170" width="36" height="36"/>
    <rect class="cls-1" x="332" y="170" width="36" height="36"/>
    <rect class="cls-1" x="386" y="170" width="36" height="36"/>
    <rect class="cls-1" x="440" y="170" width="36" height="36"/>
    <rect class="cls-1" x="494" y="170" width="36" height="36"/>
    <rect class="cls-1" x="548" y="170" width="36" height="36"/>
    <rect class="cls-1" x="602" y="170" width="36" height="36"/>
    <rect class="cls-1" x="656" y="170" width="36" height="36"/>
    <rect class="cls-1" x="710" y="170" width="36" height="36"/>
    <rect class="cls-1" x="764" y="170" width="36" height="36"/>
    <rect class="cls-1" x="818" y="170" width="36" height="36"/>
    <rect class="cls-1" x="872" y="170" width="36" height="36"/>
    <rect class="cls-1" x="926" y="170" width="36" height="36"/>
    <rect class="cls-1" x="62" y="224" width="36" height="36"/>
    <rect class="cls-1" x="116" y="224" width="36" height="36"/>
    <rect class="cls-1" x="170" y="224" width="36" height="36"/>
    <rect class="cls-1" x="224" y="224" width="36" height="36"/>
    <rect class="cls-1" x="278" y="224" width="36" height="36"/>
    <rect class="cls-1" x="332" y="224" width="36" height="36"/>
    <rect class="cls-1" x="386" y="224" width="36" height="36"/>
    <rect class="cls-1" x="440" y="224" width="36" height="36"/>
    <rect class="cls-1" x="494" y="224" width="36" height="36"/>
    <rect class="cls-1" x="548" y="224" width="36" height="36"/>
    <rect class="cls-1" x="602" y="224" width="36" height="36"/>
    <rect class="cls-1" x="656" y="224" width="36" height="36"/>
    <rect class="cls-1" x="710" y="224" width="36" height="36"/>
    <rect class="cls-1" x="764" y="224" width="36" height="36"/>
    <rect class="cls-1" x="818" y="224" width="36" height="36"/>
    <rect class="cls-1" x="872" y="224" width="36" height="36"/>
    <rect class="cls-1" x="926" y="224" width="36" height="36"/>
    <rect class="cls-1" x="62" y="278" width="36" height="36"/>
    <rect class="cls-1" x="278" y="278" width="36" height="36"/>
    <rect class="cls-1" x="332" y="278" width="36" height="36"/>
    <rect class="cls-1" x="656" y="278" width="36" height="36"/>
    <rect class="cls-1" x="116" y="332" width="36" height="36"/>
    <rect class="cls-1" x="170" y="332" width="36" height="36"/>
    <rect class="cls-1" x="224" y="332" width="36" height="36"/>
    <rect class="cls-1" x="332" y="332" width="36" height="36"/>
    <rect class="cls-1" x="440" y="332" width="36" height="36"/>
    <rect class="cls-1" x="494" y="332" width="36" height="36"/>
    <rect class="cls-1" x="548" y="332" width="36" height="36"/>
    <rect class="cls-1" x="602" y="332" width="36" height="36"/>
    <rect class="cls-1" x="656" y="332" width="36" height="36"/>
    <rect class="cls-1" x="764" y="332" width="36" height="36"/>
    <rect class="cls-1" x="818" y="332" width="36" height="36"/>
    <rect class="cls-1" x="872" y="332" width="36" height="36"/>
    <rect class="cls-1" x="926" y="332" width="36" height="36"/>
    <rect class="cls-1" x="116" y="386" width="36" height="36"/>
    <rect class="cls-1" x="170" y="386" width="36" height="36"/>
    <rect class="cls-1" x="224" y="386" width="36" height="36"/>
    <rect class="cls-1" x="332" y="386" width="36" height="36"/>
    <rect class="cls-1" x="440" y="386" width="36" height="36"/>
    <rect class="cls-1" x="494" y="386" width="36" height="36"/>
    <rect class="cls-1" x="548" y="386" width="36" height="36"/>
    <rect class="cls-1" x="602" y="386" width="36" height="36"/>
    <rect class="cls-1" x="656" y="386" width="36" height="36"/>
    <rect class="cls-1" x="764" y="386" width="36" height="36"/>
    <rect class="cls-1" x="818" y="386" width="36" height="36"/>
    <rect class="cls-1" x="872" y="386" width="36" height="36"/>
    <rect class="cls-1" x="926" y="386" width="36" height="36"/>
    <rect class="cls-1" x="116" y="440" width="36" height="36"/>
    <rect class="cls-1" x="170" y="440" width="36" height="36"/>
    <rect class="cls-1" x="224" y="440" width="36" height="36"/>
    <rect class="cls-1" x="332" y="440" width="36" height="36"/>
    <rect class="cls-1" x="440" y="440" width="36" height="36"/>
    <rect class="cls-1" x="494" y="440" width="36" height="36"/>
    <rect class="cls-1" x="548" y="440" width="36" height="36"/>
    <rect class="cls-1" x="602" y="440" width="36" height="36"/>
    <rect class="cls-1" x="656" y="440" width="36" height="36"/>
    <rect class="cls-1" x="764" y="440" width="36" height="36"/>
    <rect class="cls-1" x="818" y="440" width="36" height="36"/>
    <rect class="cls-1" x="872" y="440" width="36" height="36"/>
    <rect class="cls-1" x="926" y="440" width="36" height="36"/>
    <rect class="cls-1" x="332" y="494" width="36" height="36"/>
    <rect class="cls-1" x="656" y="494" width="36" height="36"/>
    <rect class="cls-1" x="116" y="548" width="36" height="36"/>
    <rect class="cls-1" x="170" y="548" width="36" height="36"/>
    <rect class="cls-1" x="224" y="548" width="36" height="36"/>
    <rect class="cls-1" x="332" y="548" width="36" height="36"/>
    <rect class="cls-1" x="440" y="548" width="36" height="36"/>
    <rect class="cls-1" x="494" y="548" width="36" height="36"/>
    <rect class="cls-1" x="548" y="548" width="36" height="36"/>
    <rect class="cls-1" x="602" y="548" width="36" height="36"/>
    <rect class="cls-1" x="656" y="548" width="36" height="36"/>
    <rect class="cls-1" x="710" y="548" width="36" height="36"/>
    <rect class="cls-1" x="764" y="548" width="36" height="36"/>
    <rect class="cls-1" x="818" y="548" width="36" height="36"/>
    <rect class="cls-1" x="872" y="548" width="36" height="36"/>
    <rect class="cls-1" x="116" y="602" width="36" height="36"/>
    <rect class="cls-1" x="170" y="602" width="36" height="36"/>
    <rect class="cls-1" x="224" y="602" width="36" height="36"/>
    <rect class="cls-1" x="332" y="602" width="36" height="36"/>
    <rect class="cls-1" x="440" y="602" width="36" height="36"/>
    <rect class="cls-1" x="494" y="602" width="36" height="36"/>
    <rect class="cls-1" x="548" y="602" width="36" height="36"/>
    <rect class="cls-1" x="602" y="602" width="36" height="36"/>
    <rect class="cls-1" x="656" y="602" width="36" height="36"/>
    <rect class="cls-1" x="710" y="602" width="36" height="36"/>
    <rect class="cls-1" x="764" y="602" width="36" height="36"/>
    <rect class="cls-1" x="818" y="602" width="36" height="36"/>
    <rect class="cls-1" x="872" y="602" width="36" height="36"/>
    <rect class="cls-1" x="116" y="656" width="36" height="36"/>
    <rect class="cls-1" x="170" y="656" width="36" height="36"/>
    <rect class="cls-1" x="224" y="656" width="36" height="36"/>
    <rect class="cls-1" x="332" y="656" width="36" height="36"/>
    <rect class="cls-1" x="440" y="656" width="36" height="36"/>
    <rect class="cls-1" x="494" y="656" width="36" height="36"/>
    <rect class="cls-1" x="548" y="656" width="36" height="36"/>
    <rect class="cls-1" x="602" y="656" width="36" height="36"/>
    <rect class="cls-1" x="656" y="656" width="36" height="36"/>
    <rect class="cls-1" x="710" y="656" width="36" height="36"/>
    <rect class="cls-1" x="764" y="656" width="36" height="36"/>
    <rect class="cls-1" x="818" y="656" width="36" height="36"/>
    <rect class="cls-1" x="872" y="656" width="36" height="36"/>
    <rect class="cls-1" x="116" y="710" width="36" height="36"/>
    <rect class="cls-1" x="170" y="710" width="36" height="36"/>
    <rect class="cls-1" x="224" y="710" width="36" height="36"/>
    <rect class="cls-1" x="332" y="710" width="36" height="36"/>
    <rect class="cls-1" x="656" y="710" width="36" height="36"/>
    <rect class="cls-1" x="62" y="764" width="36" height="36"/>
    <rect class="cls-1" x="116" y="764" width="36" height="36"/>
    <rect class="cls-1" x="170" y="764" width="36" height="36"/>
    <rect class="cls-1" x="224" y="764" width="36" height="36"/>
    <rect class="cls-1" x="278" y="764" width="36" height="36"/>
    <rect class="cls-1" x="332" y="764" width="36" height="36"/>
    <rect class="cls-1" x="386" y="764" width="36" height="36"/>
    <rect class="cls-1" x="440" y="764" width="36" height="36"/>
    <rect class="cls-1" x="494" y="764" width="36" height="36"/>
    <rect class="cls-1" x="548" y="764" width="36" height="36"/>
    <rect class="cls-1" x="602" y="764" width="36" height="36"/>
    <rect class="cls-1" x="656" y="764" width="36" height="36"/>
    <rect class="cls-1" x="710" y="764" width="36" height="36"/>
    <rect class="cls-1" x="764" y="764" width="36" height="36"/>
    <rect class="cls-1" x="818" y="764" width="36" height="36"/>
    <rect class="cls-1" x="872" y="764" width="36" height="36"/>
    <rect class="cls-1" x="926" y="764" width="36" height="36"/>
    <rect class="cls-1" x="62" y="818" width="36" height="36"/>
    <rect class="cls-1" x="116" y="818" width="36" height="36"/>
    <rect class="cls-1" x="170" y="818" width="36" height="36"/>
    <rect class="cls-1" x="224" y="818" width="36" height="36"/>
    <rect class="cls-1" x="278" y="818" width="36" height="36"/>
    <rect class="cls-1" x="332" y="818" width="36" height="36"/>
    <rect class="cls-1" x="386" y="818" width="36" height="36"/>
    <rect class="cls-1" x="440" y="818" width="36" height="36"/>
    <rect class="cls-1" x="494" y="818" width="36" height="36"/>
    <rect class="cls-1" x="548" y="818" width="36" height="36"/>
    <rect class="cls-1" x="602" y="818" width="36" height="36"/>
    <rect class="cls-1" x="656" y="818" width="36" height="36"/>
    <rect class="cls-1" x="710" y="818" width="36" height="36"/>
    <rect class="cls-1" x="764" y="818" width="36" height="36"/>
    <rect class="cls-1" x="818" y="818" width="36" height="36"/>
    <rect class="cls-1" x="872" y="818" width="36" height="36"/>
    <rect class="cls-1" x="926" y="818" width="36" height="36"/>
    <rect class="cls-1" x="62" y="872" width="36" height="36"/>
    <rect class="cls-1" x="116" y="872" width="36" height="36"/>
    <rect class="cls-1" x="170" y="872" width="36" height="36"/>
    <rect class="cls-1" x="224" y="872" width="36" height="36"/>
    <rect class="cls-1" x="278" y="872" width="36" height="36"/>
    <rect class="cls-1" x="332" y="872" width="36" height="36"/>
    <rect class="cls-1" x="386" y="872" width="36" height="36"/>
    <rect class="cls-1" x="440" y="872" width="36" height="36"/>
    <rect class="cls-1" x="494" y="872" width="36" height="36"/>
    <rect class="cls-1" x="548" y="872" width="36" height="36"/>
    <rect class="cls-1" x="602" y="872" width="36" height="36"/>
    <rect class="cls-1" x="656" y="872" width="36" height="36"/>
    <rect class="cls-1" x="710" y="872" width="36" height="36"/>
    <rect class="cls-1" x="764" y="872" width="36" height="36"/>
    <rect class="cls-1" x="818" y="872" width="36" height="36"/>
    <rect class="cls-1" x="872" y="872" width="36" height="36"/>
    <rect class="cls-1" x="926" y="872" width="36" height="36"/>
    <rect class="cls-1" x="62" y="926" width="36" height="36"/>
    <rect class="cls-1" x="116" y="926" width="36" height="36"/>
    <rect class="cls-1" x="170" y="926" width="36" height="36"/>
    <rect class="cls-1" x="224" y="926" width="36" height="36"/>
    <rect class="cls-1" x="278" y="926" width="36" height="36"/>
    <rect class="cls-1" x="332" y="926" width="36" height="36"/>
    <rect class="cls-1" x="386" y="926" width="36" height="36"/>
    <rect class="cls-1" x="440" y="926" width="36" height="36"/>
    <rect class="cls-1" x="494" y="926" width="36" height="36"/>
    <rect class="cls-1" x="548" y="926" width="36" height="36"/>
    <rect class="cls-1" x="602" y="926" width="36" height="36"/>
    <rect class="cls-1" x="656" y="926" width="36" height="36"/>
    <rect class="cls-1" x="710" y="926" width="36" height="36"/>
    <rect class="cls-1" x="764" y="926" width="36" height="36"/>
    <rect class="cls-1" x="818" y="926" width="36" height="36"/>
    <rect class="cls-1" x="872" y="926" width="36" height="36"/>
    <rect class="cls-1" x="926" y="926" width="36" height="36"/>
  </g>
  <g>
    <rect class="cls-2" x="116" y="278" width="36" height="36"/>
    <rect class="cls-2" x="170" y="278" width="36" height="36"/>
    <rect class="cls-2" x="224" y="278" width="36" height="36"/>
    <rect class="cls-2" x="386" y="278" width="36" height="36"/>
    <rect class="cls-2" x="440" y="278" width="36" height="36"/>
    <rect class="cls-2" x="494" y="278" width="36" height="36"/>
    <rect class="cls-2" x="548" y="278" width="36" height="36"/>
    <rect class="cls-2" x="602" y="278" width="36" height="36"/>
    <rect class="cls-2" x="710" y="278" width="36" height="36"/>
    <rect class="cls-2" x="764" y="278" width="36" height="36"/>
    <rect class="cls-2" x="818" y="278" width="36" height="36"/>
    <rect class="cls-2" x="872" y="278" width="36" height="36"/>
    <rect class="cls-2" x="926" y="278" width="36" height="36"/>
    <rect class="cls-2" x="62" y="332" width="36" height="36"/>
    <rect class="cls-2" x="278" y="332" width="36" height="36"/>
    <rect class="cls-2" x="386" y="332" width="36" height="36"/>
    <rect class="cls-2" x="710" y="332" width="36" height="36"/>
    <rect class="cls-2" x="62" y="386" width="36" height="36"/>
    <rect class="cls-2" x="278" y="386" width="36" height="36"/>
    <rect class="cls-2" x="386" y="386" width="36" height="36"/>
    <rect class="cls-2" x="710" y="386" width="36" height="36"/>
    <rect class="cls-2" x="62" y="440" width="36" height="36"/>
    <rect class="cls-2" x="278" y="440" width="36" height="36"/>
    <rect class="cls-2" x="386" y="440" width="36" height="36"/>
    <rect class="cls-2" x="710" y="440" width="36" height="36"/>
    <rect class="cls-2" x="62" y="494" width="36" height="36"/>
    <rect class="cls-2" x="116" y="494" width="36" height="36"/>
    <rect class="cls-2" x="170" y="494" width="36" height="36"/>
    <rect class="cls-2" x="224" y="494" width="36" height="36"/>
    <rect class="cls-2" x="278" y="494" width="36" height="36"/>
    <rect class="cls-2" x="386" y="494" width="36" height="36"/>
    <rect class="cls-2" x="440" y="494" width="36" height="36"/>
    <rect class="cls-2" x="494" y="494" width="36" height="36"/>
    <rect class="cls-2" x="548" y="494" width="36" height="36"/>
    <rect class="cls-2" x="602" y="494" width="36" height="36"/>
    <rect class="cls-2" x="710" y="494" width="36" height="36"/>
    <rect class="cls-2" x="764" y="494" width="36" height="36"/>
    <rect class="cls-2" x="818" y="494" width="36" height="36"/>
    <rect class="cls-2" x="872" y="494" width="36" height="36"/>
    <rect class="cls-2" x="926" y="494" width="36" height="36"/>
    <rect class="cls-2" x="62" y="548" width="36" height="36"/>
    <rect class="cls-2" x="278" y="548" width="36" height="36"/>
    <rect class="cls-2" x="386" y="548" width="36" height="36"/>
    <rect class="cls-2" x="926" y="548" width="36" height="36"/>
    <rect class="cls-2" x="62" y="602" width="36" height="36"/>
    <rect class="cls-2" x="278" y="602" width="36" height="36"/>
    <rect class="cls-2" x="386" y="602" width="36" height="36"/>
    <rect class="cls-2" x="926" y="602" width="36" height="36"/>
    <rect class="cls-2" x="62" y="656" width="36" height="36"/>
    <rect class="cls-2" x="278" y="656" width="36" height="36"/>
    <rect class="cls-2" x="386" y="656" width="36" height="36"/>
    <rect class="cls-2" x="926" y="656" width="36" height="36"/>
    <rect class="cls-2" x="62" y="710" width="36" height="36"/>
    <rect class="cls-2" x="278" y="710" width="36" height="36"/>
    <rect class="cls-2" x="386" y="710" width="36" height="36"/>
    <rect class="cls-2" x="440" y="710" width="36" height="36"/>
    <rect class="cls-2" x="494" y="710" width="36" height="36"/>
    <rect class="cls-2" x="548" y="710" width="36" height="36"/>
    <rect class="cls-2" x="602" y="710" width="36" height="36"/>
    <rect class="cls-2" x="710" y="710" width="36" height="36"/>
    <rect class="cls-2" x="764" y="710" width="36" height="36"/>
    <rect class="cls-2" x="818" y="710" width="36" height="36"/>
    <rect class="cls-2" x="872" y="710" width="36" height="36"/>
    <rect class="cls-2" x="926" y="710" width="36" height="36"/>
  </g>
</svg>