<?xml version="1.0" encoding="UTF-8"?>
<svg id="_レイヤー_1" data-name="レイヤー 1" xmlns="http://www.w3.org/2000/svg" viewBox="0 0 1024 1024">
  <defs>
    <style>
      .cls-1, .cls-2 {
        fill: #fff;
      }

      .cls-2 {
        font-family: MesloBIZUD-Regular, 'Meslo BIZUD';
        font-size: 24px;
        opacity: .5;
      }

      .cls-3 {
        fill: #22b573;
      }

      .cls-4 {
        letter-spacing: .02em;
      }

      .cls-5 {
        letter-spacing: .03em;
      }

      .cls-6 {
        letter-spacing: .01em;
      }
    </style>
  </defs>
  <g id="_背景" data-name="背景">
    <rect class="cls-3" x="0" y="0" width="1024" height="1024"/>
  </g>
  <text class="cls-2" transform="translate(62 82.75)"><tspan class="cls-6" x="0" y="0">2 3 5 7 11 13 17 19 23 29 31 37 41 43 47 53 59 61 67 71 73 7</tspan><tspan x="885.55" y="0">9 </tspan><tspan class="cls-4" x="0" y="32.4">83 89 97 101 103 107 109 113 127 131 137 139 149 151 157 16</tspan><tspan x="885.55" y="32.4">3 </tspan><tspan class="cls-5" x="0" y="64.8">167 173 179 181 191 193 197 199 211 223 227 229 233 239 24</tspan><tspan x="885.55" y="64.8">1 </tspan><tspan class="cls-5" x="0" y="97.2">251 257 263 269 271 277 281 283 293 307 311 313 317 331 33</tspan><tspan x="885.55" y="97.2">7 </tspan><tspan class="cls-5" x="0" y="129.6">347 349 353 359 367 373 379 383 389 397 401 409 419 421 43</tspan><tspan x="885.55" y="129.6">1 </tspan><tspan class="cls-5" x="0" y="162">433 439 443 449 457 461 463 467 479 487 491 499 503 509 52</tspan><tspan x="885.55" y="162">1 </tspan><tspan class="cls-5" x="0" y="194.4">523 541 547 557 563 569 571 577 587 593 599 601 607 613 61</tspan><tspan x="885.55" y="194.4">7 </tspan><tspan class="cls-5" x="0" y="226.8">619 631 641 643 647 653 659 661 673 677 683 691 701 709 71</tspan><tspan x="885.55" y="226.8">9 </tspan><tspan class="cls-5" x="0" y="259.2">727 733 739 743 751 757 761 769 773 787 797 809 811 821 82</tspan><tspan x="885.55" y="259.2">3 </tspan><tspan class="cls-5" x="0" y="291.6">827 829 839 853 857 859 863 877 881 883 887 907 911 919 92</tspan><tspan x="885.55" y="291.6">9 </tspan><tspan class="cls-5" x="0" y="324">937 941 947 953 967 971 977 983 991 997 1009 1013 1019 102</tspan><tspan x="885.55" y="324">1 </tspan><tspan class="cls-5" x="0" y="356.4">1031 1033 1039 1049 1051 1061 1063 1069 1087 1091 1093 109</tspan><tspan x="885.55" y="356.4">7 </tspan><tspan class="cls-5" x="0" y="388.8">1103 1109 1117 1123 1129 1151 1153 1163 1171 1181 1187 119</tspan><tspan x="885.55" y="388.8">3 </tspan><tspan class="cls-5" x="0" y="421.2">1201 1213 1217 1223 1229 1231 1237 1249 1259 1277 1279 128</tspan><tspan x="885.55" y="421.2">3 </tspan><tspan class="cls-5" x="0" y="453.6">1289 1291 1297 1301 1303 1307 1319 1321 1327 1361 1367 137</tspan><tspan x="885.55" y="453.6">3 </tspan><tspan class="cls-5" x="0" y="486">1381 1399 1409 1423 1427 1429 1433 1439 1447 1451 1453 145</tspan><tspan x="885.55" y="486">9 </tspan><tspan class="cls-5" x="0" y="518.4">1471 1481 1483 1487 1489 1493 1499 1511 1523 1531 1543 154</tspan><tspan x="885.55" y="518.4">9 </tspan><tspan class="cls-5" x="0" y="550.8">1553 1559 1567 1571 1579 1583 1597 1601 1607 1609 1613 161</tspan><tspan x="885.55" y="550.8">9 </tspan><tspan class="cls-5" x="0" y="583.2">1621 1627 1637 1657 1663 1667 1669 1693 1697 1699 1709 172</tspan><tspan x="885.55" y="583.2">1 </tspan><tspan class="cls-5" x="0" y="615.6">1723 1733 1741 1747 1753 1759 1777 1783 1787 1789 1801 181</tspan><tspan x="885.55" y="615.6">1 </tspan><tspan class="cls-5" x="0" y="648">1823 1831 1847 1861 1867 1871 1873 1877 1879 1889 1901 190</tspan><tspan x="885.55" y="648">7 </tspan><tspan class="cls-5" x="0" y="680.4">1913 1931 1933 1949 1951 1973 1979 1987 1993 1997 1999 200</tspan><tspan x="885.55" y="680.4">3 </tspan><tspan class="cls-5" x="0" y="712.8">2011 2017 2027 2029 2039 2053 2063 2069 2081 2083 2087 208</tspan><tspan x="885.55" y="712.8">9 </tspan><tspan class="cls-5" x="0" y="745.2">2099 2111 2113 2129 2131 2137 2141 2143 2153 2161 2179 220</tspan><tspan x="885.55" y="745.2">3 </tspan><tspan class="cls-5" x="0" y="777.6">2207 2213 2221 2237 2239 2243 2251 2267 2269 2273 2281 228</tspan><tspan x="885.55" y="777.6">7 </tspan><tspan class="cls-5" x="0" y="810">2293 2297 2309 2311 2333 2339 2341 2347 2351 2357 2371 237</tspan><tspan x="885.55" y="810">7 </tspan><tspan class="cls-5" x="0" y="842.4">2381 2383 2389 2393 2399 2411 2417 2423 2437 2441 2447 245</tspan><tspan x="885.55" y="842.4">9 </tspan><tspan class="cls-5" x="0" y="874.8">2467 2473 2477 2503 2521 2531 2539 2543 2549 2551 2557 257</tspan><tspan x="885.55" y="874.8">9 </tspan></text>
  <g>
    <path class="cls-1" d="M194.25,635.67v-248.33h85c19.33,0,35.25,3.31,47.75,9.92,12.5,6.61,21.78,15.7,27.83,27.25,6.05,11.56,9.08,24.72,9.08,39.5s-3.03,27.83-9.08,39.17c-6.06,11.33-15.31,20.2-27.75,26.58-12.45,6.39-28.33,9.58-47.67,9.58h-67.5v-28.17h66c13.11,0,23.64-1.92,31.58-5.75,7.94-3.83,13.75-9.28,17.42-16.33,3.67-7.05,5.5-15.42,5.5-25.08s-1.83-18.47-5.5-25.75c-3.67-7.28-9.5-12.94-17.5-17-8-4.05-18.61-6.08-31.83-6.08h-51.67v220.5h-31.67ZM336.92,635.67l-60-111.83h35.67l61,111.83h-36.67Z"/>
    <path class="cls-1" d="M493.42,640c-17.89,0-33.42-2.89-46.58-8.67-13.17-5.78-23.47-13.86-30.92-24.25-7.45-10.39-11.67-22.53-12.67-36.42h32.5c.89,9.33,4.05,17.03,9.5,23.08,5.44,6.06,12.42,10.56,20.92,13.5,8.5,2.95,17.58,4.42,27.25,4.42,11.22,0,21.3-1.83,30.25-5.5,8.94-3.67,16.03-8.83,21.25-15.5,5.22-6.67,7.83-14.39,7.83-23.17,0-8-2.25-14.5-6.75-19.5s-10.47-9.11-17.92-12.33c-7.45-3.22-15.61-6.05-24.5-8.5l-30-8.5c-20-5.67-35.56-13.78-46.67-24.33-11.11-10.55-16.67-24.05-16.67-40.5,0-14,3.78-26.25,11.33-36.75,7.55-10.5,17.78-18.64,30.67-24.42,12.89-5.78,27.33-8.67,43.33-8.67s30.78,2.89,43.33,8.67c12.55,5.78,22.47,13.64,29.75,23.58,7.28,9.95,11.14,21.2,11.58,33.75h-31c-1.45-12.11-7.22-21.47-17.33-28.08-10.11-6.61-22.56-9.92-37.33-9.92-10.67,0-20.03,1.75-28.08,5.25-8.06,3.5-14.31,8.28-18.75,14.33-4.45,6.06-6.67,12.97-6.67,20.75,0,8.67,2.69,15.64,8.08,20.92,5.39,5.28,11.78,9.39,19.17,12.33,7.39,2.95,14.08,5.25,20.08,6.92l24.83,6.83c6.67,1.78,14.03,4.22,22.08,7.33,8.05,3.11,15.75,7.25,23.08,12.42,7.33,5.17,13.36,11.72,18.08,19.67,4.72,7.95,7.08,17.7,7.08,29.25,0,13.56-3.53,25.78-10.58,36.67-7.06,10.89-17.31,19.5-30.75,25.83-13.45,6.33-29.72,9.5-48.83,9.5Z"/>
    <path class="cls-1" d="M611.58,635.67l90.17-248.33h36.67l91.33,248.33h-33.33l-52.67-147.33c-3.22-9.11-6.97-20.47-11.25-34.08-4.28-13.61-9.47-30.97-15.58-52.08h6c-6,21.33-11.2,38.92-15.58,52.75-4.39,13.83-8.03,24.97-10.92,33.42l-51.17,147.33h-33.67ZM656.92,566.33v-27.67h127.5v27.67h-127.5Z"/>
  </g>
</svg>