<?xml version="1.0" encoding="UTF-8"?>
<svg id="_レイヤー_1" data-name="レイヤー 1" xmlns="http://www.w3.org/2000/svg" viewBox="0 0 1024 1024">
  <defs>
    <style>
      .cls-1 {
        fill: #3b3b3b;
      }

      .cls-2 {
        fill: #1e1e1e;
      }

      .cls-3 {
        fill: #272727;
      }

      .cls-4 {
        fill: #303030;
      }

      .cls-5 {
        fill: #e3dbd9;
      }

      .cls-6 {
        fill: #1a1a1a;
      }
    </style>
  </defs>
  <rect class="cls-6" width="1024" height="1024"/>
  <g>
    <rect class="cls-4" x="480" y="536" width="8" height="16"/>
    <rect class="cls-4" x="456" y="464" width="8" height="16"/>
    <rect class="cls-4" x="464" y="480" width="8" height="32"/>
    <rect class="cls-4" x="616" y="984" width="144" height="8"/>
    <polygon class="cls-4" points="600 936 600 1024 576 1024 576 992 568 992 568 928 592 928 592 936 600 936"/>
    <rect class="cls-4" x="472" y="512" width="8" height="24"/>
    <rect class="cls-4" x="760" y="992" width="24" height="8"/>
    <rect class="cls-4" x="448" y="456" width="8" height="8"/>
    <rect class="cls-4" x="440" y="448" width="8" height="8"/>
    <polygon class="cls-4" points="760 504 760 536 752 536 752 544 656 544 656 552 592 552 592 544 560 544 560 552 544 552 544 560 520 560 520 552 528 552 528 544 536 544 536 536 544 536 544 528 552 528 552 520 560 520 560 512 576 512 576 504 592 504 592 496 608 496 608 488 624 488 624 480 640 480 640 472 656 472 656 464 672 464 672 456 688 456 688 448 704 448 704 440 712 440 712 432 720 432 720 424 640 424 640 416 728 416 728 424 736 424 736 440 744 440 744 488 752 488 752 504 760 504"/>
    <polygon class="cls-4" points="408 904 408 928 400 928 400 952 392 952 392 968 384 968 384 992 376 992 376 1008 368 1008 368 1024 336 1024 336 1016 344 1016 344 1000 352 1000 352 976 360 976 360 960 368 960 368 936 376 936 376 912 384 912 384 904 408 904"/>
    <rect class="cls-4" x="432" y="440" width="8" height="8"/>
    <rect class="cls-4" x="416" y="432" width="16" height="8"/>
    <polygon class="cls-5" points="600 472 600 496 592 496 592 504 576 504 576 512 560 512 560 520 552 520 552 528 544 528 544 512 536 512 536 496 528 496 528 480 520 480 520 448 504 448 504 440 496 440 496 424 472 424 472 416 440 416 440 408 432 408 432 400 424 400 424 392 416 392 416 384 408 384 408 360 416 360 416 352 424 352 424 264 432 264 432 304 440 304 440 320 456 320 456 336 464 336 464 344 472 344 472 352 488 352 488 344 496 344 496 336 504 336 504 320 512 320 512 296 504 296 504 264 496 264 496 240 504 240 504 248 512 248 512 272 520 272 520 280 528 280 528 288 544 288 544 280 552 280 552 288 560 288 560 296 576 296 576 304 584 304 584 440 576 440 576 448 568 448 568 456 592 456 592 472 600 472"/>
    <rect class="cls-5" x="408" y="320" width="8" height="32"/>
    <polygon class="cls-2" points="720 424 720 432 712 432 712 440 704 440 704 448 688 448 688 456 672 456 672 464 656 464 656 472 640 472 640 480 624 480 624 488 608 488 608 496 600 496 600 472 592 472 592 448 600 448 600 440 608 440 608 432 616 432 616 424 720 424"/>
    <polygon class="cls-3" points="720 248 720 336 712 336 712 352 704 352 704 376 696 376 696 384 688 384 688 392 680 392 680 400 664 400 664 408 656 408 656 416 640 416 640 424 616 424 616 432 608 432 608 440 600 440 600 448 592 448 592 456 568 456 568 448 576 448 576 440 584 440 584 304 576 304 576 296 560 296 560 288 552 288 552 280 544 280 544 288 528 288 528 280 520 280 520 272 512 272 512 248 504 248 504 240 496 240 496 264 504 264 504 296 512 296 512 320 504 320 504 336 496 336 496 344 488 344 488 352 472 352 472 344 464 344 464 336 456 336 456 320 440 320 440 304 432 304 432 264 424 264 424 352 416 352 416 320 408 320 408 352 416 352 416 360 408 360 408 384 416 384 416 392 424 392 424 400 432 400 432 408 440 408 440 416 448 416 448 424 424 424 424 432 416 432 416 440 392 440 392 448 368 448 368 440 352 440 352 432 336 432 336 424 328 424 328 352 320 352 320 256 328 256 328 232 336 232 336 216 344 216 344 192 352 192 352 176 360 176 360 168 352 168 352 160 336 160 336 152 328 152 328 144 320 144 320 136 304 136 304 120 288 120 288 112 280 112 280 120 272 120 272 96 296 96 296 104 344 104 344 112 400 112 400 104 408 104 408 96 416 96 416 88 432 88 432 80 448 80 448 72 488 72 488 64 560 64 560 56 576 56 576 48 592 48 592 40 608 40 608 32 624 32 624 24 656 24 656 48 648 48 648 32 632 32 632 48 624 48 624 56 616 56 616 72 608 72 608 80 600 80 600 88 592 88 592 96 584 96 584 112 576 112 576 128 584 128 584 136 592 136 592 144 600 144 600 152 608 152 608 160 624 160 624 168 656 168 656 144 664 144 664 160 672 160 672 176 680 176 680 184 688 184 688 200 696 200 696 216 704 216 704 232 712 232 712 248 720 248"/>
    <polygon class="cls-3" points="672 544 672 664 664 664 664 680 656 680 656 720 648 720 648 736 640 736 640 752 632 752 632 784 624 784 624 864 632 864 632 912 640 912 640 952 632 952 632 960 624 960 624 968 616 968 616 1008 608 1008 608 1024 600 1024 600 936 592 936 592 928 544 928 544 920 480 920 480 912 408 912 408 904 384 904 384 912 376 912 376 936 368 936 368 960 360 960 360 976 352 976 352 1000 344 1000 344 1016 336 1016 336 1024 296 1024 296 992 304 992 304 968 312 968 312 936 320 936 320 920 328 920 328 904 352 904 352 896 368 896 368 888 376 888 376 880 384 880 384 872 392 872 392 864 400 864 400 856 408 856 408 840 416 840 416 832 424 832 424 816 432 816 432 776 440 776 440 728 448 728 448 680 456 680 456 624 464 624 464 616 472 616 472 576 480 576 480 552 520 552 520 560 544 560 544 552 560 552 560 544 592 544 592 552 656 552 656 544 672 544"/>
    <polygon class="cls-3" points="520 448 520 472 512 472 512 456 504 456 504 448 520 448"/>
    <polygon class="cls-1" points="480 536 480 576 472 576 472 616 464 616 464 624 456 624 456 680 448 680 448 728 440 728 440 776 432 776 432 816 424 816 424 832 416 832 416 840 408 840 408 856 400 856 400 864 392 864 392 872 384 872 384 880 376 880 376 888 368 888 368 896 352 896 352 904 312 904 312 896 296 896 296 888 288 888 288 880 280 880 280 864 272 864 272 848 264 848 264 840 256 840 256 816 248 816 248 800 240 800 240 776 232 776 232 752 240 752 240 688 248 688 248 672 264 672 264 664 272 664 272 640 280 640 280 624 288 624 288 616 296 616 296 608 304 608 304 592 312 592 312 576 320 576 320 560 328 560 328 536 336 536 336 520 344 520 344 496 352 496 352 480 360 480 360 472 368 472 368 456 376 456 376 448 392 448 392 440 432 440 432 448 440 448 440 456 448 456 448 464 456 464 456 480 464 480 464 512 472 512 472 536 480 536"/>
    <polygon class="cls-1" points="784 1000 784 1024 608 1024 608 1008 616 1008 616 992 760 992 760 1000 784 1000"/>
    <polygon class="cls-1" points="784 880 784 992 760 992 760 984 616 984 616 968 624 968 624 960 632 960 632 952 640 952 640 912 632 912 632 864 624 864 624 784 632 784 632 752 640 752 640 736 648 736 648 720 656 720 656 680 664 680 664 664 672 664 672 544 744 544 744 560 752 560 752 584 760 584 760 656 768 656 768 752 776 752 776 880 784 880"/>
    <polygon class="cls-1" points="576 992 576 1024 368 1024 368 1008 376 1008 376 992 384 992 384 968 392 968 392 952 400 952 400 928 408 928 408 912 480 912 480 920 544 920 544 928 568 928 568 992 576 992"/>
    <polygon class="cls-1" points="360 168 360 176 352 176 352 192 344 192 344 216 336 216 336 232 320 232 320 216 312 216 312 208 304 208 304 192 296 192 296 176 288 176 288 152 280 152 280 128 272 128 272 120 280 120 280 112 288 112 288 120 304 120 304 136 320 136 320 144 328 144 328 152 336 152 336 160 352 160 352 168 360 168"/>
    <polygon class="cls-1" points="656 48 656 168 624 168 624 160 608 160 608 152 600 152 600 144 592 144 592 136 584 136 584 128 576 128 576 112 584 112 584 96 592 96 592 88 600 88 600 80 608 80 608 72 616 72 616 56 624 56 624 48 632 48 632 32 648 32 648 48 656 48"/>
    <polygon class="cls-1" points="544 512 544 536 536 536 536 544 528 544 528 552 488 552 488 536 480 536 480 512 472 512 472 480 464 480 464 464 456 464 456 456 448 456 448 448 440 448 440 440 432 440 432 432 424 432 424 424 448 424 448 416 472 416 472 424 496 424 496 440 504 440 504 456 512 456 512 472 520 472 520 480 528 480 528 496 536 496 536 512 544 512"/>
  </g>
</svg>