<?xml version="1.0" encoding="UTF-8"?>
<svg id="_レイヤー_1" data-name="レイヤー 1" xmlns="http://www.w3.org/2000/svg" xmlns:xlink="http://www.w3.org/1999/xlink" viewBox="0 0 2480 520">
  <defs>
    <style>
      .cls-1 {
        fill: url(#_名称未設定グラデーション_9);
      }

      .cls-2 {
        fill: #303030;
      }

      .cls-3 {
        fill: #fff;
      }

      .cls-4 {
        fill: #202020;
      }

      .cls-5 {
        fill: #1a1a1a;
      }
    </style>
    <linearGradient id="_名称未設定グラデーション_9" data-name="名称未設定グラデーション 9" x1="0" y1="260" x2="2480" y2="260" gradientUnits="userSpaceOnUse">
      <stop offset=".38" stop-color="#1a1a1a"/>
      <stop offset="1" stop-color="#121212" stop-opacity="0"/>
    </linearGradient>
  </defs>
  <g>
    <rect class="cls-5" width="2480" height="520"/>
    <polygon class="cls-4" points="0 0 2480 347.75 2480 520 0 520 0 0"/>
    <polygon class="cls-2" points="1240 520 2480 0 2480 520 1240 520"/>
  </g>
  <g>
    <path class="cls-3" d="M1602.15,278.23v-94.95h21.67l30.01,48.05c1.53,2.46,3.08,5.14,4.65,8.03,1.57,2.89,3.18,6.1,4.81,9.62,1.63,3.53,3.26,7.5,4.88,11.92h-1.98c-.3-3.53-.56-7.29-.8-11.28-.23-3.99-.44-7.82-.61-11.47-.17-3.65-.25-6.75-.25-9.3v-45.56h19.88v94.95h-21.73l-27.27-43.59c-2-3.27-3.85-6.45-5.54-9.53-1.7-3.08-3.47-6.48-5.32-10.2-1.85-3.72-4.05-8.17-6.6-13.35h2.49c.25,4.59.51,8.99.76,13.19s.46,8.02.61,11.44c.15,3.42.22,6.21.22,8.38v43.65h-19.88Z"/>
    <path class="cls-3" d="M1701.63,278.23v-94.95h63.53v16.12h-44.1v22.94h40.78v15.87h-40.78v23.9h44.23v16.12h-63.66Z"/>
    <path class="cls-3" d="M1780.9,278.23v-94.95h37.02c7.22,0,13.36,1.27,18.42,3.82,5.06,2.55,8.91,6.14,11.57,10.77,2.65,4.63,3.98,10.07,3.98,16.31s-1.35,11.63-4.05,16.15c-2.7,4.52-6.61,7.99-11.73,10.39-5.12,2.4-11.33,3.6-18.64,3.6h-25.11v-15.74h21.99c3.99,0,7.26-.54,9.81-1.63s4.46-2.7,5.74-4.84c1.27-2.14,1.91-4.79,1.91-7.93s-.64-5.94-1.91-8.12c-1.27-2.19-3.2-3.86-5.77-5-2.57-1.15-5.85-1.72-9.85-1.72h-13.96v78.89h-19.44ZM1833.73,278.23l-23.13-43.21h21.09l23.58,43.21h-21.54Z"/>
    <path class="cls-3" d="M1908.1,279.5c-8.41,0-15.94-1.91-22.59-5.74-6.65-3.82-11.9-9.37-15.74-16.63-3.85-7.26-5.77-16.04-5.77-26.32s1.93-19.13,5.8-26.41c3.86-7.29,9.13-12.84,15.8-16.66,6.67-3.82,14.17-5.74,22.5-5.74,5.39,0,10.42.75,15.07,2.26,4.65,1.51,8.78,3.71,12.39,6.6,3.61,2.89,6.56,6.43,8.86,10.61,2.29,4.18,3.8,8.95,4.52,14.31h-19.69c-.42-2.63-1.24-4.96-2.45-6.98-1.21-2.02-2.72-3.74-4.52-5.16-1.81-1.42-3.88-2.51-6.21-3.25-2.34-.74-4.87-1.12-7.58-1.12-4.93,0-9.25,1.23-12.97,3.7-3.72,2.46-6.61,6.04-8.67,10.74-2.06,4.69-3.09,10.4-3.09,17.11s1.04,12.6,3.12,17.27c2.08,4.67,4.97,8.2,8.67,10.58,3.7,2.38,7.99,3.57,12.87,3.57,2.72,0,5.23-.37,7.55-1.12,2.32-.74,4.4-1.83,6.25-3.25,1.85-1.42,3.38-3.15,4.59-5.19,1.21-2.04,2.05-4.35,2.52-6.95h19.69c-.51,4.42-1.82,8.65-3.92,12.68s-4.9,7.65-8.38,10.83c-3.48,3.19-7.63,5.69-12.43,7.52-4.8,1.83-10.2,2.74-16.19,2.74Z"/>
    <path class="cls-3" d="M2004.83,279.5c-8.37,0-15.9-1.91-22.59-5.74-6.69-3.82-11.98-9.37-15.87-16.63-3.89-7.26-5.83-16.04-5.83-26.32s1.94-19.13,5.83-26.41c3.89-7.29,9.18-12.84,15.87-16.66,6.69-3.82,14.22-5.74,22.59-5.74s15.95,1.91,22.62,5.74c6.67,3.82,11.95,9.38,15.84,16.66,3.89,7.29,5.83,16.09,5.83,26.41s-1.94,19.05-5.83,26.32c-3.89,7.26-9.17,12.81-15.84,16.63-6.67,3.82-14.21,5.74-22.62,5.74ZM2004.83,262.23c4.93,0,9.23-1.2,12.9-3.6,3.67-2.4,6.53-5.95,8.57-10.64,2.04-4.69,3.06-10.42,3.06-17.17s-1.02-12.61-3.06-17.3c-2.04-4.69-4.9-8.24-8.57-10.64-3.67-2.4-7.98-3.6-12.9-3.6s-9.18,1.21-12.87,3.63-6.56,5.98-8.6,10.67c-2.04,4.69-3.06,10.44-3.06,17.24s1.02,12.47,3.06,17.14c2.04,4.67,4.91,8.22,8.6,10.64s7.99,3.63,12.87,3.63Z"/>
    <path class="cls-3" d="M2063.71,278.23v-94.95h21.67l30.01,48.05c1.53,2.46,3.08,5.14,4.65,8.03,1.57,2.89,3.18,6.1,4.81,9.62,1.63,3.53,3.26,7.5,4.88,11.92h-1.98c-.3-3.53-.56-7.29-.8-11.28-.23-3.99-.44-7.82-.61-11.47-.17-3.65-.25-6.75-.25-9.3v-45.56h19.88v94.95h-21.73l-27.27-43.59c-2-3.27-3.85-6.45-5.54-9.53-1.7-3.08-3.47-6.48-5.32-10.2-1.85-3.72-4.05-8.17-6.6-13.35h2.49c.25,4.59.51,8.99.76,13.19.25,4.21.46,8.02.61,11.44.15,3.42.22,6.21.22,8.38v43.65h-19.88Z"/>
    <path class="cls-3" d="M2163.19,278.23v-94.95h63.53v16.12h-44.1v22.94h40.78v15.87h-40.78v23.9h44.23v16.12h-63.66Z"/>
  </g>
  <g>
    <path class="cls-3" d="M1604.93,310.12v21.77h-2.78v-21.77h2.78Z"/>
    <path class="cls-3" d="M1624.93,332.24c-1.48,0-2.78-.35-3.89-1.05-1.12-.7-1.99-1.68-2.61-2.95-.62-1.27-.94-2.74-.94-4.41s.31-3.19.94-4.46c.62-1.27,1.49-2.26,2.61-2.96,1.11-.7,2.41-1.05,3.89-1.05.79,0,1.53.1,2.24.31s1.34.5,1.92.88c.58.39,1.08.86,1.5,1.42.42.56.74,1.2.96,1.91l-2.53.72c-.12-.42-.3-.8-.54-1.15-.24-.35-.54-.65-.88-.91-.35-.26-.74-.46-1.19-.6-.45-.14-.94-.21-1.48-.21-1.09,0-1.99.28-2.69.85s-1.22,1.32-1.56,2.24c-.34.93-.51,1.93-.51,3.02s.17,2.07.51,2.99c.34.92.86,1.66,1.56,2.23.7.57,1.6.85,2.69.85.55,0,1.05-.07,1.5-.22.46-.15.86-.35,1.22-.62.36-.27.65-.59.9-.96.24-.37.42-.77.54-1.21l2.51.72c-.21.73-.53,1.38-.96,1.95s-.93,1.06-1.51,1.46c-.58.4-1.23.71-1.94.92-.71.21-1.47.31-2.26.31Z"/>
    <path class="cls-3" d="M1642.02,332.24c-1.48,0-2.78-.35-3.89-1.05-1.12-.7-1.99-1.68-2.61-2.95-.62-1.27-.94-2.74-.94-4.41s.31-3.19.94-4.46c.62-1.27,1.49-2.26,2.61-2.96,1.11-.7,2.41-1.05,3.89-1.05s2.8.35,3.92,1.05c1.12.7,1.99,1.69,2.62,2.96.62,1.27.94,2.76.94,4.46s-.31,3.15-.94,4.41c-.62,1.27-1.5,2.25-2.62,2.95-1.12.7-2.43,1.05-3.92,1.05ZM1642.02,329.89c1.1,0,2.01-.28,2.72-.85.71-.56,1.24-1.31,1.58-2.23.34-.92.51-1.92.51-2.99s-.17-2.09-.51-3.02c-.34-.93-.87-1.68-1.58-2.25-.71-.57-1.62-.85-2.72-.85s-1.99.28-2.69.85-1.22,1.32-1.56,2.24c-.34.93-.51,1.93-.51,3.02s.17,2.07.51,2.99c.34.92.86,1.66,1.56,2.23.7.57,1.6.85,2.69.85Z"/>
    <path class="cls-3" d="M1653.32,331.89v-16.33h2.56v3.65s-.19,0-.19,0c.22-.89.58-1.62,1.06-2.2.48-.58,1.05-1.02,1.69-1.31.65-.29,1.32-.44,2.02-.44,1.19,0,2.15.37,2.89,1.1.74.73,1.21,1.69,1.42,2.88h-.35c.19-.82.55-1.52,1.07-2.12.52-.59,1.14-1.05,1.88-1.37.74-.32,1.54-.48,2.4-.48.94,0,1.81.2,2.59.61.78.41,1.4,1.03,1.86,1.86.46.83.69,1.88.69,3.14v11.02h-2.63v-10.94c0-1.18-.33-2.02-.99-2.53-.66-.51-1.43-.76-2.31-.76-.73,0-1.36.15-1.89.46-.53.31-.94.73-1.23,1.26-.29.54-.43,1.15-.43,1.84v10.67h-2.63v-11.21c0-.91-.3-1.64-.91-2.19-.6-.56-1.37-.83-2.29-.83-.63,0-1.23.15-1.79.45-.56.3-1.01.74-1.35,1.32-.34.58-.51,1.31-.51,2.18v10.29h-2.63Z"/>
    <path class="cls-3" d="M1679.53,338v-22.44h2.54v2.62h.29c.18-.29.44-.66.77-1.1.33-.44.81-.84,1.43-1.19.62-.35,1.47-.53,2.53-.53,1.36,0,2.56.34,3.6,1.02,1.04.68,1.85,1.65,2.44,2.91.59,1.26.88,2.75.88,4.48s-.29,3.23-.88,4.5c-.58,1.27-1.4,2.25-2.43,2.94s-2.24,1.04-3.6,1.04c-1.03,0-1.87-.18-2.5-.53-.63-.36-1.12-.76-1.46-1.21-.34-.45-.6-.83-.79-1.13h-.2v8.63h-2.63ZM1686.72,329.89c1.02,0,1.88-.27,2.56-.83.69-.55,1.2-1.29,1.55-2.22.35-.93.52-1.97.52-3.1s-.17-2.15-.51-3.06c-.34-.91-.85-1.63-1.54-2.17-.69-.54-1.55-.8-2.58-.8s-1.85.25-2.53.76c-.68.51-1.2,1.21-1.54,2.11-.35.9-.52,1.96-.52,3.16s.18,2.27.53,3.2c.35.93.87,1.65,1.56,2.17.69.52,1.52.78,2.51.78Z"/>
    <path class="cls-3" d="M1704.5,332.24c-1.48,0-2.78-.35-3.89-1.05-1.12-.7-1.99-1.68-2.61-2.95-.62-1.27-.94-2.74-.94-4.41s.31-3.19.94-4.46c.62-1.27,1.49-2.26,2.61-2.96,1.11-.7,2.41-1.05,3.89-1.05s2.8.35,3.92,1.05c1.12.7,1.99,1.69,2.62,2.96.62,1.27.94,2.76.94,4.46s-.31,3.15-.94,4.41c-.62,1.27-1.5,2.25-2.62,2.95-1.12.7-2.43,1.05-3.92,1.05ZM1704.5,329.89c1.1,0,2.01-.28,2.72-.85.71-.56,1.24-1.31,1.58-2.23.34-.92.51-1.92.51-2.99s-.17-2.09-.51-3.02c-.34-.93-.87-1.68-1.58-2.25-.71-.57-1.62-.85-2.72-.85s-1.99.28-2.69.85-1.22,1.32-1.56,2.24c-.34.93-.51,1.93-.51,3.02s.17,2.07.51,2.99c.34.92.86,1.66,1.56,2.23.7.57,1.6.85,2.69.85Z"/>
    <path class="cls-3" d="M1721.34,332.24c-1.12,0-2.12-.16-2.99-.49-.87-.33-1.59-.81-2.16-1.45-.57-.64-.95-1.43-1.14-2.37l2.5-.6c.23.9.67,1.55,1.32,1.97.65.42,1.46.63,2.43.63,1.14,0,2.05-.24,2.72-.73.68-.49,1.02-1.07,1.02-1.74,0-.56-.2-1.03-.59-1.41-.39-.37-1-.65-1.8-.84l-2.72-.64c-1.48-.35-2.58-.89-3.3-1.63-.72-.74-1.08-1.68-1.08-2.83,0-.94.26-1.76.79-2.48s1.24-1.28,2.16-1.68c.91-.4,1.95-.61,3.1-.61s2.07.17,2.86.5c.78.34,1.42.8,1.91,1.39.49.59.86,1.27,1.1,2.04l-2.38.61c-.22-.58-.6-1.11-1.12-1.59-.52-.48-1.31-.72-2.36-.72-.97,0-1.79.22-2.43.67-.65.45-.97,1.01-.97,1.69,0,.6.22,1.09.66,1.45s1.13.66,2.09.88l2.47.58c1.48.35,2.58.89,3.29,1.63.71.74,1.07,1.66,1.07,2.78,0,.96-.27,1.8-.81,2.55-.54.75-1.3,1.33-2.26,1.76-.97.43-2.09.64-3.37.64Z"/>
    <path class="cls-3" d="M1738.45,332.24c-1.58,0-2.94-.35-4.08-1.05-1.15-.7-2.03-1.68-2.64-2.94-.62-1.26-.93-2.72-.93-4.4s.3-3.15.91-4.43c.6-1.28,1.46-2.27,2.56-3,1.1-.72,2.4-1.08,3.88-1.08.87,0,1.72.14,2.56.43.84.29,1.61.75,2.29,1.39.69.64,1.23,1.48,1.64,2.52.41,1.04.61,2.32.61,3.83v1.1h-12.68v-2.22h11.26l-1.23.82c0-1.07-.17-2.02-.5-2.86s-.84-1.48-1.5-1.96c-.66-.47-1.49-.71-2.47-.71s-1.83.24-2.53.72-1.24,1.11-1.61,1.88c-.37.77-.56,1.61-.56,2.49v1.48c0,1.21.21,2.23.63,3.08.42.84,1.01,1.48,1.76,1.91.75.43,1.63.65,2.62.65.64,0,1.23-.09,1.75-.28.53-.18.98-.46,1.36-.84.38-.37.67-.84.88-1.4l2.54.7c-.25.82-.68,1.54-1.29,2.16-.6.62-1.35,1.11-2.24,1.46s-1.9.53-3.02.53Z"/>
    <path class="cls-3" d="M1757.45,331.89v-16.33h2.56v3.65s-.19,0-.19,0c.22-.89.58-1.62,1.06-2.2.48-.58,1.05-1.02,1.69-1.31.65-.29,1.32-.44,2.02-.44,1.19,0,2.15.37,2.89,1.1.74.73,1.21,1.69,1.42,2.88h-.35c.19-.82.55-1.52,1.07-2.12.52-.59,1.14-1.05,1.88-1.37.74-.32,1.54-.48,2.4-.48.94,0,1.81.2,2.59.61.78.41,1.4,1.03,1.86,1.86.46.83.69,1.88.69,3.14v11.02h-2.63v-10.94c0-1.18-.33-2.02-.99-2.53-.66-.51-1.43-.76-2.31-.76-.73,0-1.36.15-1.89.46-.53.31-.94.73-1.23,1.26-.29.54-.43,1.15-.43,1.84v10.67h-2.63v-11.21c0-.91-.3-1.64-.91-2.19-.6-.56-1.37-.83-2.29-.83-.63,0-1.23.15-1.79.45-.56.3-1.01.74-1.35,1.32-.34.58-.51,1.31-.51,2.18v10.29h-2.63Z"/>
    <path class="cls-3" d="M1789.19,332.1c-1.1,0-2.07-.23-2.9-.68s-1.48-1.14-1.94-2.05c-.46-.91-.69-2.06-.69-3.43v-10.37h2.63v10.15c0,1.26.33,2.24.99,2.95.66.71,1.56,1.07,2.7,1.07.78,0,1.48-.17,2.1-.51.62-.34,1.11-.84,1.47-1.5.36-.66.54-1.45.54-2.37v-9.79h2.64v16.33h-2.54v-3.96h.35c-.51,1.53-1.23,2.61-2.16,3.23-.93.62-1.99.94-3.19.94Z"/>
    <path class="cls-3" d="M1806.9,332.24c-1.12,0-2.12-.16-2.99-.49-.87-.33-1.59-.81-2.16-1.45-.57-.64-.95-1.43-1.14-2.37l2.5-.6c.23.9.67,1.55,1.32,1.97.65.42,1.46.63,2.43.63,1.14,0,2.05-.24,2.72-.73.68-.49,1.02-1.07,1.02-1.74,0-.56-.2-1.03-.59-1.41-.39-.37-1-.65-1.8-.84l-2.72-.64c-1.48-.35-2.58-.89-3.3-1.63-.72-.74-1.08-1.68-1.08-2.83,0-.94.26-1.76.79-2.48s1.24-1.28,2.16-1.68c.91-.4,1.95-.61,3.1-.61s2.07.17,2.86.5c.78.34,1.42.8,1.91,1.39.49.59.86,1.27,1.1,2.04l-2.38.61c-.22-.58-.6-1.11-1.12-1.59-.52-.48-1.31-.72-2.36-.72-.97,0-1.79.22-2.43.67-.65.45-.97,1.01-.97,1.69,0,.6.22,1.09.66,1.45s1.13.66,2.09.88l2.47.58c1.48.35,2.58.89,3.29,1.63.71.74,1.07,1.66,1.07,2.78,0,.96-.27,1.8-.81,2.55s-1.3,1.33-2.26,1.76c-.97.43-2.09.64-3.37.64Z"/>
    <path class="cls-3" d="M1818.47,312.88c-.5,0-.93-.17-1.29-.51-.36-.34-.54-.75-.54-1.23s.18-.9.54-1.23c.36-.34.79-.5,1.29-.5s.94.17,1.3.5c.36.34.54.75.54,1.23s-.18.89-.54,1.23c-.36.34-.79.51-1.3.51ZM1817.14,331.89v-16.33h2.63v16.33h-2.63Z"/>
    <path class="cls-3" d="M1831.04,332.24c-1.48,0-2.78-.35-3.89-1.05-1.12-.7-1.99-1.68-2.61-2.95-.62-1.27-.94-2.74-.94-4.41s.31-3.19.94-4.46c.62-1.27,1.49-2.26,2.61-2.96,1.11-.7,2.41-1.05,3.89-1.05.79,0,1.53.1,2.24.31s1.34.5,1.92.88c.58.39,1.08.86,1.5,1.42.42.56.74,1.2.96,1.91l-2.53.72c-.12-.42-.3-.8-.54-1.15-.24-.35-.54-.65-.88-.91-.35-.26-.74-.46-1.19-.6-.45-.14-.94-.21-1.48-.21-1.09,0-1.99.28-2.69.85s-1.22,1.32-1.56,2.24c-.34.93-.51,1.93-.51,3.02s.17,2.07.51,2.99c.34.92.86,1.66,1.56,2.23.7.57,1.6.85,2.69.85.55,0,1.05-.07,1.5-.22.46-.15.86-.35,1.22-.62.36-.27.65-.59.9-.96.24-.37.42-.77.54-1.21l2.51.72c-.21.73-.53,1.38-.96,1.95s-.93,1.06-1.51,1.46c-.58.4-1.23.71-1.94.92-.71.21-1.47.31-2.26.31Z"/>
    <path class="cls-3" d="M1856.33,315.56v2.25h-8.44v-2.25h8.44ZM1850.34,311.67h2.63v15.98c0,.73.15,1.26.45,1.6.3.34.79.5,1.48.5.17,0,.38-.02.64-.06.26-.04.49-.08.71-.12l.54,2.22c-.27.1-.58.17-.93.22-.35.05-.69.07-1.03.07-1.41,0-2.51-.37-3.3-1.12s-1.18-1.78-1.18-3.12v-16.19Z"/>
    <path class="cls-3" d="M1866.05,332.24c-1.48,0-2.78-.35-3.89-1.05-1.12-.7-1.99-1.68-2.61-2.95-.62-1.27-.94-2.74-.94-4.41s.31-3.19.94-4.46c.62-1.27,1.49-2.26,2.61-2.96,1.11-.7,2.41-1.05,3.89-1.05s2.8.35,3.92,1.05c1.12.7,1.99,1.69,2.62,2.96.62,1.27.94,2.76.94,4.46s-.31,3.15-.94,4.41c-.62,1.27-1.5,2.25-2.62,2.95-1.12.7-2.43,1.05-3.92,1.05ZM1866.05,329.89c1.1,0,2.01-.28,2.72-.85.71-.56,1.24-1.31,1.58-2.23.34-.92.51-1.92.51-2.99s-.17-2.09-.51-3.02c-.34-.93-.87-1.68-1.58-2.25-.71-.57-1.62-.85-2.72-.85s-1.99.28-2.69.85-1.22,1.32-1.56,2.24c-.34.93-.51,1.93-.51,3.02s.17,2.07.51,2.99c.34.92.86,1.66,1.56,2.23.7.57,1.6.85,2.69.85Z"/>
    <path class="cls-3" d="M1885.76,331.89v-21.77h2.63v21.77h-2.63ZM1888.23,326.02v-3.26h.48l6.98-7.2h3.26l-7.55,7.76h-.29l-2.88,2.7ZM1896.09,331.89l-6.25-7.99,1.87-1.86,7.76,9.85h-3.38Z"/>
    <path class="cls-3" d="M1903.51,312.88c-.5,0-.93-.17-1.29-.51-.36-.34-.54-.75-.54-1.23s.18-.9.54-1.23c.36-.34.79-.5,1.29-.5s.94.17,1.3.5c.36.34.54.75.54,1.23s-.18.89-.54,1.23c-.36.34-.79.51-1.3.51ZM1902.18,331.89v-16.33h2.63v16.33h-2.63Z"/>
    <path class="cls-3" d="M1912.06,310.12v21.77h-2.63v-21.77h2.63Z"/>
    <path class="cls-3" d="M1919.3,310.12v21.77h-2.63v-21.77h2.63Z"/>
    <path class="cls-3" d="M1938.76,315.56v2.25h-8.44v-2.25h8.44ZM1932.77,311.67h2.63v15.98c0,.73.15,1.26.45,1.6.3.34.79.5,1.48.5.17,0,.38-.02.64-.06.26-.04.49-.08.71-.12l.54,2.22c-.27.1-.58.17-.93.22-.35.05-.69.07-1.03.07-1.41,0-2.51-.37-3.3-1.12s-1.18-1.78-1.18-3.12v-16.19Z"/>
    <path class="cls-3" d="M1943.45,312.88c-.5,0-.93-.17-1.29-.51-.36-.34-.54-.75-.54-1.23s.18-.9.54-1.23c.36-.34.79-.5,1.29-.5s.94.17,1.3.5c.36.34.54.75.54,1.23s-.18.89-.54,1.23c-.36.34-.79.51-1.3.51ZM1942.12,331.89v-16.33h2.63v16.33h-2.63Z"/>
    <path class="cls-3" d="M1949.37,331.89v-16.33h2.56v3.65s-.19,0-.19,0c.22-.89.58-1.62,1.06-2.2.48-.58,1.05-1.02,1.69-1.31.65-.29,1.32-.44,2.02-.44,1.19,0,2.15.37,2.89,1.1.74.73,1.21,1.69,1.42,2.88h-.35c.19-.82.55-1.52,1.07-2.12.52-.59,1.14-1.05,1.88-1.37.74-.32,1.54-.48,2.4-.48.94,0,1.81.2,2.59.61.78.41,1.4,1.03,1.86,1.86.46.83.69,1.88.69,3.14v11.02h-2.63v-10.94c0-1.18-.33-2.02-.99-2.53-.66-.51-1.43-.76-2.31-.76-.73,0-1.36.15-1.89.46-.53.31-.94.73-1.23,1.26-.29.54-.43,1.15-.43,1.84v10.67h-2.63v-11.21c0-.91-.3-1.64-.91-2.19-.6-.56-1.37-.83-2.29-.83-.63,0-1.23.15-1.79.45-.56.3-1.01.74-1.35,1.32-.34.58-.51,1.31-.51,2.18v10.29h-2.63Z"/>
    <path class="cls-3" d="M1982.45,332.24c-1.58,0-2.94-.35-4.08-1.05-1.15-.7-2.03-1.68-2.64-2.94-.62-1.26-.93-2.72-.93-4.4s.3-3.15.91-4.43c.6-1.28,1.46-2.27,2.56-3,1.1-.72,2.4-1.08,3.88-1.08.87,0,1.72.14,2.56.43.84.29,1.61.75,2.29,1.39.69.64,1.23,1.48,1.64,2.52.41,1.04.61,2.32.61,3.83v1.1h-12.68v-2.22h11.26l-1.23.82c0-1.07-.17-2.02-.5-2.86s-.84-1.48-1.5-1.96c-.66-.47-1.49-.71-2.47-.71s-1.83.24-2.53.72-1.24,1.11-1.61,1.88c-.37.77-.56,1.61-.56,2.49v1.48c0,1.21.21,2.23.63,3.08.42.84,1.01,1.48,1.76,1.91.75.43,1.63.65,2.62.65.64,0,1.23-.09,1.75-.28.53-.18.98-.46,1.36-.84.38-.37.67-.84.88-1.4l2.54.7c-.25.82-.68,1.54-1.29,2.16-.6.62-1.35,1.11-2.24,1.46s-1.9.53-3.02.53Z"/>
    <path class="cls-3" d="M1995.03,332.08c-.55,0-1.01-.19-1.4-.58-.39-.38-.58-.85-.58-1.4s.19-1.01.58-1.4.85-.58,1.4-.58,1.01.19,1.4.58c.38.39.58.85.58,1.4s-.19,1.01-.58,1.4-.85.58-1.4.58Z"/>
  </g>
  <rect class="cls-1" width="2480" height="520"/>
</svg>