<?xml version="1.0" encoding="UTF-8"?>
<svg id="_レイヤー_1" data-name="レイヤー 1" xmlns="http://www.w3.org/2000/svg" viewBox="0 0 1500 500">
  <defs>
    <style>
      .cls-1 {
        fill: #3b3b3b;
      }

      .cls-2 {
        fill: #1e1e1e;
      }

      .cls-3 {
        fill: #fff;
        font-family: MesloBIZUD-Regular, 'Meslo BIZUD';
        font-size: 32px;
      }

      .cls-4 {
        fill: #272727;
      }

      .cls-5 {
        fill: #303030;
      }

      .cls-6 {
        opacity: .5;
      }

      .cls-7 {
        fill: #e3dbd9;
      }

      .cls-8 {
        fill: #1a1a1a;
      }
    </style>
  </defs>
  <rect class="cls-8" width="1500" height="500"/>
  <g>
    <rect class="cls-5" x="1284" y="256" width="4" height="8"/>
    <rect class="cls-5" x="1272" y="220" width="4" height="8"/>
    <rect class="cls-5" x="1276" y="228" width="4" height="16"/>
    <rect class="cls-5" x="1352" y="480" width="72" height="4"/>
    <polygon class="cls-5" points="1344 456 1344 500 1332 500 1332 484 1328 484 1328 452 1340 452 1340 456 1344 456"/>
    <rect class="cls-5" x="1280" y="244" width="4" height="12"/>
    <rect class="cls-5" x="1424" y="484" width="12" height="4"/>
    <rect class="cls-5" x="1268" y="216" width="4" height="4"/>
    <rect class="cls-5" x="1264" y="212" width="4" height="4"/>
    <polygon class="cls-5" points="1424 240 1424 256 1420 256 1420 260 1372 260 1372 264 1340 264 1340 260 1324 260 1324 264 1316 264 1316 268 1304 268 1304 264 1308 264 1308 260 1312 260 1312 256 1316 256 1316 252 1320 252 1320 248 1324 248 1324 244 1332 244 1332 240 1340 240 1340 236 1348 236 1348 232 1356 232 1356 228 1364 228 1364 224 1372 224 1372 220 1380 220 1380 216 1388 216 1388 212 1396 212 1396 208 1400 208 1400 204 1404 204 1404 200 1364 200 1364 196 1408 196 1408 200 1412 200 1412 208 1416 208 1416 232 1420 232 1420 240 1424 240"/>
    <polygon class="cls-5" points="1248 440 1248 452 1244 452 1244 464 1240 464 1240 472 1236 472 1236 484 1232 484 1232 492 1228 492 1228 500 1212 500 1212 496 1216 496 1216 488 1220 488 1220 476 1224 476 1224 468 1228 468 1228 456 1232 456 1232 444 1236 444 1236 440 1248 440"/>
    <rect class="cls-5" x="1260" y="208" width="4" height="4"/>
    <rect class="cls-5" x="1252" y="204" width="8" height="4"/>
    <polygon class="cls-7" points="1344 224 1344 236 1340 236 1340 240 1332 240 1332 244 1324 244 1324 248 1320 248 1320 252 1316 252 1316 244 1312 244 1312 236 1308 236 1308 228 1304 228 1304 212 1296 212 1296 208 1292 208 1292 200 1280 200 1280 196 1264 196 1264 192 1260 192 1260 188 1256 188 1256 184 1252 184 1252 180 1248 180 1248 168 1252 168 1252 164 1256 164 1256 120 1260 120 1260 140 1264 140 1264 148 1272 148 1272 156 1276 156 1276 160 1280 160 1280 164 1288 164 1288 160 1292 160 1292 156 1296 156 1296 148 1300 148 1300 136 1296 136 1296 120 1292 120 1292 108 1296 108 1296 112 1300 112 1300 124 1304 124 1304 128 1308 128 1308 132 1316 132 1316 128 1320 128 1320 132 1324 132 1324 136 1332 136 1332 140 1336 140 1336 208 1332 208 1332 212 1328 212 1328 216 1340 216 1340 224 1344 224"/>
    <rect class="cls-7" x="1248" y="148" width="4" height="16"/>
    <polygon class="cls-2" points="1404 200 1404 204 1400 204 1400 208 1396 208 1396 212 1388 212 1388 216 1380 216 1380 220 1372 220 1372 224 1364 224 1364 228 1356 228 1356 232 1348 232 1348 236 1344 236 1344 224 1340 224 1340 212 1344 212 1344 208 1348 208 1348 204 1352 204 1352 200 1404 200"/>
    <polygon class="cls-4" points="1404 112 1404 156 1400 156 1400 164 1396 164 1396 176 1392 176 1392 180 1388 180 1388 184 1384 184 1384 188 1376 188 1376 192 1372 192 1372 196 1364 196 1364 200 1352 200 1352 204 1348 204 1348 208 1344 208 1344 212 1340 212 1340 216 1328 216 1328 212 1332 212 1332 208 1336 208 1336 140 1332 140 1332 136 1324 136 1324 132 1320 132 1320 128 1316 128 1316 132 1308 132 1308 128 1304 128 1304 124 1300 124 1300 112 1296 112 1296 108 1292 108 1292 120 1296 120 1296 136 1300 136 1300 148 1296 148 1296 156 1292 156 1292 160 1288 160 1288 164 1280 164 1280 160 1276 160 1276 156 1272 156 1272 148 1264 148 1264 140 1260 140 1260 120 1256 120 1256 164 1252 164 1252 148 1248 148 1248 164 1252 164 1252 168 1248 168 1248 180 1252 180 1252 184 1256 184 1256 188 1260 188 1260 192 1264 192 1264 196 1268 196 1268 200 1256 200 1256 204 1252 204 1252 208 1240 208 1240 212 1228 212 1228 208 1220 208 1220 204 1212 204 1212 200 1208 200 1208 164 1204 164 1204 116 1208 116 1208 104 1212 104 1212 96 1216 96 1216 84 1220 84 1220 76 1224 76 1224 72 1220 72 1220 68 1212 68 1212 64 1208 64 1208 60 1204 60 1204 56 1196 56 1196 48 1188 48 1188 44 1184 44 1184 48 1180 48 1180 36 1192 36 1192 40 1216 40 1216 44 1244 44 1244 40 1248 40 1248 36 1252 36 1252 32 1260 32 1260 28 1268 28 1268 24 1288 24 1288 20 1324 20 1324 16 1332 16 1332 12 1340 12 1340 8 1348 8 1348 4 1356 4 1356 0 1372 0 1372 12 1368 12 1368 4 1360 4 1360 12 1356 12 1356 16 1352 16 1352 24 1348 24 1348 28 1344 28 1344 32 1340 32 1340 36 1336 36 1336 44 1332 44 1332 52 1336 52 1336 56 1340 56 1340 60 1344 60 1344 64 1348 64 1348 68 1356 68 1356 72 1372 72 1372 60 1376 60 1376 68 1380 68 1380 76 1384 76 1384 80 1388 80 1388 88 1392 88 1392 96 1396 96 1396 104 1400 104 1400 112 1404 112"/>
    <polygon class="cls-4" points="1380 260 1380 320 1376 320 1376 328 1372 328 1372 348 1368 348 1368 356 1364 356 1364 364 1360 364 1360 380 1356 380 1356 420 1360 420 1360 444 1364 444 1364 464 1360 464 1360 468 1356 468 1356 472 1352 472 1352 492 1348 492 1348 500 1344 500 1344 456 1340 456 1340 452 1316 452 1316 448 1284 448 1284 444 1248 444 1248 440 1236 440 1236 444 1232 444 1232 456 1228 456 1228 468 1224 468 1224 476 1220 476 1220 488 1216 488 1216 496 1212 496 1212 500 1192 500 1192 484 1196 484 1196 472 1200 472 1200 456 1204 456 1204 448 1208 448 1208 440 1220 440 1220 436 1228 436 1228 432 1232 432 1232 428 1236 428 1236 424 1240 424 1240 420 1244 420 1244 416 1248 416 1248 408 1252 408 1252 404 1256 404 1256 396 1260 396 1260 376 1264 376 1264 352 1268 352 1268 328 1272 328 1272 300 1276 300 1276 296 1280 296 1280 276 1284 276 1284 264 1304 264 1304 268 1316 268 1316 264 1324 264 1324 260 1340 260 1340 264 1372 264 1372 260 1380 260"/>
    <polygon class="cls-4" points="1304 212 1304 224 1300 224 1300 216 1296 216 1296 212 1304 212"/>
    <polygon class="cls-1" points="1284 256 1284 276 1280 276 1280 296 1276 296 1276 300 1272 300 1272 328 1268 328 1268 352 1264 352 1264 376 1260 376 1260 396 1256 396 1256 404 1252 404 1252 408 1248 408 1248 416 1244 416 1244 420 1240 420 1240 424 1236 424 1236 428 1232 428 1232 432 1228 432 1228 436 1220 436 1220 440 1200 440 1200 436 1192 436 1192 432 1188 432 1188 428 1184 428 1184 420 1180 420 1180 412 1176 412 1176 408 1172 408 1172 396 1168 396 1168 388 1164 388 1164 376 1160 376 1160 364 1164 364 1164 332 1168 332 1168 324 1176 324 1176 320 1180 320 1180 308 1184 308 1184 300 1188 300 1188 296 1192 296 1192 292 1196 292 1196 284 1200 284 1200 276 1204 276 1204 268 1208 268 1208 256 1212 256 1212 248 1216 248 1216 236 1220 236 1220 228 1224 228 1224 224 1228 224 1228 216 1232 216 1232 212 1240 212 1240 208 1260 208 1260 212 1264 212 1264 216 1268 216 1268 220 1272 220 1272 228 1276 228 1276 244 1280 244 1280 256 1284 256"/>
    <polygon class="cls-1" points="1436 488 1436 500 1348 500 1348 492 1352 492 1352 484 1424 484 1424 488 1436 488"/>
    <polygon class="cls-1" points="1436 428 1436 484 1424 484 1424 480 1352 480 1352 472 1356 472 1356 468 1360 468 1360 464 1364 464 1364 444 1360 444 1360 420 1356 420 1356 380 1360 380 1360 364 1364 364 1364 356 1368 356 1368 348 1372 348 1372 328 1376 328 1376 320 1380 320 1380 260 1416 260 1416 268 1420 268 1420 280 1424 280 1424 316 1428 316 1428 364 1432 364 1432 428 1436 428"/>
    <polygon class="cls-1" points="1332 484 1332 500 1228 500 1228 492 1232 492 1232 484 1236 484 1236 472 1240 472 1240 464 1244 464 1244 452 1248 452 1248 444 1284 444 1284 448 1316 448 1316 452 1328 452 1328 484 1332 484"/>
    <polygon class="cls-1" points="1224 72 1224 76 1220 76 1220 84 1216 84 1216 96 1212 96 1212 104 1204 104 1204 96 1200 96 1200 92 1196 92 1196 84 1192 84 1192 76 1188 76 1188 64 1184 64 1184 52 1180 52 1180 48 1184 48 1184 44 1188 44 1188 48 1196 48 1196 56 1204 56 1204 60 1208 60 1208 64 1212 64 1212 68 1220 68 1220 72 1224 72"/>
    <polygon class="cls-1" points="1372 12 1372 72 1356 72 1356 68 1348 68 1348 64 1344 64 1344 60 1340 60 1340 56 1336 56 1336 52 1332 52 1332 44 1336 44 1336 36 1340 36 1340 32 1344 32 1344 28 1348 28 1348 24 1352 24 1352 16 1356 16 1356 12 1360 12 1360 4 1368 4 1368 12 1372 12"/>
    <polygon class="cls-1" points="1316 244 1316 256 1312 256 1312 260 1308 260 1308 264 1288 264 1288 256 1284 256 1284 244 1280 244 1280 228 1276 228 1276 220 1272 220 1272 216 1268 216 1268 212 1264 212 1264 208 1260 208 1260 204 1256 204 1256 200 1268 200 1268 196 1280 196 1280 200 1292 200 1292 208 1296 208 1296 216 1300 216 1300 224 1304 224 1304 228 1308 228 1308 236 1312 236 1312 244 1316 244"/>
  </g>
  <text class="cls-3" transform="translate(40.93 64.02)"><tspan class="cls-6"><tspan x="0" y="0">&gt; whoami</tspan></tspan><tspan x="0" y="48">nercone</tspan><tspan class="cls-6"><tspan x="0" y="96">&gt; pwd</tspan></tspan><tspan x="0" y="144">/home/nercone</tspan></text>
</svg>