<?xml version="1.0" encoding="UTF-8"?>
<svg id="_レイヤー_1" data-name="レイヤー 1" xmlns="http://www.w3.org/2000/svg" viewBox="0 0 2560 1440">
  <defs>
    <style>
      .cls-1 {
        fill: none;
        stroke: #fff;
        stroke-miterlimit: 10;
        stroke-width: 24px;
      }

      .cls-2 {
        fill: #303030;
      }

      .cls-3 {
        fill: #fff;
      }

      .cls-4 {
        fill: #202020;
      }

      .cls-5 {
        fill: #1a1a1a;
      }
    </style>
  </defs>
  <g>
    <rect class="cls-5" width="2560" height="1440"/>
    <polygon class="cls-4" points="0 0 2560 963 2560 1440 0 1440 0 0"/>
    <polygon class="cls-2" points="1280 1440 2560 0 2560 1440 1280 1440"/>
  </g>
  <g>
    <polyline class="cls-1" points="1015.57 752.4 631.57 624 631.57 816 823.57 816 1015.57 624 1015.57 816 915.57 816"/>
    <g>
      <path class="cls-3" d="M1159.57,742.43v-116.86h26.67l36.94,59.14c1.88,3.03,3.79,6.33,5.73,9.88,1.93,3.56,3.91,7.5,5.92,11.84,2.01,4.34,4.01,9.23,6,14.67h-2.43c-.37-4.34-.69-8.97-.98-13.88-.29-4.92-.54-9.62-.75-14.12-.21-4.5-.31-8.31-.31-11.45v-56.08h24.47v116.86h-26.75l-33.57-53.65c-2.46-4.03-4.73-7.93-6.82-11.73-2.09-3.79-4.27-7.97-6.55-12.55-2.27-4.58-4.98-10.05-8.12-16.43h3.06c.31,5.65.63,11.06.94,16.24s.56,9.87.75,14.08c.18,4.21.27,7.65.27,10.31v53.73h-24.47Z"/>
      <path class="cls-3" d="M1282,742.43v-116.86h78.2v19.84h-54.27v28.24h50.2v19.53h-50.2v29.41h54.43v19.84h-78.35Z"/>
      <path class="cls-3" d="M1379.57,742.43v-116.86h45.57c8.89,0,16.44,1.57,22.67,4.71,6.22,3.14,10.97,7.56,14.24,13.25,3.27,5.7,4.9,12.39,4.9,20.08s-1.66,14.31-4.98,19.88c-3.32,5.57-8.13,9.83-14.43,12.78-6.3,2.95-13.95,4.43-22.94,4.43h-30.9v-19.37h27.06c4.91,0,8.94-.67,12.08-2s5.49-3.32,7.06-5.96c1.57-2.64,2.35-5.89,2.35-9.76s-.78-7.31-2.35-10c-1.57-2.69-3.93-4.75-7.1-6.16-3.17-1.41-7.2-2.12-12.12-2.12h-17.18v97.1h-23.92ZM1444.59,742.43l-28.47-53.18h25.96l29.02,53.18h-26.51Z"/>
      <path class="cls-3" d="M1536.12,744c-10.35,0-19.62-2.35-27.8-7.06-8.18-4.71-14.64-11.53-19.37-20.47-4.73-8.94-7.1-19.74-7.1-32.39s2.38-23.54,7.14-32.51c4.76-8.97,11.24-15.8,19.45-20.51,8.21-4.71,17.44-7.06,27.69-7.06,6.64,0,12.82.93,18.55,2.78,5.73,1.86,10.81,4.56,15.25,8.12,4.44,3.56,8.08,7.91,10.9,13.06,2.82,5.15,4.68,11.02,5.57,17.61h-24.24c-.52-3.24-1.53-6.1-3.02-8.59-1.49-2.48-3.35-4.6-5.57-6.35-2.22-1.75-4.77-3.08-7.65-4-2.88-.91-5.99-1.37-9.33-1.37-6.07,0-11.39,1.52-15.96,4.55-4.58,3.03-8.13,7.44-10.67,13.22-2.54,5.78-3.8,12.8-3.8,21.06s1.28,15.5,3.84,21.25c2.56,5.75,6.12,10.09,10.67,13.02,4.55,2.93,9.83,4.39,15.84,4.39,3.34,0,6.44-.46,9.29-1.37,2.85-.92,5.41-2.25,7.69-4,2.27-1.75,4.16-3.88,5.65-6.39s2.52-5.36,3.1-8.55h24.24c-.63,5.44-2.24,10.64-4.82,15.61s-6.03,9.41-10.31,13.33c-4.29,3.92-9.39,7.01-15.29,9.25-5.91,2.25-12.55,3.37-19.92,3.37Z"/>
      <path class="cls-3" d="M1655.18,744c-10.3,0-19.57-2.35-27.8-7.06-8.24-4.71-14.75-11.53-19.53-20.47-4.78-8.94-7.18-19.74-7.18-32.39s2.39-23.54,7.18-32.51c4.78-8.97,11.29-15.8,19.53-20.51,8.24-4.71,17.5-7.06,27.8-7.06s19.63,2.35,27.84,7.06c8.21,4.71,14.71,11.54,19.49,20.51,4.78,8.97,7.18,19.8,7.18,32.51s-2.39,23.45-7.18,32.39c-4.78,8.94-11.28,15.76-19.49,20.47-8.21,4.71-17.49,7.06-27.84,7.06ZM1655.18,722.75c6.07,0,11.36-1.48,15.88-4.43,4.52-2.95,8.04-7.32,10.55-13.1s3.76-12.82,3.76-21.14-1.25-15.52-3.76-21.29c-2.51-5.78-6.03-10.14-10.55-13.1-4.52-2.95-9.82-4.43-15.88-4.43s-11.29,1.49-15.84,4.47-8.08,7.36-10.59,13.14c-2.51,5.78-3.76,12.85-3.76,21.22s1.25,15.35,3.76,21.1,6.04,10.12,10.59,13.1,9.83,4.47,15.84,4.47Z"/>
      <path class="cls-3" d="M1727.65,742.43v-116.86h26.67l36.94,59.14c1.88,3.03,3.79,6.33,5.73,9.88,1.93,3.56,3.91,7.5,5.92,11.84,2.01,4.34,4.01,9.23,6,14.67h-2.43c-.37-4.34-.69-8.97-.98-13.88-.29-4.92-.54-9.62-.75-14.12-.21-4.5-.31-8.31-.31-11.45v-56.08h24.47v116.86h-26.75l-33.57-53.65c-2.46-4.03-4.73-7.93-6.82-11.73-2.09-3.79-4.27-7.97-6.55-12.55-2.27-4.58-4.98-10.05-8.12-16.43h3.06c.31,5.65.63,11.06.94,16.24.31,5.18.56,9.87.75,14.08.18,4.21.27,7.65.27,10.31v53.73h-24.47Z"/>
      <path class="cls-3" d="M1850.08,742.43v-116.86h78.2v19.84h-54.27v28.24h50.2v19.53h-50.2v29.41h54.43v19.84h-78.35Z"/>
    </g>
    <g>
      <path class="cls-3" d="M1162.91,782.04v26.19h-3.34v-26.19h3.34Z"/>
      <path class="cls-3" d="M1178.97,815.58v-27h3.06v3.15h.35c.22-.35.53-.79.93-1.33s.97-1.01,1.72-1.43,1.76-.63,3.04-.63c1.64,0,3.08.41,4.33,1.23s2.23,1.99,2.94,3.51,1.06,3.31,1.06,5.39-.35,3.89-1.05,5.41-1.68,2.7-2.93,3.53-2.69,1.25-4.33,1.25c-1.24,0-2.24-.21-3.01-.64s-1.35-.91-1.76-1.46-.73-1-.95-1.36h-.25v10.39h-3.16ZM1187.62,805.82c1.23,0,2.26-.33,3.08-.99s1.45-1.55,1.86-2.67.62-2.36.62-3.74-.21-2.59-.62-3.68-1.03-1.97-1.85-2.61-1.86-.97-3.1-.97-2.22.3-3.04.91-1.44,1.46-1.85,2.54-.62,2.35-.62,3.81.21,2.74.63,3.85,1.05,1.98,1.87,2.61,1.83.94,3.01.94Z"/>
      <path class="cls-3" d="M1201.02,808.23v-19.65h3.06v3.02h.21c.36-1,1.01-1.8,1.94-2.4s1.98-.91,3.16-.91c.23,0,.51,0,.83.02s.58.02.76.04v3.18c-.09-.02-.33-.06-.7-.11s-.77-.07-1.2-.07c-.94,0-1.78.2-2.52.59s-1.33.93-1.75,1.62-.63,1.47-.63,2.36v12.3h-3.16Z"/>
      <path class="cls-3" d="M1221.97,808.65c-1.78,0-3.34-.42-4.68-1.27s-2.39-2.03-3.14-3.55-1.12-3.29-1.12-5.31.38-3.84,1.12-5.37,1.8-2.72,3.14-3.56,2.9-1.27,4.68-1.27,3.36.42,4.71,1.27,2.4,2.03,3.15,3.56,1.12,3.32,1.12,5.37-.38,3.79-1.12,5.31-1.8,2.71-3.15,3.55-2.92,1.27-4.71,1.27ZM1221.97,805.82c1.32,0,2.41-.34,3.27-1.02s1.49-1.57,1.9-2.68.62-2.31.62-3.59-.21-2.51-.62-3.63-1.04-2.02-1.9-2.71-1.95-1.03-3.27-1.03-2.39.34-3.23,1.03-1.47,1.58-1.88,2.7-.62,2.33-.62,3.64.21,2.49.62,3.59,1.04,2,1.88,2.68,1.92,1.02,3.23,1.02Z"/>
      <path class="cls-3" d="M1243.52,816c-1.45,0-2.71-.18-3.77-.55s-1.94-.86-2.65-1.47-1.26-1.27-1.67-1.99l2.57-1.65c.28.38.63.79,1.05,1.25s.98.85,1.69,1.17,1.64.48,2.79.48c1.57,0,2.86-.38,3.88-1.12s1.52-1.93,1.52-3.55v-3.94h-.3c-.22.38-.54.82-.94,1.34s-.98.97-1.74,1.36-1.77.59-3.03.59c-1.57,0-2.98-.37-4.24-1.12s-2.24-1.83-2.97-3.26-1.09-3.17-1.09-5.22.36-3.79,1.07-5.28,1.7-2.65,2.96-3.47,2.7-1.23,4.33-1.23c1.27,0,2.28.21,3.03.62s1.34.89,1.75,1.43.73.98.95,1.34h.3v-3.15h3.08v20.16c0,1.69-.38,3.07-1.14,4.14s-1.79,1.86-3.08,2.36-2.74.76-4.33.76ZM1243.43,805.1c1.2,0,2.2-.27,3.02-.82s1.44-1.33,1.86-2.36.63-2.25.63-3.68-.21-2.62-.62-3.68-1.03-1.89-1.85-2.5-1.83-.91-3.04-.91-2.28.32-3.11.96-1.46,1.49-1.87,2.56-.62,2.26-.62,3.57.21,2.54.63,3.57,1.05,1.84,1.88,2.42,1.86.87,3.09.87Z"/>
      <path class="cls-3" d="M1257.64,808.23v-19.65h3.06v3.02h.21c.36-1,1.01-1.8,1.94-2.4s1.98-.91,3.16-.91c.23,0,.51,0,.83.02s.58.02.76.04v3.18c-.09-.02-.33-.06-.7-.11s-.77-.07-1.2-.07c-.94,0-1.78.2-2.52.59s-1.33.93-1.75,1.62-.63,1.47-.63,2.36v12.3h-3.16Z"/>
      <path class="cls-3" d="M1276.69,808.69c-1.24,0-2.37-.23-3.38-.7s-1.82-1.15-2.42-2.06-.9-2-.9-3.29c0-1.12.22-2.04.67-2.74s1.04-1.26,1.78-1.66,1.57-.71,2.47-.91,1.81-.36,2.72-.47c1.17-.15,2.13-.27,2.87-.35s1.29-.22,1.64-.42.54-.54.54-1.02v-.11c0-.82-.15-1.51-.46-2.08s-.76-1-1.37-1.31-1.37-.46-2.29-.46-1.74.15-2.41.44-1.21.66-1.63,1.1-.73.89-.94,1.34l-3.04-1c.5-1.2,1.18-2.13,2.04-2.8s1.8-1.15,2.83-1.43,2.05-.42,3.06-.42c.66,0,1.4.08,2.24.24s1.65.47,2.43.94,1.42,1.16,1.93,2.08.76,2.15.76,3.68v12.96h-3.11v-2.67h-.21c-.22.46-.58.93-1.07,1.42s-1.13.89-1.92,1.22-1.73.49-2.85.49ZM1277.24,805.89c1.17,0,2.16-.23,2.97-.69s1.42-1.05,1.85-1.78.63-1.5.63-2.29v-2.72c-.13.15-.41.29-.84.41s-.93.23-1.49.33-1.1.17-1.62.24-.93.11-1.24.15c-.76.09-1.47.25-2.14.48s-1.19.56-1.59,1-.6,1.03-.6,1.78c0,.68.18,1.25.53,1.71s.83.8,1.44,1.04,1.31.35,2.09.35Z"/>
      <path class="cls-3" d="M1291.4,808.23v-19.65h3.08l.02,4.39h-.25c.27-1.07.69-1.95,1.27-2.65s1.26-1.22,2.04-1.57,1.59-.53,2.43-.53c1.43,0,2.59.44,3.47,1.32s1.46,2.03,1.71,3.46h-.42c.23-.98.66-1.83,1.28-2.55s1.37-1.27,2.26-1.65,1.85-.58,2.89-.58c1.14,0,2.17.25,3.11.74s1.68,1.24,2.24,2.23.83,2.26.83,3.78v13.25h-3.16v-13.17c0-1.42-.4-2.43-1.2-3.04s-1.72-.91-2.78-.91c-.88,0-1.64.18-2.28.55s-1.13.88-1.48,1.52-.52,1.38-.52,2.21v12.83h-3.16v-13.48c0-1.09-.36-1.97-1.09-2.64s-1.65-1-2.76-1c-.76,0-1.48.18-2.15.54s-1.22.89-1.63,1.59-.62,1.58-.62,2.62v12.38h-3.16Z"/>
      <path class="cls-3" d="M1322.94,808.23v-19.65h3.08l.02,4.39h-.25c.27-1.07.69-1.95,1.27-2.65s1.26-1.22,2.04-1.57,1.59-.53,2.43-.53c1.43,0,2.59.44,3.47,1.32s1.46,2.03,1.71,3.46h-.42c.23-.98.66-1.83,1.28-2.55s1.37-1.27,2.26-1.65,1.85-.58,2.89-.58c1.14,0,2.17.25,3.11.74s1.68,1.24,2.24,2.23.83,2.26.83,3.78v13.25h-3.16v-13.17c0-1.42-.4-2.43-1.2-3.04s-1.72-.91-2.78-.91c-.88,0-1.64.18-2.28.55s-1.13.88-1.48,1.52-.52,1.38-.52,2.21v12.83h-3.16v-13.48c0-1.09-.36-1.97-1.09-2.64s-1.65-1-2.76-1c-.76,0-1.48.18-2.15.54s-1.22.89-1.63,1.59-.62,1.58-.62,2.62v12.38h-3.16Z"/>
      <path class="cls-3" d="M1356.07,785.36c-.6,0-1.11-.21-1.55-.62s-.65-.9-.65-1.48.22-1.08.65-1.49.95-.61,1.55-.61,1.13.2,1.56.61.65.9.65,1.49-.22,1.07-.65,1.48-.96.62-1.56.62ZM1354.47,808.23v-19.65h3.16v19.65h-3.16Z"/>
      <path class="cls-3" d="M1366.36,796.45v11.78h-3.16v-19.65h3.04l.02,4.76h-.44c.6-1.82,1.45-3.11,2.56-3.87s2.41-1.14,3.89-1.14c1.32,0,2.48.27,3.48.82s1.77,1.37,2.33,2.46.83,2.48.83,4.14v12.48h-3.16v-12.22c0-1.51-.4-2.7-1.19-3.55s-1.87-1.28-3.24-1.28c-.94,0-1.78.21-2.53.62s-1.34,1.01-1.78,1.79-.65,1.74-.65,2.87Z"/>
      <path class="cls-3" d="M1392.42,816c-1.45,0-2.71-.18-3.77-.55s-1.94-.86-2.65-1.47-1.26-1.27-1.67-1.99l2.57-1.65c.28.38.63.79,1.05,1.25s.98.85,1.69,1.17,1.64.48,2.79.48c1.57,0,2.86-.38,3.88-1.12s1.52-1.93,1.52-3.55v-3.94h-.3c-.22.38-.54.82-.94,1.34s-.98.97-1.74,1.36-1.77.59-3.03.59c-1.57,0-2.98-.37-4.24-1.12s-2.24-1.83-2.97-3.26-1.09-3.17-1.09-5.22.36-3.79,1.07-5.28,1.7-2.65,2.96-3.47,2.7-1.23,4.33-1.23c1.27,0,2.28.21,3.03.62s1.34.89,1.75,1.43.73.98.95,1.34h.3v-3.15h3.08v20.16c0,1.69-.38,3.07-1.14,4.14s-1.79,1.86-3.08,2.36-2.74.76-4.33.76ZM1392.34,805.1c1.2,0,2.2-.27,3.02-.82s1.44-1.33,1.86-2.36.63-2.25.63-3.68-.21-2.62-.62-3.68-1.03-1.89-1.85-2.5-1.83-.91-3.04-.91-2.28.32-3.11.96-1.46,1.49-1.87,2.56-.62,2.26-.62,3.57.21,2.54.63,3.57,1.05,1.84,1.88,2.42,1.86.87,3.09.87Z"/>
      <path class="cls-3" d="M1424.93,808.65c-1.9,0-3.54-.42-4.91-1.27s-2.44-2.02-3.18-3.53-1.12-3.28-1.12-5.29.36-3.79,1.09-5.33,1.75-2.74,3.08-3.6,2.89-1.3,4.67-1.3c1.04,0,2.07.17,3.08.52s1.93.9,2.76,1.67,1.49,1.78,1.98,3.03.74,2.79.74,4.61v1.32h-15.26v-2.67h13.55l-1.48.98c0-1.29-.2-2.43-.61-3.44s-1-1.79-1.8-2.36-1.79-.85-2.97-.85-2.2.29-3.04.87-1.49,1.34-1.93,2.27-.67,1.93-.67,3v1.78c0,1.45.25,2.69.76,3.7s1.21,1.78,2.12,2.3,1.96.78,3.16.78c.77,0,1.48-.11,2.11-.33s1.18-.56,1.63-1.01.81-1.01,1.05-1.68l3.06.84c-.3.98-.82,1.85-1.55,2.6s-1.63,1.34-2.7,1.76-2.28.63-3.63.63Z"/>
      <path class="cls-3" d="M1442.63,808.23l-7.51-19.65h3.46l4.18,11.65c.45,1.21.82,2.41,1.13,3.61s.64,2.36.98,3.49h-1.16c.34-1.12.67-2.29.98-3.49s.68-2.41,1.12-3.61l4.18-11.65h3.46l-7.51,19.65h-3.32Z"/>
      <path class="cls-3" d="M1464.74,808.65c-1.9,0-3.54-.42-4.91-1.27s-2.44-2.02-3.18-3.53-1.12-3.28-1.12-5.29.36-3.79,1.09-5.33,1.75-2.74,3.08-3.6,2.89-1.3,4.67-1.3c1.04,0,2.07.17,3.08.52s1.93.9,2.76,1.67,1.49,1.78,1.98,3.03.74,2.79.74,4.61v1.32h-15.26v-2.67h13.55l-1.48.98c0-1.29-.2-2.43-.61-3.44s-1-1.79-1.8-2.36-1.79-.85-2.97-.85-2.2.29-3.04.87-1.49,1.34-1.93,2.27-.67,1.93-.67,3v1.78c0,1.45.25,2.69.76,3.7s1.21,1.78,2.12,2.3,1.96.78,3.16.78c.77,0,1.48-.11,2.11-.33s1.18-.56,1.63-1.01.81-1.01,1.05-1.68l3.06.84c-.3.98-.82,1.85-1.55,2.6s-1.63,1.34-2.7,1.76-2.28.63-3.63.63Z"/>
      <path class="cls-3" d="M1477.47,808.23v-19.65h3.06v3.02h.21c.36-1,1.01-1.8,1.94-2.4s1.98-.91,3.16-.91c.23,0,.51,0,.83.02s.58.02.76.04v3.18c-.09-.02-.33-.06-.7-.11s-.77-.07-1.2-.07c-.94,0-1.78.2-2.52.59s-1.33.93-1.75,1.62-.63,1.47-.63,2.36v12.3h-3.16Z"/>
      <path class="cls-3" d="M1491.27,815.35l.81-2.74.33.09c.64.16,1.23.21,1.76.13s1-.34,1.42-.78.79-1.14,1.11-2.07l.56-1.63-7.51-19.76h3.46l4.18,11.65c.45,1.22.82,2.43,1.12,3.62s.63,2.36.97,3.48h-1.16c.34-1.12.67-2.29.98-3.49s.68-2.41,1.12-3.61l4.22-11.65h3.45l-8.63,22.59c-.4,1.04-.88,1.9-1.43,2.58s-1.2,1.17-1.94,1.49-1.57.48-2.5.48c-.56,0-1.05-.04-1.46-.12s-.7-.16-.86-.25Z"/>
      <path class="cls-3" d="M1518.48,808.65c-1.63,0-3.07-.42-4.32-1.25s-2.23-2.01-2.94-3.53-1.05-3.33-1.05-5.41.35-3.87,1.06-5.39,1.69-2.69,2.94-3.51,2.7-1.23,4.32-1.23c1.28,0,2.29.21,3.04.63s1.33.9,1.73,1.43.71.98.92,1.33h.25v-9.69h3.16v26.19h-3.06v-3.04h-.35c-.21.36-.52.82-.94,1.36s-1,1.03-1.76,1.46-1.76.64-3.01.64ZM1518.95,805.82c1.2,0,2.2-.31,3.02-.94s1.44-1.5,1.86-2.61.63-2.4.63-3.85-.21-2.72-.62-3.81-1.03-1.93-1.85-2.54-1.83-.91-3.04-.91-2.28.32-3.1.97-1.44,1.51-1.85,2.61-.62,2.32-.62,3.68.21,2.62.62,3.74,1.04,2.01,1.87,2.67,1.86.99,3.08.99Z"/>
      <path class="cls-3" d="M1538.66,808.69c-1.24,0-2.37-.23-3.38-.7s-1.82-1.15-2.42-2.06-.9-2-.9-3.29c0-1.12.22-2.04.67-2.74s1.04-1.26,1.78-1.66,1.57-.71,2.47-.91,1.81-.36,2.72-.47c1.17-.15,2.13-.27,2.87-.35s1.29-.22,1.64-.42.54-.54.54-1.02v-.11c0-.82-.15-1.51-.46-2.08s-.76-1-1.37-1.31-1.37-.46-2.29-.46-1.74.15-2.41.44-1.21.66-1.63,1.1-.73.89-.94,1.34l-3.04-1c.5-1.2,1.18-2.13,2.04-2.8s1.8-1.15,2.83-1.43,2.05-.42,3.06-.42c.66,0,1.4.08,2.24.24s1.65.47,2.43.94,1.42,1.16,1.93,2.08.76,2.15.76,3.68v12.96h-3.11v-2.67h-.21c-.22.46-.58.93-1.07,1.42s-1.13.89-1.92,1.22-1.73.49-2.85.49ZM1539.2,805.89c1.17,0,2.16-.23,2.97-.69s1.42-1.05,1.85-1.78.63-1.5.63-2.29v-2.72c-.13.15-.41.29-.84.41s-.93.23-1.49.33-1.1.17-1.62.24-.93.11-1.24.15c-.76.09-1.47.25-2.14.48s-1.19.56-1.59,1-.6,1.03-.6,1.78c0,.68.18,1.25.53,1.71s.83.8,1.44,1.04,1.31.35,2.09.35Z"/>
      <path class="cls-3" d="M1552.53,815.35l.81-2.74.33.09c.64.16,1.23.21,1.76.13s1-.34,1.42-.78.79-1.14,1.11-2.07l.56-1.63-7.51-19.76h3.46l4.18,11.65c.45,1.22.82,2.43,1.12,3.62s.63,2.36.97,3.48h-1.16c.34-1.12.67-2.29.98-3.49s.68-2.41,1.12-3.61l4.22-11.65h3.45l-8.63,22.59c-.4,1.04-.88,1.9-1.43,2.58s-1.2,1.17-1.94,1.49-1.57.48-2.5.48c-.56,0-1.05-.04-1.46-.12s-.7-.16-.86-.25Z"/>
      <path class="cls-3" d="M1592.34,788.58v2.71h-11.57v-2.71h11.57ZM1584.64,808.23v-22.27c0-1.14.27-2.09.8-2.85s1.23-1.34,2.08-1.72,1.76-.58,2.71-.58c.75,0,1.37.06,1.86.18s.86.24,1.09.34l-.88,2.71c-.16-.06-.38-.12-.64-.19s-.62-.11-1.06-.11c-.97,0-1.68.25-2.13.75s-.67,1.22-.67,2.17v21.57h-3.16Z"/>
      <path class="cls-3" d="M1603.47,808.65c-1.78,0-3.34-.42-4.68-1.27s-2.39-2.03-3.14-3.55-1.12-3.29-1.12-5.31.38-3.84,1.12-5.37,1.8-2.72,3.14-3.56,2.9-1.27,4.68-1.27,3.36.42,4.71,1.27,2.4,2.03,3.15,3.56,1.12,3.32,1.12,5.37-.38,3.79-1.12,5.31-1.8,2.71-3.15,3.55-2.92,1.27-4.71,1.27ZM1603.47,805.82c1.32,0,2.41-.34,3.27-1.02s1.49-1.57,1.9-2.68.62-2.31.62-3.59-.21-2.51-.62-3.63-1.04-2.02-1.9-2.71-1.95-1.03-3.27-1.03-2.39.34-3.23,1.03-1.47,1.58-1.88,2.7-.62,2.33-.62,3.64.21,2.49.62,3.59,1.04,2,1.88,2.68,1.92,1.02,3.23,1.02Z"/>
      <path class="cls-3" d="M1617.06,808.23v-19.65h3.06v3.02h.21c.36-1,1.01-1.8,1.94-2.4s1.98-.91,3.16-.91c.23,0,.51,0,.83.02s.58.02.76.04v3.18c-.09-.02-.33-.06-.7-.11s-.77-.07-1.2-.07c-.94,0-1.78.2-2.52.59s-1.33.93-1.75,1.62-.63,1.47-.63,2.36v12.3h-3.16Z"/>
      <path class="cls-3" d="M1640.73,808.23v-19.65h3.08l.02,4.39h-.25c.27-1.07.69-1.95,1.27-2.65s1.26-1.22,2.04-1.57,1.59-.53,2.43-.53c1.43,0,2.59.44,3.47,1.32s1.46,2.03,1.71,3.46h-.42c.23-.98.66-1.83,1.28-2.55s1.37-1.27,2.26-1.65,1.85-.58,2.89-.58c1.14,0,2.17.25,3.11.74s1.68,1.24,2.24,2.23.83,2.26.83,3.78v13.25h-3.16v-13.17c0-1.42-.4-2.43-1.2-3.04s-1.72-.91-2.78-.91c-.88,0-1.64.18-2.28.55s-1.13.88-1.48,1.52-.52,1.38-.52,2.21v12.83h-3.16v-13.48c0-1.09-.36-1.97-1.09-2.64s-1.65-1-2.76-1c-.76,0-1.48.18-2.15.54s-1.22.89-1.63,1.59-.62,1.58-.62,2.62v12.38h-3.16Z"/>
      <path class="cls-3" d="M1671.42,815.35l.81-2.74.33.09c.64.16,1.23.21,1.76.13s1-.34,1.42-.78.79-1.14,1.11-2.07l.56-1.63-7.51-19.76h3.46l4.18,11.65c.45,1.22.82,2.43,1.12,3.62s.63,2.36.97,3.48h-1.16c.34-1.12.67-2.29.98-3.49s.68-2.41,1.12-3.61l4.22-11.65h3.45l-8.63,22.59c-.4,1.04-.88,1.9-1.43,2.58s-1.2,1.17-1.94,1.49-1.57.48-2.5.48c-.56,0-1.05-.04-1.46-.12s-.7-.16-.86-.25Z"/>
      <path class="cls-3" d="M1710.1,808.65c-1.78,0-3.34-.42-4.68-1.27s-2.39-2.03-3.14-3.55-1.12-3.29-1.12-5.31.38-3.84,1.12-5.37,1.8-2.72,3.14-3.56,2.9-1.27,4.68-1.27c.95,0,1.85.12,2.69.37s1.61.6,2.31,1.06,1.3,1.03,1.8,1.71.89,1.44,1.16,2.29l-3.04.86c-.14-.5-.36-.97-.65-1.39s-.65-.79-1.06-1.1-.89-.55-1.43-.72-1.13-.25-1.78-.25c-1.31,0-2.39.34-3.23,1.03s-1.47,1.58-1.88,2.7-.62,2.33-.62,3.64.21,2.49.62,3.59,1.04,2,1.88,2.68,1.92,1.02,3.23,1.02c.66,0,1.26-.09,1.81-.26s1.04-.42,1.47-.75.79-.71,1.08-1.15.51-.93.65-1.46l3.02.86c-.26.88-.64,1.66-1.15,2.35s-1.12,1.27-1.82,1.76-1.48.86-2.34,1.11-1.76.38-2.72.38Z"/>
      <path class="cls-3" d="M1729.33,808.48c-1.32,0-2.49-.27-3.49-.82s-1.78-1.37-2.34-2.47-.83-2.48-.83-4.13v-12.48h3.16v12.22c0,1.51.4,2.7,1.2,3.55s1.88,1.28,3.25,1.28c.94,0,1.78-.21,2.52-.62s1.33-1.01,1.77-1.8.65-1.74.65-2.86v-11.78h3.18v19.65h-3.06v-4.76h.42c-.61,1.84-1.47,3.13-2.59,3.88s-2.4,1.12-3.84,1.12Z"/>
      <path class="cls-3" d="M1743.95,808.23v-19.65h3.06v3.02h.21c.36-1,1.01-1.8,1.94-2.4s1.98-.91,3.16-.91c.23,0,.51,0,.83.02s.58.02.76.04v3.18c-.09-.02-.33-.06-.7-.11s-.77-.07-1.2-.07c-.94,0-1.78.2-2.52.59s-1.33.93-1.75,1.62-.63,1.47-.63,2.36v12.3h-3.16Z"/>
      <path class="cls-3" d="M1759.46,785.36c-.6,0-1.11-.21-1.55-.62s-.65-.9-.65-1.48.22-1.08.65-1.49.95-.61,1.55-.61,1.13.2,1.56.61.65.9.65,1.49-.22,1.07-.65,1.48-.96.62-1.56.62ZM1757.86,808.23v-19.65h3.16v19.65h-3.16Z"/>
      <path class="cls-3" d="M1774.57,808.65c-1.78,0-3.34-.42-4.68-1.27s-2.39-2.03-3.14-3.55-1.12-3.29-1.12-5.31.38-3.84,1.12-5.37,1.8-2.72,3.14-3.56,2.9-1.27,4.68-1.27,3.36.42,4.71,1.27,2.4,2.03,3.15,3.56,1.12,3.32,1.12,5.37-.38,3.79-1.12,5.31-1.8,2.71-3.15,3.55-2.92,1.27-4.71,1.27ZM1774.57,805.82c1.32,0,2.41-.34,3.27-1.02s1.49-1.57,1.9-2.68.62-2.31.62-3.59-.21-2.51-.62-3.63-1.04-2.02-1.9-2.71-1.95-1.03-3.27-1.03-2.39.34-3.23,1.03-1.47,1.58-1.88,2.7-.62,2.33-.62,3.64.21,2.49.62,3.59,1.04,2,1.88,2.68,1.92,1.02,3.23,1.02Z"/>
      <path class="cls-3" d="M1794.84,808.65c-1.35,0-2.55-.2-3.59-.59s-1.91-.98-2.59-1.75-1.14-1.72-1.37-2.85l3.01-.72c.28,1.08.81,1.87,1.59,2.37s1.75.76,2.93.76c1.37,0,2.46-.29,3.28-.88s1.22-1.28,1.22-2.09c0-.68-.24-1.25-.71-1.7s-1.2-.79-2.17-1.01l-3.27-.77c-1.78-.42-3.11-1.08-3.97-1.96s-1.3-2.02-1.3-3.4c0-1.12.32-2.12.95-2.98s1.5-1.54,2.59-2.02,2.34-.73,3.74-.73,2.49.2,3.44.61,1.71.96,2.3,1.67,1.03,1.53,1.33,2.45l-2.87.74c-.27-.7-.72-1.34-1.34-1.92s-1.57-.86-2.84-.86c-1.17,0-2.15.27-2.93.81s-1.17,1.22-1.17,2.04c0,.73.26,1.31.79,1.75s1.37.79,2.51,1.06l2.97.7c1.78.42,3.1,1.08,3.96,1.96s1.28,2,1.28,3.35c0,1.15-.33,2.17-.98,3.07s-1.56,1.6-2.72,2.12-2.52.77-4.05.77Z"/>
      <path class="cls-3" d="M1808.76,785.36c-.6,0-1.11-.21-1.55-.62s-.65-.9-.65-1.48.22-1.08.65-1.49.95-.61,1.55-.61,1.13.2,1.56.61.65.9.65,1.49-.22,1.07-.65,1.48-.96.62-1.56.62ZM1807.16,808.23v-19.65h3.16v19.65h-3.16Z"/>
      <path class="cls-3" d="M1823.62,788.58v2.71h-10.16v-2.71h10.16ZM1816.41,783.9h3.16v19.23c0,.88.18,1.52.54,1.92s.95.61,1.78.61c.2,0,.45-.02.76-.07s.59-.09.85-.14l.65,2.67c-.33.12-.7.21-1.12.26s-.83.09-1.24.09c-1.7,0-3.02-.45-3.97-1.34s-1.42-2.15-1.42-3.75v-19.48Z"/>
      <path class="cls-3" d="M1828.05,815.35l.81-2.74.33.09c.64.16,1.23.21,1.76.13s1-.34,1.42-.78.79-1.14,1.11-2.07l.56-1.63-7.51-19.76h3.46l4.18,11.65c.45,1.22.82,2.43,1.12,3.62s.63,2.36.97,3.48h-1.16c.34-1.12.67-2.29.98-3.49s.68-2.41,1.12-3.61l4.22-11.65h3.45l-8.63,22.59c-.4,1.04-.88,1.9-1.43,2.58s-1.2,1.17-1.94,1.49-1.57.48-2.5.48c-.56,0-1.05-.04-1.46-.12s-.7-.16-.86-.25Z"/>
      <path class="cls-3" d="M1849.42,808.46c-.66,0-1.22-.23-1.68-.69s-.69-1.02-.69-1.68.23-1.22.69-1.68,1.02-.69,1.68-.69,1.22.23,1.68.69.69,1.02.69,1.68-.23,1.22-.69,1.68-1.02.69-1.68.69Z"/>
    </g>
  </g>
</svg>