<?xml version="1.0" encoding="UTF-8"?>
<svg id="_レイヤー_1" data-name="レイヤー 1" xmlns="http://www.w3.org/2000/svg" viewBox="0 0 1280 640">
  <defs>
    <style>
      .cls-1 {
        fill: #3b3b3b;
      }

      .cls-2 {
        fill: #1e1e1e;
      }

      .cls-3 {
        font-size: 32px;
      }

      .cls-3, .cls-4, .cls-5, .cls-6 {
        fill: #fff;
      }

      .cls-3, .cls-6 {
        font-family: InterBIZUD-Bold, 'Inter BIZUD';
        font-weight: 700;
      }

      .cls-7 {
        fill: #272727;
      }

      .cls-8 {
        fill: #303030;
      }

      .cls-4 {
        font-family: InterBIZUD-Regular, 'Inter BIZUD';
        font-size: 30px;
      }

      .cls-5 {
        font-family: MesloBIZUD-Regular, 'Meslo BIZUD';
        font-size: 24px;
        opacity: .25;
      }

      .cls-9 {
        fill: #e3dbd9;
      }

      .cls-6 {
        font-size: 96px;
      }

      .cls-10 {
        fill: #c84040;
      }

      .cls-11 {
        fill: #1a1a1a;
      }
    </style>
  </defs>
  <rect class="cls-11" width="1280" height="640"/>
  <g>
    <text class="cls-6" transform="translate(123.98 329.97)"><tspan x="0" y="0">__TITLE__</tspan></text>
    <text class="cls-4" transform="translate(127.81 382.64)"><tspan x="0" y="0">__DESCRIPTION__</tspan></text>
  </g>
  <text class="cls-5" transform="translate(128.3 506.88)"><tspan x="0" y="0">__PATH__</tspan></text>
  <rect class="cls-10" width="1280" height="64"/>
  <text class="cls-3" transform="translate(19.63 43.65)"><tspan x="0" y="0">ERROR</tspan></text>
  <g>
    <rect class="cls-8" x="1064" y="396" width="4" height="8"/>
    <rect class="cls-8" x="1052" y="360" width="4" height="8"/>
    <rect class="cls-8" x="1056" y="368" width="4" height="16"/>
    <rect class="cls-8" x="1132" y="620" width="72" height="4"/>
    <polygon class="cls-8" points="1124 596 1124 640 1112 640 1112 624 1108 624 1108 592 1120 592 1120 596 1124 596"/>
    <rect class="cls-8" x="1060" y="384" width="4" height="12"/>
    <rect class="cls-8" x="1204" y="624" width="12" height="4"/>
    <rect class="cls-8" x="1048" y="356" width="4" height="4"/>
    <rect class="cls-8" x="1044" y="352" width="4" height="4"/>
    <polygon class="cls-8" points="1204 380 1204 396 1200 396 1200 400 1152 400 1152 404 1120 404 1120 400 1104 400 1104 404 1096 404 1096 408 1084 408 1084 404 1088 404 1088 400 1092 400 1092 396 1096 396 1096 392 1100 392 1100 388 1104 388 1104 384 1112 384 1112 380 1120 380 1120 376 1128 376 1128 372 1136 372 1136 368 1144 368 1144 364 1152 364 1152 360 1160 360 1160 356 1168 356 1168 352 1176 352 1176 348 1180 348 1180 344 1184 344 1184 340 1144 340 1144 336 1188 336 1188 340 1192 340 1192 348 1196 348 1196 372 1200 372 1200 380 1204 380"/>
    <polygon class="cls-8" points="1028 580 1028 592 1024 592 1024 604 1020 604 1020 612 1016 612 1016 624 1012 624 1012 632 1008 632 1008 640 992 640 992 636 996 636 996 628 1000 628 1000 616 1004 616 1004 608 1008 608 1008 596 1012 596 1012 584 1016 584 1016 580 1028 580"/>
    <rect class="cls-8" x="1040" y="348" width="4" height="4"/>
    <rect class="cls-8" x="1032" y="344" width="8" height="4"/>
    <polygon class="cls-9" points="1124 364 1124 376 1120 376 1120 380 1112 380 1112 384 1104 384 1104 388 1100 388 1100 392 1096 392 1096 384 1092 384 1092 376 1088 376 1088 368 1084 368 1084 352 1076 352 1076 348 1072 348 1072 340 1060 340 1060 336 1044 336 1044 332 1040 332 1040 328 1036 328 1036 324 1032 324 1032 320 1028 320 1028 308 1032 308 1032 304 1036 304 1036 260 1040 260 1040 280 1044 280 1044 288 1052 288 1052 296 1056 296 1056 300 1060 300 1060 304 1068 304 1068 300 1072 300 1072 296 1076 296 1076 288 1080 288 1080 276 1076 276 1076 260 1072 260 1072 248 1076 248 1076 252 1080 252 1080 264 1084 264 1084 268 1088 268 1088 272 1096 272 1096 268 1100 268 1100 272 1104 272 1104 276 1112 276 1112 280 1116 280 1116 348 1112 348 1112 352 1108 352 1108 356 1120 356 1120 364 1124 364"/>
    <rect class="cls-9" x="1028" y="288" width="4" height="16"/>
    <polygon class="cls-2" points="1184 340 1184 344 1180 344 1180 348 1176 348 1176 352 1168 352 1168 356 1160 356 1160 360 1152 360 1152 364 1144 364 1144 368 1136 368 1136 372 1128 372 1128 376 1124 376 1124 364 1120 364 1120 352 1124 352 1124 348 1128 348 1128 344 1132 344 1132 340 1184 340"/>
    <polygon class="cls-7" points="1184 252 1184 296 1180 296 1180 304 1176 304 1176 316 1172 316 1172 320 1168 320 1168 324 1164 324 1164 328 1156 328 1156 332 1152 332 1152 336 1144 336 1144 340 1132 340 1132 344 1128 344 1128 348 1124 348 1124 352 1120 352 1120 356 1108 356 1108 352 1112 352 1112 348 1116 348 1116 280 1112 280 1112 276 1104 276 1104 272 1100 272 1100 268 1096 268 1096 272 1088 272 1088 268 1084 268 1084 264 1080 264 1080 252 1076 252 1076 248 1072 248 1072 260 1076 260 1076 276 1080 276 1080 288 1076 288 1076 296 1072 296 1072 300 1068 300 1068 304 1060 304 1060 300 1056 300 1056 296 1052 296 1052 288 1044 288 1044 280 1040 280 1040 260 1036 260 1036 304 1032 304 1032 288 1028 288 1028 304 1032 304 1032 308 1028 308 1028 320 1032 320 1032 324 1036 324 1036 328 1040 328 1040 332 1044 332 1044 336 1048 336 1048 340 1036 340 1036 344 1032 344 1032 348 1020 348 1020 352 1008 352 1008 348 1000 348 1000 344 992 344 992 340 988 340 988 304 984 304 984 256 988 256 988 244 992 244 992 236 996 236 996 224 1000 224 1000 216 1004 216 1004 212 1000 212 1000 208 992 208 992 204 988 204 988 200 984 200 984 196 976 196 976 188 968 188 968 184 964 184 964 188 960 188 960 176 972 176 972 180 996 180 996 184 1024 184 1024 180 1028 180 1028 176 1032 176 1032 172 1040 172 1040 168 1048 168 1048 164 1068 164 1068 160 1104 160 1104 156 1112 156 1112 152 1120 152 1120 148 1128 148 1128 144 1136 144 1136 140 1152 140 1152 152 1148 152 1148 144 1140 144 1140 152 1136 152 1136 156 1132 156 1132 164 1128 164 1128 168 1124 168 1124 172 1120 172 1120 176 1116 176 1116 184 1112 184 1112 192 1116 192 1116 196 1120 196 1120 200 1124 200 1124 204 1128 204 1128 208 1136 208 1136 212 1152 212 1152 200 1156 200 1156 208 1160 208 1160 216 1164 216 1164 220 1168 220 1168 228 1172 228 1172 236 1176 236 1176 244 1180 244 1180 252 1184 252"/>
    <polygon class="cls-7" points="1160 400 1160 460 1156 460 1156 468 1152 468 1152 488 1148 488 1148 496 1144 496 1144 504 1140 504 1140 520 1136 520 1136 560 1140 560 1140 584 1144 584 1144 604 1140 604 1140 608 1136 608 1136 612 1132 612 1132 632 1128 632 1128 640 1124 640 1124 596 1120 596 1120 592 1096 592 1096 588 1064 588 1064 584 1028 584 1028 580 1016 580 1016 584 1012 584 1012 596 1008 596 1008 608 1004 608 1004 616 1000 616 1000 628 996 628 996 636 992 636 992 640 972 640 972 624 976 624 976 612 980 612 980 596 984 596 984 588 988 588 988 580 1000 580 1000 576 1008 576 1008 572 1012 572 1012 568 1016 568 1016 564 1020 564 1020 560 1024 560 1024 556 1028 556 1028 548 1032 548 1032 544 1036 544 1036 536 1040 536 1040 516 1044 516 1044 492 1048 492 1048 468 1052 468 1052 440 1056 440 1056 436 1060 436 1060 416 1064 416 1064 404 1084 404 1084 408 1096 408 1096 404 1104 404 1104 400 1120 400 1120 404 1152 404 1152 400 1160 400"/>
    <polygon class="cls-7" points="1084 352 1084 364 1080 364 1080 356 1076 356 1076 352 1084 352"/>
    <polygon class="cls-1" points="1064 396 1064 416 1060 416 1060 436 1056 436 1056 440 1052 440 1052 468 1048 468 1048 492 1044 492 1044 516 1040 516 1040 536 1036 536 1036 544 1032 544 1032 548 1028 548 1028 556 1024 556 1024 560 1020 560 1020 564 1016 564 1016 568 1012 568 1012 572 1008 572 1008 576 1000 576 1000 580 980 580 980 576 972 576 972 572 968 572 968 568 964 568 964 560 960 560 960 552 956 552 956 548 952 548 952 536 948 536 948 528 944 528 944 516 940 516 940 504 944 504 944 472 948 472 948 464 956 464 956 460 960 460 960 448 964 448 964 440 968 440 968 436 972 436 972 432 976 432 976 424 980 424 980 416 984 416 984 408 988 408 988 396 992 396 992 388 996 388 996 376 1000 376 1000 368 1004 368 1004 364 1008 364 1008 356 1012 356 1012 352 1020 352 1020 348 1040 348 1040 352 1044 352 1044 356 1048 356 1048 360 1052 360 1052 368 1056 368 1056 384 1060 384 1060 396 1064 396"/>
    <polygon class="cls-1" points="1216 628 1216 640 1128 640 1128 632 1132 632 1132 624 1204 624 1204 628 1216 628"/>
    <polygon class="cls-1" points="1216 568 1216 624 1204 624 1204 620 1132 620 1132 612 1136 612 1136 608 1140 608 1140 604 1144 604 1144 584 1140 584 1140 560 1136 560 1136 520 1140 520 1140 504 1144 504 1144 496 1148 496 1148 488 1152 488 1152 468 1156 468 1156 460 1160 460 1160 400 1196 400 1196 408 1200 408 1200 420 1204 420 1204 456 1208 456 1208 504 1212 504 1212 568 1216 568"/>
    <polygon class="cls-1" points="1112 624 1112 640 1008 640 1008 632 1012 632 1012 624 1016 624 1016 612 1020 612 1020 604 1024 604 1024 592 1028 592 1028 584 1064 584 1064 588 1096 588 1096 592 1108 592 1108 624 1112 624"/>
    <polygon class="cls-1" points="1004 212 1004 216 1000 216 1000 224 996 224 996 236 992 236 992 244 984 244 984 236 980 236 980 232 976 232 976 224 972 224 972 216 968 216 968 204 964 204 964 192 960 192 960 188 964 188 964 184 968 184 968 188 976 188 976 196 984 196 984 200 988 200 988 204 992 204 992 208 1000 208 1000 212 1004 212"/>
    <polygon class="cls-1" points="1152 152 1152 212 1136 212 1136 208 1128 208 1128 204 1124 204 1124 200 1120 200 1120 196 1116 196 1116 192 1112 192 1112 184 1116 184 1116 176 1120 176 1120 172 1124 172 1124 168 1128 168 1128 164 1132 164 1132 156 1136 156 1136 152 1140 152 1140 144 1148 144 1148 152 1152 152"/>
    <polygon class="cls-1" points="1096 384 1096 396 1092 396 1092 400 1088 400 1088 404 1068 404 1068 396 1064 396 1064 384 1060 384 1060 368 1056 368 1056 360 1052 360 1052 356 1048 356 1048 352 1044 352 1044 348 1040 348 1040 344 1036 344 1036 340 1048 340 1048 336 1060 336 1060 340 1072 340 1072 348 1076 348 1076 356 1080 356 1080 364 1084 364 1084 368 1088 368 1088 376 1092 376 1092 384 1096 384"/>
  </g>
</svg>