<?xml version="1.0" encoding="UTF-8"?>
<svg id="_レイヤー_1" data-name="レイヤー 1" xmlns="http://www.w3.org/2000/svg" viewBox="0 0 1920 600">
  <defs>
    <style>
      .cls-1 {
        fill: #3b3b3b;
      }

      .cls-2 {
        fill: #1e1e1e;
      }

      .cls-3 {
        fill: #272727;
      }

      .cls-4 {
        fill: #303030;
      }

      .cls-5 {
        fill: #fff;
      }

      .cls-6 {
        fill: #e3dbd9;
      }

      .cls-7 {
        fill: #1a1a1a;
      }
    </style>
  </defs>
  <rect class="cls-7" width="1920" height="600"/>
  <g>
    <path class="cls-5" d="M220.48,369.84v-139.69h31.88l44.16,70.69c2.25,3.63,4.53,7.56,6.84,11.81,2.31,4.25,4.67,8.97,7.08,14.16,2.41,5.19,4.8,11.03,7.17,17.53h-2.91c-.44-5.19-.83-10.72-1.17-16.59-.34-5.87-.64-11.5-.89-16.88-.25-5.37-.38-9.94-.38-13.69v-67.03h29.25v139.69h-31.97l-40.12-64.12c-2.94-4.81-5.66-9.48-8.16-14.02-2.5-4.53-5.11-9.53-7.83-15-2.72-5.47-5.95-12.01-9.7-19.64h3.66c.38,6.75.75,13.22,1.12,19.41s.67,11.8.89,16.83c.22,5.03.33,9.14.33,12.33v64.22h-29.25Z"/>
    <path class="cls-5" d="M366.83,369.84v-139.69h93.47v23.72h-64.88v33.75h60v23.34h-60v35.16h65.06v23.72h-93.66Z"/>
    <path class="cls-5" d="M483.45,369.84v-139.69h54.47c10.62,0,19.66,1.88,27.09,5.62,7.44,3.75,13.11,9.03,17.02,15.84,3.91,6.81,5.86,14.81,5.86,24s-1.98,17.11-5.95,23.77c-3.97,6.66-9.72,11.75-17.25,15.28-7.53,3.53-16.67,5.3-27.42,5.3h-36.94v-23.16h32.34c5.87,0,10.69-.8,14.44-2.39s6.56-3.97,8.44-7.12c1.88-3.16,2.81-7.05,2.81-11.67s-.94-8.73-2.81-11.95c-1.88-3.22-4.7-5.67-8.48-7.36-3.78-1.69-8.61-2.53-14.48-2.53h-20.53v116.06h-28.59ZM561.17,369.84l-34.03-63.56h31.03l34.69,63.56h-31.69Z"/>
    <path class="cls-5" d="M670.58,371.72c-12.38,0-23.45-2.81-33.23-8.44-9.78-5.62-17.5-13.78-23.16-24.47-5.66-10.69-8.48-23.59-8.48-38.72s2.84-28.14,8.53-38.86c5.69-10.72,13.44-18.89,23.25-24.52,9.81-5.62,20.84-8.44,33.09-8.44,7.94,0,15.33,1.11,22.17,3.33,6.84,2.22,12.92,5.45,18.23,9.7,5.31,4.25,9.66,9.45,13.03,15.61,3.38,6.16,5.59,13.17,6.66,21.05h-28.97c-.63-3.87-1.83-7.3-3.61-10.27-1.78-2.97-4-5.5-6.66-7.59-2.66-2.09-5.7-3.69-9.14-4.78-3.44-1.09-7.16-1.64-11.16-1.64-7.25,0-13.61,1.81-19.08,5.44-5.47,3.63-9.72,8.89-12.75,15.8-3.03,6.91-4.55,15.3-4.55,25.17s1.53,18.53,4.59,25.41c3.06,6.88,7.31,12.06,12.75,15.56,5.44,3.5,11.75,5.25,18.94,5.25,4,0,7.7-.55,11.11-1.64,3.41-1.09,6.47-2.69,9.19-4.78,2.72-2.09,4.97-4.64,6.75-7.64,1.78-3,3.01-6.41,3.7-10.22h28.97c-.75,6.5-2.67,12.72-5.77,18.66-3.09,5.94-7.2,11.25-12.33,15.94-5.13,4.69-11.22,8.38-18.28,11.06-7.06,2.69-15,4.03-23.81,4.03Z"/>
    <path class="cls-5" d="M812.89,371.72c-12.31,0-23.39-2.81-33.23-8.44-9.84-5.62-17.62-13.78-23.34-24.47-5.72-10.69-8.58-23.59-8.58-38.72s2.86-28.14,8.58-38.86c5.72-10.72,13.5-18.89,23.34-24.52,9.84-5.62,20.92-8.44,33.23-8.44s23.47,2.81,33.28,8.44c9.81,5.62,17.58,13.8,23.3,24.52,5.72,10.72,8.58,23.67,8.58,38.86s-2.86,28.03-8.58,38.72c-5.72,10.69-13.49,18.84-23.3,24.47-9.81,5.62-20.91,8.44-33.28,8.44ZM812.89,346.31c7.25,0,13.58-1.76,18.98-5.3,5.41-3.53,9.61-8.75,12.61-15.66,3-6.91,4.5-15.33,4.5-25.27s-1.5-18.55-4.5-25.45c-3-6.91-7.2-12.12-12.61-15.66-5.41-3.53-11.73-5.3-18.98-5.3s-13.5,1.78-18.94,5.34-9.66,8.8-12.66,15.7c-3,6.91-4.5,15.36-4.5,25.36s1.5,18.34,4.5,25.22c3,6.88,7.22,12.09,12.66,15.66s11.75,5.34,18.94,5.34Z"/>
    <path class="cls-5" d="M899.52,369.84v-139.69h31.88l44.16,70.69c2.25,3.63,4.53,7.56,6.84,11.81,2.31,4.25,4.67,8.97,7.08,14.16,2.41,5.19,4.8,11.03,7.17,17.53h-2.91c-.44-5.19-.83-10.72-1.17-16.59-.34-5.87-.64-11.5-.89-16.88-.25-5.37-.38-9.94-.38-13.69v-67.03h29.25v139.69h-31.97l-40.12-64.12c-2.94-4.81-5.66-9.48-8.16-14.02-2.5-4.53-5.11-9.53-7.83-15-2.72-5.47-5.95-12.01-9.7-19.64h3.66c.38,6.75.75,13.22,1.12,19.41s.67,11.8.89,16.83c.22,5.03.33,9.14.33,12.33v64.22h-29.25Z"/>
    <path class="cls-5" d="M1045.86,369.84v-139.69h93.47v23.72h-64.88v33.75h60v23.34h-60v35.16h65.06v23.72h-93.66Z"/>
  </g>
  <g>
    <rect class="cls-4" x="1704" y="356" width="4" height="8"/>
    <rect class="cls-4" x="1692" y="320" width="4" height="8"/>
    <rect class="cls-4" x="1696" y="328" width="4" height="16"/>
    <rect class="cls-4" x="1772" y="580" width="72" height="4"/>
    <polygon class="cls-4" points="1764 556 1764 600 1752 600 1752 584 1748 584 1748 552 1760 552 1760 556 1764 556"/>
    <rect class="cls-4" x="1700" y="344" width="4" height="12"/>
    <rect class="cls-4" x="1844" y="584" width="12" height="4"/>
    <rect class="cls-4" x="1688" y="316" width="4" height="4"/>
    <rect class="cls-4" x="1684" y="312" width="4" height="4"/>
    <polygon class="cls-4" points="1844 340 1844 356 1840 356 1840 360 1792 360 1792 364 1760 364 1760 360 1744 360 1744 364 1736 364 1736 368 1724 368 1724 364 1728 364 1728 360 1732 360 1732 356 1736 356 1736 352 1740 352 1740 348 1744 348 1744 344 1752 344 1752 340 1760 340 1760 336 1768 336 1768 332 1776 332 1776 328 1784 328 1784 324 1792 324 1792 320 1800 320 1800 316 1808 316 1808 312 1816 312 1816 308 1820 308 1820 304 1824 304 1824 300 1784 300 1784 296 1828 296 1828 300 1832 300 1832 308 1836 308 1836 332 1840 332 1840 340 1844 340"/>
    <polygon class="cls-4" points="1668 540 1668 552 1664 552 1664 564 1660 564 1660 572 1656 572 1656 584 1652 584 1652 592 1648 592 1648 600 1632 600 1632 596 1636 596 1636 588 1640 588 1640 576 1644 576 1644 568 1648 568 1648 556 1652 556 1652 544 1656 544 1656 540 1668 540"/>
    <rect class="cls-4" x="1680" y="308" width="4" height="4"/>
    <rect class="cls-4" x="1672" y="304" width="8" height="4"/>
    <polygon class="cls-6" points="1764 324 1764 336 1760 336 1760 340 1752 340 1752 344 1744 344 1744 348 1740 348 1740 352 1736 352 1736 344 1732 344 1732 336 1728 336 1728 328 1724 328 1724 312 1716 312 1716 308 1712 308 1712 300 1700 300 1700 296 1684 296 1684 292 1680 292 1680 288 1676 288 1676 284 1672 284 1672 280 1668 280 1668 268 1672 268 1672 264 1676 264 1676 220 1680 220 1680 240 1684 240 1684 248 1692 248 1692 256 1696 256 1696 260 1700 260 1700 264 1708 264 1708 260 1712 260 1712 256 1716 256 1716 248 1720 248 1720 236 1716 236 1716 220 1712 220 1712 208 1716 208 1716 212 1720 212 1720 224 1724 224 1724 228 1728 228 1728 232 1736 232 1736 228 1740 228 1740 232 1744 232 1744 236 1752 236 1752 240 1756 240 1756 308 1752 308 1752 312 1748 312 1748 316 1760 316 1760 324 1764 324"/>
    <rect class="cls-6" x="1668" y="248" width="4" height="16"/>
    <polygon class="cls-2" points="1824 300 1824 304 1820 304 1820 308 1816 308 1816 312 1808 312 1808 316 1800 316 1800 320 1792 320 1792 324 1784 324 1784 328 1776 328 1776 332 1768 332 1768 336 1764 336 1764 324 1760 324 1760 312 1764 312 1764 308 1768 308 1768 304 1772 304 1772 300 1824 300"/>
    <polygon class="cls-3" points="1824 212 1824 256 1820 256 1820 264 1816 264 1816 276 1812 276 1812 280 1808 280 1808 284 1804 284 1804 288 1796 288 1796 292 1792 292 1792 296 1784 296 1784 300 1772 300 1772 304 1768 304 1768 308 1764 308 1764 312 1760 312 1760 316 1748 316 1748 312 1752 312 1752 308 1756 308 1756 240 1752 240 1752 236 1744 236 1744 232 1740 232 1740 228 1736 228 1736 232 1728 232 1728 228 1724 228 1724 224 1720 224 1720 212 1716 212 1716 208 1712 208 1712 220 1716 220 1716 236 1720 236 1720 248 1716 248 1716 256 1712 256 1712 260 1708 260 1708 264 1700 264 1700 260 1696 260 1696 256 1692 256 1692 248 1684 248 1684 240 1680 240 1680 220 1676 220 1676 264 1672 264 1672 248 1668 248 1668 264 1672 264 1672 268 1668 268 1668 280 1672 280 1672 284 1676 284 1676 288 1680 288 1680 292 1684 292 1684 296 1688 296 1688 300 1676 300 1676 304 1672 304 1672 308 1660 308 1660 312 1648 312 1648 308 1640 308 1640 304 1632 304 1632 300 1628 300 1628 264 1624 264 1624 216 1628 216 1628 204 1632 204 1632 196 1636 196 1636 184 1640 184 1640 176 1644 176 1644 172 1640 172 1640 168 1632 168 1632 164 1628 164 1628 160 1624 160 1624 156 1616 156 1616 148 1608 148 1608 144 1604 144 1604 148 1600 148 1600 136 1612 136 1612 140 1636 140 1636 144 1664 144 1664 140 1668 140 1668 136 1672 136 1672 132 1680 132 1680 128 1688 128 1688 124 1708 124 1708 120 1744 120 1744 116 1752 116 1752 112 1760 112 1760 108 1768 108 1768 104 1776 104 1776 100 1792 100 1792 112 1788 112 1788 104 1780 104 1780 112 1776 112 1776 116 1772 116 1772 124 1768 124 1768 128 1764 128 1764 132 1760 132 1760 136 1756 136 1756 144 1752 144 1752 152 1756 152 1756 156 1760 156 1760 160 1764 160 1764 164 1768 164 1768 168 1776 168 1776 172 1792 172 1792 160 1796 160 1796 168 1800 168 1800 176 1804 176 1804 180 1808 180 1808 188 1812 188 1812 196 1816 196 1816 204 1820 204 1820 212 1824 212"/>
    <polygon class="cls-3" points="1800 360 1800 420 1796 420 1796 428 1792 428 1792 448 1788 448 1788 456 1784 456 1784 464 1780 464 1780 480 1776 480 1776 520 1780 520 1780 544 1784 544 1784 564 1780 564 1780 568 1776 568 1776 572 1772 572 1772 592 1768 592 1768 600 1764 600 1764 556 1760 556 1760 552 1736 552 1736 548 1704 548 1704 544 1668 544 1668 540 1656 540 1656 544 1652 544 1652 556 1648 556 1648 568 1644 568 1644 576 1640 576 1640 588 1636 588 1636 596 1632 596 1632 600 1612 600 1612 584 1616 584 1616 572 1620 572 1620 556 1624 556 1624 548 1628 548 1628 540 1640 540 1640 536 1648 536 1648 532 1652 532 1652 528 1656 528 1656 524 1660 524 1660 520 1664 520 1664 516 1668 516 1668 508 1672 508 1672 504 1676 504 1676 496 1680 496 1680 476 1684 476 1684 452 1688 452 1688 428 1692 428 1692 400 1696 400 1696 396 1700 396 1700 376 1704 376 1704 364 1724 364 1724 368 1736 368 1736 364 1744 364 1744 360 1760 360 1760 364 1792 364 1792 360 1800 360"/>
    <polygon class="cls-3" points="1724 312 1724 324 1720 324 1720 316 1716 316 1716 312 1724 312"/>
    <polygon class="cls-1" points="1704 356 1704 376 1700 376 1700 396 1696 396 1696 400 1692 400 1692 428 1688 428 1688 452 1684 452 1684 476 1680 476 1680 496 1676 496 1676 504 1672 504 1672 508 1668 508 1668 516 1664 516 1664 520 1660 520 1660 524 1656 524 1656 528 1652 528 1652 532 1648 532 1648 536 1640 536 1640 540 1620 540 1620 536 1612 536 1612 532 1608 532 1608 528 1604 528 1604 520 1600 520 1600 512 1596 512 1596 508 1592 508 1592 496 1588 496 1588 488 1584 488 1584 476 1580 476 1580 464 1584 464 1584 432 1588 432 1588 424 1596 424 1596 420 1600 420 1600 408 1604 408 1604 400 1608 400 1608 396 1612 396 1612 392 1616 392 1616 384 1620 384 1620 376 1624 376 1624 368 1628 368 1628 356 1632 356 1632 348 1636 348 1636 336 1640 336 1640 328 1644 328 1644 324 1648 324 1648 316 1652 316 1652 312 1660 312 1660 308 1680 308 1680 312 1684 312 1684 316 1688 316 1688 320 1692 320 1692 328 1696 328 1696 344 1700 344 1700 356 1704 356"/>
    <polygon class="cls-1" points="1856 588 1856 600 1768 600 1768 592 1772 592 1772 584 1844 584 1844 588 1856 588"/>
    <polygon class="cls-1" points="1856 528 1856 584 1844 584 1844 580 1772 580 1772 572 1776 572 1776 568 1780 568 1780 564 1784 564 1784 544 1780 544 1780 520 1776 520 1776 480 1780 480 1780 464 1784 464 1784 456 1788 456 1788 448 1792 448 1792 428 1796 428 1796 420 1800 420 1800 360 1836 360 1836 368 1840 368 1840 380 1844 380 1844 416 1848 416 1848 464 1852 464 1852 528 1856 528"/>
    <polygon class="cls-1" points="1752 584 1752 600 1648 600 1648 592 1652 592 1652 584 1656 584 1656 572 1660 572 1660 564 1664 564 1664 552 1668 552 1668 544 1704 544 1704 548 1736 548 1736 552 1748 552 1748 584 1752 584"/>
    <polygon class="cls-1" points="1644 172 1644 176 1640 176 1640 184 1636 184 1636 196 1632 196 1632 204 1624 204 1624 196 1620 196 1620 192 1616 192 1616 184 1612 184 1612 176 1608 176 1608 164 1604 164 1604 152 1600 152 1600 148 1604 148 1604 144 1608 144 1608 148 1616 148 1616 156 1624 156 1624 160 1628 160 1628 164 1632 164 1632 168 1640 168 1640 172 1644 172"/>
    <polygon class="cls-1" points="1792 112 1792 172 1776 172 1776 168 1768 168 1768 164 1764 164 1764 160 1760 160 1760 156 1756 156 1756 152 1752 152 1752 144 1756 144 1756 136 1760 136 1760 132 1764 132 1764 128 1768 128 1768 124 1772 124 1772 116 1776 116 1776 112 1780 112 1780 104 1788 104 1788 112 1792 112"/>
    <polygon class="cls-1" points="1736 344 1736 356 1732 356 1732 360 1728 360 1728 364 1708 364 1708 356 1704 356 1704 344 1700 344 1700 328 1696 328 1696 320 1692 320 1692 316 1688 316 1688 312 1684 312 1684 308 1680 308 1680 304 1676 304 1676 300 1688 300 1688 296 1700 296 1700 300 1712 300 1712 308 1716 308 1716 316 1720 316 1720 324 1724 324 1724 328 1728 328 1728 336 1732 336 1732 344 1736 344"/>
  </g>
</svg>