<?xml version="1.0" encoding="UTF-8"?>
<svg id="_レイヤー_1" data-name="レイヤー 1" xmlns="http://www.w3.org/2000/svg" viewBox="0 0 1024 1024">
  <defs>
    <style>
      .cls-1 {
        fill: #e0e0e0;
      }

      .cls-2 {
        fill: #fff;
      }

      .cls-3 {
        fill: #fcfcfc;
      }

      .cls-4 {
        fill: #1a1a1a;
      }
    </style>
  </defs>
  <g>
    <path class="cls-2" d="M682.67,341.33V0h341.33v341.33h-341.33ZM910.22,227.56v-113.78h-113.78v113.78h113.78Z"/>
    <rect class="cls-2" x="303.41" y="37.93" width="113.78" height="113.78"/>
    <polygon class="cls-2" points="455.11 189.63 455.11 151.7 379.26 151.7 379.26 113.78 341.33 113.78 341.33 0 682.67 0 682.67 151.7 568.89 151.7 568.89 189.63 455.11 189.63"/>
    <rect class="cls-2" x="341.33" y="75.85" width="113.78" height="113.78"/>
    <rect class="cls-2" x="758.52" y="75.85" width="189.63" height="189.63"/>
    <rect class="cls-2" x="379.26" y="113.78" width="151.7" height="113.78"/>
    <rect class="cls-2" x="75.85" y="75.85" width="189.63" height="189.63"/>
    <rect class="cls-2" x="303.41" y="151.7" width="151.7" height="113.78"/>
    <rect class="cls-2" x="455.11" y="151.7" width="113.78" height="113.78"/>
    <rect class="cls-2" x="417.19" y="189.63" width="113.78" height="113.78"/>
    <path class="cls-2" d="M0,341.33V0h341.33v341.33H0ZM227.56,227.56v-113.78h-113.78v113.78h113.78Z"/>
    <rect class="cls-2" x="303.41" y="227.56" width="113.78" height="113.78"/>
    <rect class="cls-2" x="379.26" y="227.56" width="113.78" height="113.78"/>
    <rect class="cls-2" x="455.11" y="227.56" width="113.78" height="113.78"/>
    <polygon class="cls-2" points="530.96 341.33 530.96 113.78 682.67 113.78 682.67 303.41 644.74 303.41 644.74 341.33 530.96 341.33"/>
    <rect class="cls-2" y="303.41" width="113.78" height="113.78"/>
    <rect class="cls-2" x="75.85" y="303.41" width="113.78" height="113.78"/>
    <rect class="cls-2" x="151.7" y="303.41" width="113.78" height="113.78"/>
    <rect class="cls-2" x="227.56" y="303.41" width="113.78" height="113.78"/>
    <polygon class="cls-2" points="417.19 417.19 417.19 265.48 606.81 265.48 606.81 303.41 606.82 227.56 720.59 227.56 720.59 417.19 417.19 417.19"/>
    <rect class="cls-2" x="758.52" y="303.41" width="113.78" height="113.78"/>
    <rect class="cls-2" x="872.3" y="303.41" width="113.78" height="113.78"/>
    <rect class="cls-2" x="303.41" y="341.33" width="113.78" height="113.78"/>
    <rect class="cls-2" x="379.26" y="341.33" width="113.78" height="113.78"/>
    <polygon class="cls-2" points="872.3 682.67 872.3 644.74 834.37 644.74 834.37 530.96 872.3 530.96 872.3 493.04 834.37 493.04 834.37 379.26 910.22 379.26 910.22 341.33 1024 341.33 1024 644.74 986.07 644.74 986.07 682.67 872.3 682.67"/>
    <rect class="cls-2" x="341.33" y="379.26" width="113.78" height="113.78"/>
    <rect class="cls-2" x="644.74" y="341.33" width="151.7" height="151.7"/>
    <polygon class="cls-2" points="37.93 530.96 37.93 493.04 0 493.04 0 379.26 37.93 379.26 37.93 341.33 151.7 341.33 151.7 417.19 189.63 417.19 189.63 530.96 37.93 530.96"/>
    <polygon class="cls-2" points="151.7 606.81 151.7 379.26 189.63 379.26 189.63 341.33 303.41 341.33 303.41 379.26 341.33 379.26 341.33 417.19 417.19 417.19 417.19 530.96 379.26 530.96 379.26 568.89 265.48 568.89 265.48 606.81 151.7 606.81"/>
    <rect class="cls-2" x="758.52" y="417.19" width="113.78" height="113.78"/>
    <rect class="cls-2" x="796.44" y="455.11" width="113.78" height="151.7"/>
    <rect class="cls-2" x="37.93" y="493.04" width="151.7" height="113.78"/>
    <rect class="cls-2" y="530.96" width="113.78" height="113.78"/>
    <rect class="cls-2" x="113.78" y="530.96" width="113.78" height="113.78"/>
    <rect class="cls-2" x="493.04" y="530.96" width="113.78" height="113.78"/>
    <polygon class="cls-2" points="75.85 720.59 75.85 682.67 37.93 682.67 37.93 568.89 189.63 568.89 189.63 720.59 75.85 720.59"/>
    <rect class="cls-2" x="417.19" y="568.89" width="113.78" height="113.78"/>
    <rect class="cls-2" y="606.82" width="113.78" height="113.78"/>
    <rect class="cls-2" x="379.26" y="606.82" width="113.78" height="113.78"/>
    <rect class="cls-2" x="872.3" y="644.74" width="151.7" height="227.55"/>
    <path class="cls-2" d="M0,1024v-341.33h341.33v341.33H0ZM227.56,910.22v-113.78h-113.78v113.78h113.78Z"/>
    <rect class="cls-2" x="682.67" y="682.67" width="113.78" height="113.78"/>
    <rect class="cls-2" x="303.41" y="644.74" width="151.7" height="227.55"/>
    <rect class="cls-2" x="75.85" y="758.52" width="189.63" height="189.63"/>
    <polygon class="cls-2" points="379.26 910.22 379.26 796.44 417.19 796.44 417.19 758.52 530.96 758.52 530.96 910.22 379.26 910.22"/>
    <path class="cls-2" d="M758.52,986.07v-75.85h-227.56v-75.85h-75.85v-37.93h-37.93v-151.7h37.93v-37.93h151.7s0-37.93,0-37.93h-75.85v37.93h-75.85v37.93h-75.85v75.85h-227.56v-113.78h75.85v-75.85h113.78v-37.93h37.93v-75.85h75.85v-37.93h151.7v37.93h113.78v37.93h75.85v75.85h37.93v37.93h37.93v37.93h37.93s0,189.63,0,189.63h37.93v113.78h-37.93v75.85h-151.7ZM758.52,758.52v-37.93h-37.93v37.93h37.93Z"/>
    <rect class="cls-2" x="303.41" y="834.37" width="151.7" height="113.78"/>
    <rect class="cls-2" x="493.04" y="834.37" width="113.78" height="113.78"/>
    <polygon class="cls-2" points="568.89 1024 568.89 834.37 682.67 834.37 682.67 872.3 758.52 872.3 758.52 1024 568.89 1024"/>
    <rect class="cls-2" x="910.22" y="834.37" width="113.78" height="113.78"/>
    <rect class="cls-2" x="417.19" y="872.3" width="113.78" height="113.78"/>
    <polygon class="cls-2" points="872.3 1024 872.3 872.3 986.07 872.3 986.07 910.22 1024 910.22 1024 1024 872.3 1024"/>
    <rect class="cls-2" x="303.41" y="910.22" width="151.7" height="113.78"/>
    <rect class="cls-2" x="455.11" y="910.22" width="113.78" height="113.78"/>
    <rect class="cls-2" x="720.59" y="910.22" width="113.78" height="113.78"/>
  </g>
  <g>
    <path class="cls-1" d="M986.07,37.93h-227.56v265.48h265.48V37.93h-37.93ZM986.07,113.78v151.7h-189.63V75.85h189.63v37.93Z"/>
    <rect class="cls-1" x="379.26" y="75.85" width="37.93" height="37.93"/>
    <polygon class="cls-1" points="455.11 113.78 493.04 113.78 530.96 113.78 530.96 151.7 568.89 151.7 568.89 113.78 606.81 113.78 644.74 113.78 682.67 113.78 682.67 75.85 682.67 37.93 644.74 37.93 606.81 37.93 606.81 75.85 568.89 75.85 568.89 37.93 530.96 37.93 530.96 75.85 493.04 75.85 493.04 37.93 455.11 37.93 417.19 37.93 417.19 75.85 455.11 75.85 455.11 113.78"/>
    <rect class="cls-1" x="417.19" y="113.78" width="37.93" height="37.93"/>
    <polygon class="cls-1" points="872.3 113.78 834.37 113.78 834.37 151.7 834.37 189.63 834.37 227.56 872.3 227.56 910.22 227.56 948.15 227.56 948.15 189.63 948.15 151.7 948.15 113.78 910.22 113.78 872.3 113.78"/>
    <polygon class="cls-1" points="493.04 151.7 455.11 151.7 455.11 189.63 493.04 189.63 530.96 189.63 530.96 151.7 493.04 151.7"/>
    <polygon class="cls-1" points="227.56 227.56 265.48 227.56 265.48 189.63 265.48 151.7 265.48 113.78 227.56 113.78 189.63 113.78 151.7 113.78 151.7 151.7 151.7 189.63 151.7 227.56 189.63 227.56 227.56 227.56"/>
    <polygon class="cls-1" points="379.26 189.63 379.26 227.56 417.19 227.56 455.11 227.56 455.11 189.63 417.19 189.63 379.26 189.63"/>
    <rect class="cls-1" x="530.96" y="189.63" width="37.93" height="37.93"/>
    <rect class="cls-1" x="493.04" y="227.56" width="37.93" height="37.93"/>
    <path class="cls-1" d="M151.7,303.41h189.63V37.93H75.85v265.48h75.85ZM113.78,227.56V75.85h189.63v189.63H113.78v-37.93Z"/>
    <rect class="cls-1" x="379.26" y="265.48" width="37.93" height="37.93"/>
    <rect class="cls-1" x="455.11" y="265.48" width="37.93" height="37.93"/>
    <rect class="cls-1" x="530.96" y="265.48" width="37.93" height="37.93"/>
    <polygon class="cls-1" points="644.74 265.48 682.67 265.48 682.67 227.56 682.67 189.63 682.67 151.7 644.74 151.7 606.81 151.7 606.81 189.63 644.74 189.63 644.74 227.56 606.81 227.56 606.81 265.48 606.81 303.41 644.74 303.41 644.74 265.48"/>
    <rect class="cls-1" x="75.85" y="341.33" width="37.93" height="37.93"/>
    <rect class="cls-1" x="151.7" y="341.33" width="37.93" height="37.93"/>
    <rect class="cls-1" x="227.56" y="341.33" width="37.93" height="37.93"/>
    <rect class="cls-1" x="303.41" y="341.33" width="37.93" height="37.93"/>
    <polygon class="cls-1" points="568.89 379.26 606.81 379.26 644.74 379.26 682.67 379.26 720.59 379.26 720.59 341.33 720.59 303.41 720.59 265.48 682.67 265.48 682.67 303.41 682.67 341.33 644.74 341.33 606.81 341.33 606.81 303.41 568.89 303.41 568.89 341.33 530.96 341.33 530.96 303.41 493.04 303.41 493.04 341.33 493.04 379.26 530.96 379.26 568.89 379.26"/>
    <rect class="cls-1" x="834.37" y="341.33" width="37.93" height="37.93"/>
    <rect class="cls-1" x="948.15" y="341.33" width="37.93" height="37.93"/>
    <rect class="cls-1" x="379.26" y="379.26" width="37.93" height="37.93"/>
    <rect class="cls-1" x="455.11" y="379.26" width="37.93" height="37.93"/>
    <polygon class="cls-1" points="986.07 417.19 948.15 417.19 910.22 417.19 910.22 455.11 948.15 455.11 948.15 493.04 948.15 530.96 986.07 530.96 986.07 568.89 948.15 568.89 910.22 568.89 910.22 606.81 948.15 606.81 948.15 644.74 986.07 644.74 986.07 606.81 1024 606.81 1024 568.89 1024 530.96 1024 493.04 986.07 493.04 986.07 455.11 1024 455.11 1024 417.19 1024 379.26 986.07 379.26 986.07 417.19"/>
    <rect class="cls-1" x="417.19" y="417.19" width="37.93" height="37.93"/>
    <polygon class="cls-1" points="720.59 455.11 758.52 455.11 796.44 455.11 796.44 417.19 796.44 379.26 758.52 379.26 720.59 379.26 720.59 417.19 720.59 455.11"/>
    <polygon class="cls-1" points="113.78 493.04 151.7 493.04 189.63 493.04 189.63 455.11 151.7 455.11 151.7 417.19 151.7 379.26 113.78 379.26 113.78 417.19 75.85 417.19 75.85 455.11 113.78 455.11 113.78 493.04"/>
    <polygon class="cls-1" points="341.33 455.11 341.33 493.04 303.41 493.04 303.41 455.11 341.33 455.11 341.33 417.19 303.41 417.19 303.41 379.26 265.48 379.26 265.48 417.19 227.56 417.19 227.56 455.11 227.56 493.04 227.56 530.96 227.56 568.89 265.48 568.89 265.48 530.96 303.41 530.96 341.33 530.96 379.26 530.96 379.26 493.04 417.19 493.04 417.19 455.11 379.26 455.11 341.33 455.11"/>
    <rect class="cls-1" x="834.37" y="455.11" width="37.93" height="37.93"/>
    <polygon class="cls-1" points="910.22 493.04 872.3 493.04 872.3 530.96 872.3 568.89 910.22 568.89 910.22 530.96 910.22 493.04"/>
    <polygon class="cls-1" points="189.63 568.89 189.63 530.96 151.7 530.96 113.78 530.96 113.78 568.89 151.7 568.89 189.63 568.89"/>
    <rect class="cls-1" x="75.85" y="568.89" width="37.93" height="37.93"/>
    <rect class="cls-1" x="189.63" y="568.89" width="37.93" height="37.93"/>
    <rect class="cls-1" x="568.89" y="568.89" width="37.93" height="37.93"/>
    <polygon class="cls-1" points="113.78 606.81 113.78 644.74 151.7 644.74 151.7 682.67 189.63 682.67 189.63 644.74 189.63 606.81 151.7 606.81 113.78 606.81"/>
    <rect class="cls-1" x="493.04" y="606.81" width="37.93" height="37.93"/>
    <rect class="cls-1" x="75.85" y="644.74" width="37.93" height="37.93"/>
    <rect class="cls-1" x="455.11" y="644.74" width="37.93" height="37.93"/>
    <polygon class="cls-1" points="948.15 682.67 948.15 720.59 948.15 758.52 948.15 796.44 948.15 834.37 986.07 834.37 1024 834.37 1024 796.44 986.07 796.44 986.07 758.52 1024 758.52 1024 720.59 1024 682.67 986.07 682.67 948.15 682.67"/>
    <path class="cls-1" d="M265.48,720.59H75.85v265.48h265.48v-265.48h-75.85ZM303.41,796.44v151.7H113.78v-189.63h189.63v37.93Z"/>
    <rect class="cls-1" x="758.52" y="720.59" width="37.93" height="37.93"/>
    <polygon class="cls-1" points="455.11 758.52 455.11 720.59 455.11 682.67 417.19 682.67 379.26 682.67 379.26 720.59 417.19 720.59 417.19 758.52 417.19 796.44 379.26 796.44 379.26 834.37 417.19 834.37 455.11 834.37 455.11 796.44 455.11 758.52"/>
    <polygon class="cls-1" points="189.63 796.44 151.7 796.44 151.7 834.37 151.7 872.3 151.7 910.22 189.63 910.22 227.56 910.22 265.48 910.22 265.48 872.3 265.48 834.37 265.48 796.44 227.56 796.44 189.63 796.44"/>
    <polygon class="cls-1" points="493.04 834.37 455.11 834.37 455.11 872.3 493.04 872.3 530.96 872.3 530.96 834.37 530.96 796.44 493.04 796.44 493.04 834.37"/>
    <path class="cls-1" d="M910.22,796.44v-151.7h-37.93v-37.93h-37.93v37.93h-37.93v-37.93h37.93v-37.93h-37.93v-75.85h-75.85v-37.93h-113.78v-37.93h-75.85v37.93h-75.85v37.93h37.93v37.93h-75.85v37.93h-113.78v37.93h37.93v37.93h-113.78v37.93h151.7v-75.85h75.85v-37.93h75.85v-75.85h75.85v37.93h37.93v-37.93h37.93v151.7h-37.93v75.85h-37.93v37.93h-37.93v-37.93h37.93v-37.93h-37.93v-37.93h-37.93v37.93h-37.93v75.85h37.93v37.93h75.85v75.85h37.93v-113.78h37.93v113.78h37.93v-37.93h75.85v37.93h37.93v75.85h75.85v-37.93h-37.93v-37.93h75.85v-37.93h-37.93v-37.93ZM720.59,568.89v-37.93h37.93v75.85h-37.93v-37.93ZM758.52,796.44h-37.93v-113.78h113.78v113.78h-75.85Z"/>
    <polygon class="cls-1" points="379.26 872.3 379.26 910.22 417.19 910.22 455.11 910.22 455.11 872.3 417.19 872.3 379.26 872.3"/>
    <rect class="cls-1" x="568.89" y="872.3" width="37.93" height="37.93"/>
    <polygon class="cls-1" points="644.74 910.22 644.74 948.15 644.74 986.07 682.67 986.07 720.59 986.07 758.52 986.07 758.52 948.15 758.52 910.22 720.59 910.22 682.67 910.22 682.67 872.3 644.74 872.3 644.74 910.22"/>
    <rect class="cls-1" x="986.07" y="872.3" width="37.93" height="37.93"/>
    <rect class="cls-1" x="493.04" y="910.22" width="37.93" height="37.93"/>
    <polygon class="cls-1" points="948.15 948.15 948.15 986.07 986.07 986.07 1024 986.07 1024 948.15 986.07 948.15 986.07 910.22 948.15 910.22 948.15 948.15"/>
    <polygon class="cls-1" points="379.26 948.15 379.26 986.07 417.19 986.07 455.11 986.07 455.11 948.15 417.19 948.15 379.26 948.15"/>
    <rect class="cls-1" x="530.96" y="948.15" width="37.93" height="37.93"/>
    <rect class="cls-1" x="796.44" y="948.15" width="37.93" height="37.93"/>
  </g>
  <g>
    <path class="cls-1" d="M986.07,75.85h-227.56v265.48h265.48V75.85h-37.93ZM986.07,151.7v151.7h-189.63V113.78h189.63v37.93Z"/>
    <rect class="cls-1" x="379.26" y="113.78" width="37.93" height="37.93"/>
    <polygon class="cls-1" points="455.11 151.7 493.04 151.7 530.96 151.7 530.96 189.63 568.89 189.63 568.89 151.7 606.81 151.7 644.74 151.7 682.67 151.7 682.67 113.78 682.67 75.85 644.74 75.85 606.81 75.85 606.81 113.78 568.89 113.78 568.89 75.85 530.96 75.85 530.96 113.78 493.04 113.78 493.04 75.85 455.11 75.85 417.19 75.85 417.19 113.78 455.11 113.78 455.11 151.7"/>
    <rect class="cls-1" x="417.19" y="151.7" width="37.93" height="37.93"/>
    <polygon class="cls-1" points="872.3 151.7 834.37 151.7 834.37 189.63 834.37 227.56 834.37 265.48 872.3 265.48 910.22 265.48 948.15 265.48 948.15 227.56 948.15 189.63 948.15 151.7 910.22 151.7 872.3 151.7"/>
    <polygon class="cls-1" points="493.04 189.63 455.11 189.63 455.11 227.56 493.04 227.56 530.96 227.56 530.96 189.63 493.04 189.63"/>
    <polygon class="cls-1" points="227.56 265.48 265.48 265.48 265.48 227.56 265.48 189.63 265.48 151.7 227.56 151.7 189.63 151.7 151.7 151.7 151.7 189.63 151.7 227.56 151.7 265.48 189.63 265.48 227.56 265.48"/>
    <polygon class="cls-1" points="379.26 227.56 379.26 265.48 417.19 265.48 455.11 265.48 455.11 227.56 417.19 227.56 379.26 227.56"/>
    <rect class="cls-1" x="530.96" y="227.56" width="37.93" height="37.93"/>
    <rect class="cls-1" x="493.04" y="265.48" width="37.93" height="37.93"/>
    <path class="cls-1" d="M151.7,341.33h189.63V75.85H75.85v265.48h75.85ZM113.78,265.48V113.78h189.63v189.63H113.78v-37.93Z"/>
    <rect class="cls-1" x="379.26" y="303.41" width="37.93" height="37.93"/>
    <rect class="cls-1" x="455.11" y="303.41" width="37.93" height="37.93"/>
    <rect class="cls-1" x="530.96" y="303.41" width="37.93" height="37.93"/>
    <polygon class="cls-1" points="644.74 303.41 682.67 303.41 682.67 265.48 682.67 227.56 682.67 189.63 644.74 189.63 606.81 189.63 606.81 227.56 644.74 227.56 644.74 265.48 606.81 265.48 606.81 303.41 606.81 341.33 644.74 341.33 644.74 303.41"/>
    <rect class="cls-1" x="75.85" y="379.26" width="37.93" height="37.93"/>
    <rect class="cls-1" x="151.7" y="379.26" width="37.93" height="37.93"/>
    <rect class="cls-1" x="227.56" y="379.26" width="37.93" height="37.93"/>
    <rect class="cls-1" x="303.41" y="379.26" width="37.93" height="37.93"/>
    <polygon class="cls-1" points="568.89 417.19 606.81 417.19 644.74 417.19 682.67 417.19 720.59 417.19 720.59 379.26 720.59 341.33 720.59 303.41 682.67 303.41 682.67 341.33 682.67 379.26 644.74 379.26 606.81 379.26 606.81 341.33 568.89 341.33 568.89 379.26 530.96 379.26 530.96 341.33 493.04 341.33 493.04 379.26 493.04 417.19 530.96 417.19 568.89 417.19"/>
    <rect class="cls-1" x="834.37" y="379.26" width="37.93" height="37.93"/>
    <rect class="cls-1" x="948.15" y="379.26" width="37.93" height="37.93"/>
    <rect class="cls-1" x="379.26" y="417.19" width="37.93" height="37.93"/>
    <rect class="cls-1" x="455.11" y="417.19" width="37.93" height="37.93"/>
    <polygon class="cls-1" points="986.07 455.11 948.15 455.11 910.22 455.11 910.22 493.04 948.15 493.04 948.15 530.96 948.15 568.89 986.07 568.89 986.07 606.81 948.15 606.81 910.22 606.81 910.22 644.74 948.15 644.74 948.15 682.67 986.07 682.67 986.07 644.74 1024 644.74 1024 606.81 1024 568.89 1024 530.96 986.07 530.96 986.07 493.04 1024 493.04 1024 455.11 1024 417.19 986.07 417.19 986.07 455.11"/>
    <rect class="cls-1" x="417.19" y="455.11" width="37.93" height="37.93"/>
    <polygon class="cls-1" points="720.59 493.04 758.52 493.04 796.44 493.04 796.44 455.11 796.44 417.19 758.52 417.19 720.59 417.19 720.59 455.11 720.59 493.04"/>
    <polygon class="cls-1" points="113.78 530.96 151.7 530.96 189.63 530.96 189.63 493.04 151.7 493.04 151.7 455.11 151.7 417.19 113.78 417.19 113.78 455.11 75.85 455.11 75.85 493.04 113.78 493.04 113.78 530.96"/>
    <polygon class="cls-1" points="341.33 493.04 341.33 530.96 303.41 530.96 303.41 493.04 341.33 493.04 341.33 455.11 303.41 455.11 303.41 417.19 265.48 417.19 265.48 455.11 227.56 455.11 227.56 493.04 227.56 530.96 227.56 568.89 227.56 606.81 265.48 606.81 265.48 568.89 303.41 568.89 341.33 568.89 379.26 568.89 379.26 530.96 417.19 530.96 417.19 493.04 379.26 493.04 341.33 493.04"/>
    <rect class="cls-1" x="834.37" y="493.04" width="37.93" height="37.93"/>
    <polygon class="cls-1" points="910.22 530.96 872.3 530.96 872.3 568.89 872.3 606.81 910.22 606.81 910.22 568.89 910.22 530.96"/>
    <polygon class="cls-1" points="189.63 606.81 189.63 568.89 151.7 568.89 113.78 568.89 113.78 606.81 151.7 606.81 189.63 606.81"/>
    <rect class="cls-1" x="75.85" y="606.81" width="37.93" height="37.93"/>
    <rect class="cls-1" x="189.63" y="606.81" width="37.93" height="37.93"/>
    <rect class="cls-1" x="568.89" y="606.81" width="37.93" height="37.93"/>
    <polygon class="cls-1" points="113.78 644.74 113.78 682.67 151.7 682.67 151.7 720.59 189.63 720.59 189.63 682.67 189.63 644.74 151.7 644.74 113.78 644.74"/>
    <rect class="cls-1" x="493.04" y="644.74" width="37.93" height="37.93"/>
    <rect class="cls-1" x="75.85" y="682.67" width="37.93" height="37.93"/>
    <rect class="cls-1" x="455.11" y="682.67" width="37.93" height="37.93"/>
    <polygon class="cls-1" points="948.15 720.59 948.15 758.52 948.15 796.44 948.15 834.37 948.15 872.3 986.07 872.3 1024 872.3 1024 834.37 986.07 834.37 986.07 796.44 1024 796.44 1024 758.52 1024 720.59 986.07 720.59 948.15 720.59"/>
    <path class="cls-1" d="M265.48,758.52H75.85v265.48h265.48v-265.48h-75.85ZM303.41,834.37v151.7H113.78v-189.63h189.63v37.93Z"/>
    <rect class="cls-1" x="758.52" y="758.52" width="37.93" height="37.93"/>
    <polygon class="cls-1" points="455.11 796.44 455.11 758.52 455.11 720.59 417.19 720.59 379.26 720.59 379.26 758.52 417.19 758.52 417.19 796.44 417.19 834.37 379.26 834.37 379.26 872.3 417.19 872.3 455.11 872.3 455.11 834.37 455.11 796.44"/>
    <polygon class="cls-1" points="189.63 834.37 151.7 834.37 151.7 872.3 151.7 910.22 151.7 948.15 189.63 948.15 227.56 948.15 265.48 948.15 265.48 910.22 265.48 872.3 265.48 834.37 227.56 834.37 189.63 834.37"/>
    <polygon class="cls-1" points="493.04 872.3 455.11 872.3 455.11 910.22 493.04 910.22 530.96 910.22 530.96 872.3 530.96 834.37 493.04 834.37 493.04 872.3"/>
    <path class="cls-1" d="M910.22,834.37v-151.7h-37.93v-37.93h-37.93v37.93h-37.93v-37.93h37.93v-37.93h-37.93v-75.85h-75.85v-37.93h-113.78v-37.93h-75.85v37.93h-75.85v37.93h37.93v37.93h-75.85v37.93h-113.78v37.93h37.93v37.93h-113.78v37.93h151.7v-75.85h75.85v-37.93h75.85v-75.85h75.85v37.93h37.93v-37.93h37.93v151.7h-37.93v75.85h-37.93v37.93h-37.93v-37.93h37.93v-37.93h-37.93v-37.93h-37.93v37.93h-37.93v75.85h37.93v37.93h75.85v75.85h37.93v-113.78h37.93v113.78h37.93v-37.93h75.85v37.93h37.93v75.85h75.85v-37.93h-37.93v-37.93h75.85v-37.93h-37.93v-37.93ZM720.59,606.81v-37.93h37.93v75.85h-37.93v-37.93ZM758.52,834.37h-37.93v-113.78h113.78v113.78h-75.85Z"/>
    <polygon class="cls-1" points="379.26 910.22 379.26 948.15 417.19 948.15 455.11 948.15 455.11 910.22 417.19 910.22 379.26 910.22"/>
    <rect class="cls-1" x="568.89" y="910.22" width="37.93" height="37.93"/>
    <polygon class="cls-1" points="644.74 948.15 644.74 986.07 644.74 1024 682.67 1024 720.59 1024 758.52 1024 758.52 986.07 758.52 948.15 720.59 948.15 682.67 948.15 682.67 910.22 644.74 910.22 644.74 948.15"/>
    <rect class="cls-1" x="986.07" y="910.22" width="37.93" height="37.93"/>
    <rect class="cls-1" x="493.04" y="948.15" width="37.93" height="37.93"/>
    <polygon class="cls-1" points="948.15 986.07 948.15 1024 986.07 1024 1024 1024 1024 986.07 986.07 986.07 986.07 948.15 948.15 948.15 948.15 986.07"/>
    <polygon class="cls-1" points="379.26 986.07 379.26 1024 417.19 1024 455.11 1024 455.11 986.07 417.19 986.07 379.26 986.07"/>
    <rect class="cls-1" x="530.96" y="986.07" width="37.93" height="37.93"/>
    <rect class="cls-1" x="796.44" y="986.07" width="37.93" height="37.93"/>
  </g>
  <g>
    <path class="cls-3" d="M910.22,0h-227.56v265.48h265.48V0h-37.93ZM910.22,75.85v151.7h-189.63V37.93h189.63v37.93Z"/>
    <rect class="cls-3" x="303.41" y="37.93" width="37.93" height="37.93"/>
    <polygon class="cls-3" points="379.26 75.85 417.19 75.85 455.11 75.85 455.11 113.78 493.04 113.78 493.04 75.85 530.96 75.85 568.89 75.85 606.81 75.85 606.81 37.93 606.81 0 568.89 0 530.96 0 530.96 37.93 493.04 37.93 493.04 0 455.11 0 455.11 37.93 417.19 37.93 417.19 0 379.26 0 341.33 0 341.33 37.93 379.26 37.93 379.26 75.85"/>
    <rect class="cls-3" x="341.33" y="75.85" width="37.93" height="37.93"/>
    <polygon class="cls-3" points="796.44 75.85 758.52 75.85 758.52 113.78 758.52 151.7 758.52 189.63 796.44 189.63 834.37 189.63 872.3 189.63 872.3 151.7 872.3 113.78 872.3 75.85 834.37 75.85 796.44 75.85"/>
    <polygon class="cls-3" points="417.19 113.78 379.26 113.78 379.26 151.7 417.19 151.7 455.11 151.7 455.11 113.78 417.19 113.78"/>
    <polygon class="cls-3" points="151.7 189.63 189.63 189.63 189.63 151.7 189.63 113.78 189.63 75.85 151.7 75.85 113.78 75.85 75.85 75.85 75.85 113.78 75.85 151.7 75.85 189.63 113.78 189.63 151.7 189.63"/>
    <polygon class="cls-3" points="303.41 151.7 303.41 189.63 341.33 189.63 379.26 189.63 379.26 151.7 341.33 151.7 303.41 151.7"/>
    <rect class="cls-3" x="455.11" y="151.7" width="37.93" height="37.93"/>
    <rect class="cls-3" x="417.19" y="189.63" width="37.93" height="37.93"/>
    <path class="cls-3" d="M75.85,265.48h189.63V0H0v265.48h75.85ZM37.93,189.63V37.93h189.63v189.63H37.93v-37.93Z"/>
    <rect class="cls-3" x="303.41" y="227.56" width="37.93" height="37.93"/>
    <rect class="cls-3" x="379.26" y="227.56" width="37.93" height="37.93"/>
    <rect class="cls-3" x="455.11" y="227.56" width="37.93" height="37.93"/>
    <polygon class="cls-3" points="568.89 227.56 606.81 227.56 606.81 189.63 606.81 151.7 606.81 113.78 568.89 113.78 530.96 113.78 530.96 151.7 568.89 151.7 568.89 189.63 530.96 189.63 530.96 227.56 530.96 265.48 568.89 265.48 568.89 227.56"/>
    <rect class="cls-3" y="303.41" width="37.93" height="37.93"/>
    <rect class="cls-3" x="75.85" y="303.41" width="37.93" height="37.93"/>
    <rect class="cls-3" x="151.7" y="303.41" width="37.93" height="37.93"/>
    <rect class="cls-3" x="227.56" y="303.41" width="37.93" height="37.93"/>
    <polygon class="cls-3" points="493.04 341.33 530.96 341.33 568.89 341.33 606.81 341.33 644.74 341.33 644.74 303.41 644.74 265.48 644.74 227.56 606.81 227.56 606.81 265.48 606.81 303.41 568.89 303.41 530.96 303.41 530.96 265.48 493.04 265.48 493.04 303.41 455.11 303.41 455.11 265.48 417.19 265.48 417.19 303.41 417.19 341.33 455.11 341.33 493.04 341.33"/>
    <rect class="cls-3" x="758.52" y="303.41" width="37.93" height="37.93"/>
    <rect class="cls-3" x="872.3" y="303.41" width="37.93" height="37.93"/>
    <rect class="cls-3" x="303.41" y="341.33" width="37.93" height="37.93"/>
    <rect class="cls-3" x="379.26" y="341.33" width="37.93" height="37.93"/>
    <polygon class="cls-3" points="910.22 379.26 872.3 379.26 834.37 379.26 834.37 417.19 872.3 417.19 872.3 455.11 872.3 493.04 910.22 493.04 910.22 530.96 872.3 530.96 834.37 530.96 834.37 568.89 872.3 568.89 872.3 606.81 910.22 606.81 910.22 568.89 948.15 568.89 948.15 530.96 948.15 493.04 948.15 455.11 910.22 455.11 910.22 417.19 948.15 417.19 948.15 379.26 948.15 341.33 910.22 341.33 910.22 379.26"/>
    <rect class="cls-3" x="341.33" y="379.26" width="37.93" height="37.93"/>
    <polygon class="cls-3" points="644.74 417.19 682.67 417.19 720.59 417.19 720.59 379.26 720.59 341.33 682.67 341.33 644.74 341.33 644.74 379.26 644.74 417.19"/>
    <polygon class="cls-3" points="37.93 455.11 75.85 455.11 113.78 455.11 113.78 417.19 75.85 417.19 75.85 379.26 75.85 341.33 37.93 341.33 37.93 379.26 0 379.26 0 417.19 37.93 417.19 37.93 455.11"/>
    <polygon class="cls-3" points="265.48 417.19 265.48 455.11 227.56 455.11 227.56 417.19 265.48 417.19 265.48 379.26 227.56 379.26 227.56 341.33 189.63 341.33 189.63 379.26 151.7 379.26 151.7 417.19 151.7 455.11 151.7 493.04 151.7 530.96 189.63 530.96 189.63 493.04 227.56 493.04 265.48 493.04 303.41 493.04 303.41 455.11 341.33 455.11 341.33 417.19 303.41 417.19 265.48 417.19"/>
    <rect class="cls-3" x="758.52" y="417.19" width="37.93" height="37.93"/>
    <polygon class="cls-3" points="834.37 455.11 796.44 455.11 796.44 493.04 796.44 530.96 834.37 530.96 834.37 493.04 834.37 455.11"/>
    <polygon class="cls-3" points="113.78 530.96 113.78 493.04 75.85 493.04 37.93 493.04 37.93 530.96 75.85 530.96 113.78 530.96"/>
    <rect class="cls-3" y="530.96" width="37.93" height="37.93"/>
    <rect class="cls-3" x="113.78" y="530.96" width="37.93" height="37.93"/>
    <rect class="cls-3" x="493.04" y="530.96" width="37.93" height="37.93"/>
    <polygon class="cls-3" points="37.93 568.89 37.93 606.81 75.85 606.81 75.85 644.74 113.78 644.74 113.78 606.81 113.78 568.89 75.85 568.89 37.93 568.89"/>
    <rect class="cls-3" x="417.19" y="568.89" width="37.93" height="37.93"/>
    <rect class="cls-3" y="606.81" width="37.93" height="37.93"/>
    <rect class="cls-3" x="379.26" y="606.81" width="37.93" height="37.93"/>
    <polygon class="cls-3" points="872.3 644.74 872.3 682.67 872.3 720.59 872.3 758.52 872.3 796.44 910.22 796.44 948.15 796.44 948.15 758.52 910.22 758.52 910.22 720.59 948.15 720.59 948.15 682.67 948.15 644.74 910.22 644.74 872.3 644.74"/>
    <path class="cls-3" d="M189.63,682.67H0v265.48h265.48v-265.48h-75.85ZM227.56,758.52v151.7H37.93v-189.63h189.63v37.93Z"/>
    <rect class="cls-3" x="682.67" y="682.67" width="37.93" height="37.93"/>
    <polygon class="cls-3" points="379.26 720.59 379.26 682.67 379.26 644.74 341.33 644.74 303.41 644.74 303.41 682.67 341.33 682.67 341.33 720.59 341.33 758.52 303.41 758.52 303.41 796.44 341.33 796.44 379.26 796.44 379.26 758.52 379.26 720.59"/>
    <polygon class="cls-3" points="113.78 758.52 75.85 758.52 75.85 796.44 75.85 834.37 75.85 872.3 113.78 872.3 151.7 872.3 189.63 872.3 189.63 834.37 189.63 796.44 189.63 758.52 151.7 758.52 113.78 758.52"/>
    <polygon class="cls-3" points="417.19 796.44 379.26 796.44 379.26 834.37 417.19 834.37 455.11 834.37 455.11 796.44 455.11 758.52 417.19 758.52 417.19 796.44"/>
    <path class="cls-3" d="M834.37,758.52v-151.7h-37.93v-37.93h-37.93v37.93h-37.93v-37.93h37.93v-37.93h-37.93v-75.85h-75.85v-37.93h-113.78v-37.93h-75.85v37.93h-75.85v37.93h37.93v37.93h-75.85v37.93h-113.78v37.93h37.93v37.93h-113.78v37.93h151.7v-75.85h75.85v-37.93h75.85v-75.85h75.85v37.93h37.93v-37.93h37.93v151.7h-37.93v75.85h-37.93v37.93h-37.93v-37.93h37.93v-37.93h-37.93v-37.93h-37.93v37.93h-37.93v75.85h37.93v37.93h75.85v75.85h37.93v-113.78h37.93v113.78h37.93v-37.93h75.85v37.93h37.93v75.85h75.85v-37.93h-37.93v-37.93h75.85v-37.93h-37.93v-37.93ZM644.74,530.96v-37.93h37.93v75.85h-37.93v-37.93ZM682.67,758.52h-37.93v-113.78h113.78v113.78h-75.85Z"/>
    <polygon class="cls-3" points="303.41 834.37 303.41 872.3 341.33 872.3 379.26 872.3 379.26 834.37 341.33 834.37 303.41 834.37"/>
    <rect class="cls-3" x="493.04" y="834.37" width="37.93" height="37.93"/>
    <polygon class="cls-3" points="568.89 872.3 568.89 910.22 568.89 948.15 606.81 948.15 644.74 948.15 682.67 948.15 682.67 910.22 682.67 872.3 644.74 872.3 606.81 872.3 606.81 834.37 568.89 834.37 568.89 872.3"/>
    <rect class="cls-3" x="910.22" y="834.37" width="37.93" height="37.93"/>
    <rect class="cls-3" x="417.19" y="872.3" width="37.93" height="37.93"/>
    <polygon class="cls-3" points="872.3 910.22 872.3 948.15 910.22 948.15 948.15 948.15 948.15 910.22 910.22 910.22 910.22 872.3 872.3 872.3 872.3 910.22"/>
    <polygon class="cls-3" points="303.41 910.22 303.41 948.15 341.33 948.15 379.26 948.15 379.26 910.22 341.33 910.22 303.41 910.22"/>
    <rect class="cls-3" x="455.11" y="910.22" width="37.93" height="37.93"/>
    <rect class="cls-3" x="720.59" y="910.22" width="37.93" height="37.93"/>
  </g>
  <g>
    <path class="cls-4" d="M948.15,37.93h-227.56v265.48h265.48V37.93h-37.93ZM948.15,113.78v151.7h-189.63V75.85h189.63v37.93Z"/>
    <rect class="cls-4" x="341.33" y="75.85" width="37.93" height="37.93"/>
    <polygon class="cls-4" points="417.19 113.78 455.11 113.78 493.04 113.78 493.04 151.7 530.96 151.7 530.96 113.78 568.89 113.78 606.81 113.78 644.74 113.78 644.74 75.85 644.74 37.93 606.81 37.93 568.89 37.93 568.89 75.85 530.96 75.85 530.96 37.93 493.04 37.93 493.04 75.85 455.11 75.85 455.11 37.93 417.19 37.93 379.26 37.93 379.26 75.85 417.19 75.85 417.19 113.78"/>
    <rect class="cls-4" x="379.26" y="113.78" width="37.93" height="37.93"/>
    <polygon class="cls-4" points="834.37 113.78 796.44 113.78 796.44 151.7 796.44 189.63 796.44 227.56 834.37 227.56 872.3 227.56 910.22 227.56 910.22 189.63 910.22 151.7 910.22 113.78 872.3 113.78 834.37 113.78"/>
    <polygon class="cls-4" points="455.11 151.7 417.19 151.7 417.19 189.63 455.11 189.63 493.04 189.63 493.04 151.7 455.11 151.7"/>
    <polygon class="cls-4" points="189.63 227.56 227.56 227.56 227.56 189.63 227.56 151.7 227.56 113.78 189.63 113.78 151.7 113.78 113.78 113.78 113.78 151.7 113.78 189.63 113.78 227.56 151.7 227.56 189.63 227.56"/>
    <polygon class="cls-4" points="341.33 189.63 341.33 227.56 379.26 227.56 417.19 227.56 417.19 189.63 379.26 189.63 341.33 189.63"/>
    <rect class="cls-4" x="493.04" y="189.63" width="37.93" height="37.93"/>
    <rect class="cls-4" x="455.11" y="227.56" width="37.93" height="37.93"/>
    <path class="cls-4" d="M113.78,303.41h189.63V37.93H37.93v265.48h75.85ZM75.85,227.56V75.85h189.63v189.63H75.85v-37.93Z"/>
    <rect class="cls-4" x="341.33" y="265.48" width="37.93" height="37.93"/>
    <rect class="cls-4" x="417.19" y="265.48" width="37.93" height="37.93"/>
    <rect class="cls-4" x="493.04" y="265.48" width="37.93" height="37.93"/>
    <polygon class="cls-4" points="606.81 265.48 644.74 265.48 644.74 227.56 644.74 189.63 644.74 151.7 606.81 151.7 568.89 151.7 568.89 189.63 606.81 189.63 606.81 227.56 568.89 227.56 568.89 265.48 568.89 303.41 606.81 303.41 606.81 265.48"/>
    <rect class="cls-4" x="37.93" y="341.33" width="37.93" height="37.93"/>
    <rect class="cls-4" x="113.78" y="341.33" width="37.93" height="37.93"/>
    <rect class="cls-4" x="189.63" y="341.33" width="37.93" height="37.93"/>
    <rect class="cls-4" x="265.48" y="341.33" width="37.93" height="37.93"/>
    <polygon class="cls-4" points="530.96 379.26 568.89 379.26 606.81 379.26 644.74 379.26 682.67 379.26 682.67 341.33 682.67 303.41 682.67 265.48 644.74 265.48 644.74 303.41 644.74 341.33 606.81 341.33 568.89 341.33 568.89 303.41 530.96 303.41 530.96 341.33 493.04 341.33 493.04 303.41 455.11 303.41 455.11 341.33 455.11 379.26 493.04 379.26 530.96 379.26"/>
    <rect class="cls-4" x="796.44" y="341.33" width="37.93" height="37.93"/>
    <rect class="cls-4" x="910.22" y="341.33" width="37.93" height="37.93"/>
    <rect class="cls-4" x="341.33" y="379.26" width="37.93" height="37.93"/>
    <rect class="cls-4" x="417.19" y="379.26" width="37.93" height="37.93"/>
    <polygon class="cls-4" points="948.15 417.19 910.22 417.19 872.3 417.19 872.3 455.11 910.22 455.11 910.22 493.04 910.22 530.96 948.15 530.96 948.15 568.89 910.22 568.89 872.3 568.89 872.3 606.81 910.22 606.81 910.22 644.74 948.15 644.74 948.15 606.81 986.07 606.81 986.07 568.89 986.07 530.96 986.07 493.04 948.15 493.04 948.15 455.11 986.07 455.11 986.07 417.19 986.07 379.26 948.15 379.26 948.15 417.19"/>
    <rect class="cls-4" x="379.26" y="417.19" width="37.93" height="37.93"/>
    <polygon class="cls-4" points="682.67 455.11 720.59 455.11 758.52 455.11 758.52 417.19 758.52 379.26 720.59 379.26 682.67 379.26 682.67 417.19 682.67 455.11"/>
    <polygon class="cls-4" points="75.85 493.04 113.78 493.04 151.7 493.04 151.7 455.11 113.78 455.11 113.78 417.19 113.78 379.26 75.85 379.26 75.85 417.19 37.93 417.19 37.93 455.11 75.85 455.11 75.85 493.04"/>
    <polygon class="cls-4" points="303.41 455.11 303.41 493.04 265.48 493.04 265.48 455.11 303.41 455.11 303.41 417.19 265.48 417.19 265.48 379.26 227.56 379.26 227.56 417.19 189.63 417.19 189.63 455.11 189.63 493.04 189.63 530.96 189.63 568.89 227.56 568.89 227.56 530.96 265.48 530.96 303.41 530.96 341.33 530.96 341.33 493.04 379.26 493.04 379.26 455.11 341.33 455.11 303.41 455.11"/>
    <rect class="cls-4" x="796.44" y="455.11" width="37.93" height="37.93"/>
    <polygon class="cls-4" points="872.3 493.04 834.37 493.04 834.37 530.96 834.37 568.89 872.3 568.89 872.3 530.96 872.3 493.04"/>
    <polygon class="cls-4" points="151.7 568.89 151.7 530.96 113.78 530.96 75.85 530.96 75.85 568.89 113.78 568.89 151.7 568.89"/>
    <rect class="cls-4" x="37.93" y="568.89" width="37.93" height="37.93"/>
    <rect class="cls-4" x="151.7" y="568.89" width="37.93" height="37.93"/>
    <rect class="cls-4" x="530.96" y="568.89" width="37.93" height="37.93"/>
    <polygon class="cls-4" points="75.85 606.81 75.85 644.74 113.78 644.74 113.78 682.67 151.7 682.67 151.7 644.74 151.7 606.81 113.78 606.81 75.85 606.81"/>
    <rect class="cls-4" x="455.11" y="606.81" width="37.93" height="37.93"/>
    <rect class="cls-4" x="37.93" y="644.74" width="37.93" height="37.93"/>
    <rect class="cls-4" x="417.19" y="644.74" width="37.93" height="37.93"/>
    <polygon class="cls-4" points="910.22 682.67 910.22 720.59 910.22 758.52 910.22 796.44 910.22 834.37 948.15 834.37 986.07 834.37 986.07 796.44 948.15 796.44 948.15 758.52 986.07 758.52 986.07 720.59 986.07 682.67 948.15 682.67 910.22 682.67"/>
    <path class="cls-4" d="M227.56,720.59H37.93v265.48h265.48v-265.48h-75.85ZM265.48,796.44v151.7H75.85v-189.63h189.63v37.93Z"/>
    <rect class="cls-4" x="720.59" y="720.59" width="37.93" height="37.93"/>
    <polygon class="cls-4" points="417.19 758.52 417.19 720.59 417.19 682.67 379.26 682.67 341.33 682.67 341.33 720.59 379.26 720.59 379.26 758.52 379.26 796.44 341.33 796.44 341.33 834.37 379.26 834.37 417.19 834.37 417.19 796.44 417.19 758.52"/>
    <polygon class="cls-4" points="151.7 796.44 113.78 796.44 113.78 834.37 113.78 872.3 113.78 910.22 151.7 910.22 189.63 910.22 227.56 910.22 227.56 872.3 227.56 834.37 227.56 796.44 189.63 796.44 151.7 796.44"/>
    <polygon class="cls-4" points="455.11 834.37 417.19 834.37 417.19 872.3 455.11 872.3 493.04 872.3 493.04 834.37 493.04 796.44 455.11 796.44 455.11 834.37"/>
    <path class="cls-4" d="M872.3,796.44v-151.7h-37.93v-37.93h-37.93v37.93h-37.93v-37.93h37.93v-37.93h-37.93v-75.85h-75.85v-37.93h-113.78v-37.93h-75.85v37.93h-75.85v37.93h37.93v37.93h-75.85v37.93h-113.78v37.93h37.93v37.93h-113.78v37.93h151.7v-75.85h75.85v-37.93h75.85v-75.85h75.85v37.93h37.93v-37.93h37.93v151.7h-37.93v75.85h-37.93v37.93h-37.93v-37.93h37.93v-37.93h-37.93v-37.93h-37.93v37.93h-37.93v75.85h37.93v37.93h75.85v75.85h37.93v-113.78h37.93v113.78h37.93v-37.93h75.85v37.93h37.93v75.85h75.85v-37.93h-37.93v-37.93h75.85v-37.93h-37.93v-37.93ZM682.67,568.89v-37.93h37.93v75.85h-37.93v-37.93ZM720.59,796.44h-37.93v-113.78h113.78v113.78h-75.85Z"/>
    <polygon class="cls-4" points="341.33 872.3 341.33 910.22 379.26 910.22 417.19 910.22 417.19 872.3 379.26 872.3 341.33 872.3"/>
    <rect class="cls-4" x="530.96" y="872.3" width="37.93" height="37.93"/>
    <polygon class="cls-4" points="606.81 910.22 606.81 948.15 606.81 986.07 644.74 986.07 682.67 986.07 720.59 986.07 720.59 948.15 720.59 910.22 682.67 910.22 644.74 910.22 644.74 872.3 606.81 872.3 606.81 910.22"/>
    <rect class="cls-4" x="948.15" y="872.3" width="37.93" height="37.93"/>
    <rect class="cls-4" x="455.11" y="910.22" width="37.93" height="37.93"/>
    <polygon class="cls-4" points="910.22 948.15 910.22 986.07 948.15 986.07 986.07 986.07 986.07 948.15 948.15 948.15 948.15 910.22 910.22 910.22 910.22 948.15"/>
    <polygon class="cls-4" points="341.33 948.15 341.33 986.07 379.26 986.07 417.19 986.07 417.19 948.15 379.26 948.15 341.33 948.15"/>
    <rect class="cls-4" x="493.04" y="948.15" width="37.93" height="37.93"/>
    <rect class="cls-4" x="758.52" y="948.15" width="37.93" height="37.93"/>
  </g>
</svg>