<?xml version="1.0" encoding="UTF-8"?>
<svg id="_レイヤー_1" data-name="レイヤー 1" xmlns="http://www.w3.org/2000/svg" viewBox="0 0 64 64">
  <defs>
    <style>
      .cls-1 {
        fill: #939393;
      }
    </style>
  </defs>
  <path class="cls-1" d="M47.52,48.5c-3.45,3.68-8.14,4.89-13.82,5.47-11.5,1.16-21.45-3.97-22.66-16.8-.51-5.45.7-10.64,3.15-14.89l-1.42-5.6c-.23-.97.67-1.9,1.62-1.67l4.92,1.19c2.93-2.4,6.47-3.97,10.37-4.37,3.34-.34,6.58.22,9.52,1.5l4.63-2.8c.87-.53,1.97.07,2.06,1.11l.27,6.6h0c3.56,3.76,5.98,8.89,6.53,14.71.31,3.29-.03,5.81-.9,8.21-.41,1.12-.53,2.07.21,3.01.71.91,1.84,2.67,3.1,2.38,1.9-.44,3.92-.33,5.18.46,2.39-4.48,3.74-9.59,3.74-15.02C64,14.33,49.67,0,32,0S0,14.33,0,32s14.33,32,32,32c9.06,0,17.24-3.77,23.07-9.82-1.02-.15-2.07-.55-3.06-1.21-1.91-1.27-3.6-2.47-4.48-4.46Z"/>
  <path class="cls-1" d="M44.57,25.04l2.99-.37-.04-.54-3.07.38c-.13-.39-.28-.77-.44-1.14l3.38-1.08-.11-.68-3.59,1.24c-2.41-5.05-7.62-8.12-13.52-7.52-5.89.6-10.55,4.84-11.98,10.26l-3.51-.53-.04.69,3.46.37c-.09.4-.17.64-.23,1.05l-3.02.24.03.54,2.94-.23c-.05.46-.08.75-.09,1.22l-2.69,1.1.13.67,2.56-1.2c0,.36.02.55.06.91.71,7.57,7.03,9.06,14.58,8.3,7.55-.76,13.47-3.5,12.76-11.06-.03-.36-.09-.55-.15-.9l2.77.6.06-.61-2.91-.55c-.09-.45-.2-.72-.34-1.15Z"/>
</svg>