<?xml version="1.0" encoding="UTF-8"?>
<svg id="_レイヤー_1" data-name="レイヤー 1" xmlns="http://www.w3.org/2000/svg" viewBox="0 0 1920 1080">
  <defs>
    <style>
      .cls-1 {
        fill: #9654c8;
      }

      .cls-2, .cls-3, .cls-4, .cls-5, .cls-6, .cls-7, .cls-8, .cls-9, .cls-10, .cls-11, .cls-12, .cls-13, .cls-14 {
        font-family: InterBIZUD-Regular, 'Inter BIZUD';
      }

      .cls-2, .cls-15, .cls-16 {
        letter-spacing: -.02em;
      }

      .cls-3 {
        letter-spacing: -.01em;
      }

      .cls-4, .cls-17 {
        letter-spacing: -.02em;
      }

      .cls-5 {
        letter-spacing: -.02em;
      }

      .cls-18, .cls-19, .cls-20, .cls-13, .cls-14 {
        fill: #fff;
      }

      .cls-18, .cls-13 {
        opacity: .75;
      }

      .cls-21 {
        fill: #3b3b3b;
      }

      .cls-22 {
        fill: #1e1e1e;
      }

      .cls-6 {
        letter-spacing: 0em;
      }

      .cls-7, .cls-23 {
        letter-spacing: -.04em;
      }

      .cls-8 {
        letter-spacing: -.03em;
      }

      .cls-9 {
        letter-spacing: 0em;
      }

      .cls-24 {
        fill: #272727;
      }

      .cls-10, .cls-25 {
        letter-spacing: .02em;
      }

      .cls-26 {
        fill: #303030;
      }

      .cls-11 {
        letter-spacing: 0em;
      }

      .cls-19, .cls-13 {
        font-size: 16px;
      }

      .cls-19, .cls-27, .cls-14 {
        opacity: .25;
      }

      .cls-28 {
        letter-spacing: 0em;
      }

      .cls-28, .cls-29, .cls-30, .cls-15, .cls-23, .cls-31, .cls-25, .cls-32 {
        font-family: InterBIZUD-Bold, 'Inter BIZUD';
        font-weight: 700;
      }

      .cls-29 {
        letter-spacing: -.09em;
      }

      .cls-30 {
        letter-spacing: -.08em;
      }

      .cls-33 {
        fill: #e3dbd9;
      }

      .cls-34 {
        letter-spacing: -.1em;
      }

      .cls-35 {
        letter-spacing: -.07em;
      }

      .cls-14 {
        font-size: 20px;
      }

      .cls-36 {
        letter-spacing: 0em;
      }

      .cls-37 {
        fill: #1a1a1a;
      }

      .cls-32 {
        letter-spacing: 0em;
      }
    </style>
  </defs>
  <rect class="cls-37" width="1920" height="1080"/>
  <g>
    <rect class="cls-24" x="448" y="888" width="1024" height="64"/>
    <text class="cls-14" transform="translate(471.41 926.08)"><tspan x="0" y="0">Passphrase</tspan></text>
    <g>
      <rect class="cls-26" x="1416" y="896" width="48" height="48"/>
      <g class="cls-27">
        <path class="cls-20" d="M1430.5,921.1v-2.14h15.71l-7.92-7.49,1.44-1.47,9.77,9.39v1.19l-9.77,9.42-1.47-1.49,7.87-7.41h-15.63Z"/>
      </g>
    </g>
    <g>
      <rect class="cls-26" x="1360" y="896" width="48" height="48"/>
      <path class="cls-18" d="M1372.04,930h23.91c2.63,0,3.97-1.32,3.97-3.92v-12.16c0-2.59-1.34-3.91-3.97-3.91h-23.91c-2.66,0-3.97,1.3-3.97,3.91v12.16c0,2.61,1.32,3.92,3.97,3.92ZM1372.07,927.96c-1.27,0-1.96-.68-1.96-2v-11.94c0-1.32.7-1.99,1.96-1.99h23.85c1.25,0,1.97.67,1.97,1.99v11.94c0,1.32-.72,2-1.97,2h-23.85ZM1373.21,917.05h1.16c.35,0,.57-.22.57-.56v-1.16c0-.35-.22-.57-.57-.57h-1.16c-.34,0-.56.22-.56.57v1.16c0,.34.22.56.56.56ZM1377.28,917.05h1.16c.34,0,.56-.22.56-.56v-1.16c0-.35-.22-.57-.56-.57h-1.16c-.35,0-.57.22-.57.57v1.16c0,.34.22.56.57.56ZM1381.36,917.05h1.15c.35,0,.57-.22.57-.56v-1.16c0-.35-.22-.57-.57-.57h-1.15c-.35,0-.57.22-.57.57v1.16c0,.34.22.56.57.56ZM1385.42,917.05h1.16c.35,0,.57-.22.57-.56v-1.16c0-.35-.22-.57-.57-.57h-1.16c-.34,0-.56.22-.56.57v1.16c0,.34.22.56.56.56ZM1389.5,917.05h1.16c.34,0,.56-.22.56-.56v-1.16c0-.35-.22-.57-.56-.57h-1.16c-.35,0-.57.22-.57.57v1.16c0,.34.22.56.57.56ZM1393.58,917.05h1.15c.35,0,.57-.22.57-.56v-1.16c0-.35-.22-.57-.57-.57h-1.15c-.35,0-.57.22-.57.57v1.16c0,.34.22.56.57.56ZM1373.21,921.13h1.16c.35,0,.57-.22.57-.57v-1.15c0-.35-.22-.57-.57-.57h-1.16c-.34,0-.56.22-.56.57v1.15c0,.35.22.57.56.57ZM1377.28,921.13h1.16c.34,0,.56-.22.56-.57v-1.15c0-.35-.22-.57-.56-.57h-1.16c-.35,0-.57.22-.57.57v1.15c0,.35.22.57.57.57ZM1381.36,921.13h1.15c.35,0,.57-.22.57-.57v-1.15c0-.35-.22-.57-.57-.57h-1.15c-.35,0-.57.22-.57.57v1.15c0,.35.22.57.57.57ZM1385.42,921.13h1.16c.35,0,.57-.22.57-.57v-1.15c0-.35-.22-.57-.57-.57h-1.16c-.34,0-.56.22-.56.57v1.15c0,.35.22.57.56.57ZM1389.5,921.13h1.16c.34,0,.56-.22.56-.57v-1.15c0-.35-.22-.57-.56-.57h-1.16c-.35,0-.57.22-.57.57v1.15c0,.35.22.57.57.57ZM1393.58,921.13h1.15c.35,0,.57-.22.57-.57v-1.15c0-.35-.22-.57-.57-.57h-1.15c-.35,0-.57.22-.57.57v1.15c0,.35.22.57.57.57ZM1373.21,925.2h1.16c.35,0,.57-.22.57-.57v-1.16c0-.34-.22-.56-.57-.56h-1.16c-.34,0-.56.22-.56.56v1.16c0,.35.22.57.56.57ZM1377.41,925.2h13.13c.43,0,.68-.25.68-.7v-.91c0-.43-.25-.68-.68-.68h-13.13c-.44,0-.7.25-.7.68v.91c0,.44.25.7.7.7ZM1393.58,925.2h1.15c.35,0,.57-.22.57-.57v-1.16c0-.34-.22-.56-.57-.56h-1.15c-.35,0-.57.22-.57.56v1.16c0,.35.22.57.57.57Z"/>
    </g>
  </g>
  <g>
    <g>
      <rect class="cls-26" x="946" y="644" width="4" height="8"/>
      <rect class="cls-26" x="934" y="608" width="4" height="8"/>
      <rect class="cls-26" x="938" y="616" width="4" height="16"/>
      <rect class="cls-26" x="1014" y="868" width="72" height="4"/>
      <polygon class="cls-26" points="1006 844 1006 888 994 888 994 872 990 872 990 840 1002 840 1002 844 1006 844"/>
      <rect class="cls-26" x="942" y="632" width="4" height="12"/>
      <rect class="cls-26" x="1086" y="872" width="12" height="4"/>
      <rect class="cls-26" x="930" y="604" width="4" height="4"/>
      <rect class="cls-26" x="926" y="600" width="4" height="4"/>
      <polygon class="cls-26" points="1086 628 1086 644 1082 644 1082 648 1034 648 1034 652 1002 652 1002 648 986 648 986 652 978 652 978 656 966 656 966 652 970 652 970 648 974 648 974 644 978 644 978 640 982 640 982 636 986 636 986 632 994 632 994 628 1002 628 1002 624 1010 624 1010 620 1018 620 1018 616 1026 616 1026 612 1034 612 1034 608 1042 608 1042 604 1050 604 1050 600 1058 600 1058 596 1062 596 1062 592 1066 592 1066 588 1026 588 1026 584 1070 584 1070 588 1074 588 1074 596 1078 596 1078 620 1082 620 1082 628 1086 628"/>
      <polygon class="cls-26" points="910 828 910 840 906 840 906 852 902 852 902 860 898 860 898 872 894 872 894 880 890 880 890 888 874 888 874 884 878 884 878 876 882 876 882 864 886 864 886 856 890 856 890 844 894 844 894 832 898 832 898 828 910 828"/>
      <rect class="cls-26" x="922" y="596" width="4" height="4"/>
      <rect class="cls-26" x="914" y="592" width="8" height="4"/>
      <polygon class="cls-33" points="1006 612 1006 624 1002 624 1002 628 994 628 994 632 986 632 986 636 982 636 982 640 978 640 978 632 974 632 974 624 970 624 970 616 966 616 966 600 958 600 958 596 954 596 954 588 942 588 942 584 926 584 926 580 922 580 922 576 918 576 918 572 914 572 914 568 910 568 910 556 914 556 914 552 918 552 918 508 922 508 922 528 926 528 926 536 934 536 934 544 938 544 938 548 942 548 942 552 950 552 950 548 954 548 954 544 958 544 958 536 962 536 962 524 958 524 958 508 954 508 954 496 958 496 958 500 962 500 962 512 966 512 966 516 970 516 970 520 978 520 978 516 982 516 982 520 986 520 986 524 994 524 994 528 998 528 998 596 994 596 994 600 990 600 990 604 1002 604 1002 612 1006 612"/>
      <rect class="cls-33" x="910" y="536" width="4" height="16"/>
      <polygon class="cls-22" points="1066 588 1066 592 1062 592 1062 596 1058 596 1058 600 1050 600 1050 604 1042 604 1042 608 1034 608 1034 612 1026 612 1026 616 1018 616 1018 620 1010 620 1010 624 1006 624 1006 612 1002 612 1002 600 1006 600 1006 596 1010 596 1010 592 1014 592 1014 588 1066 588"/>
      <polygon class="cls-24" points="1066 500 1066 544 1062 544 1062 552 1058 552 1058 564 1054 564 1054 568 1050 568 1050 572 1046 572 1046 576 1038 576 1038 580 1034 580 1034 584 1026 584 1026 588 1014 588 1014 592 1010 592 1010 596 1006 596 1006 600 1002 600 1002 604 990 604 990 600 994 600 994 596 998 596 998 528 994 528 994 524 986 524 986 520 982 520 982 516 978 516 978 520 970 520 970 516 966 516 966 512 962 512 962 500 958 500 958 496 954 496 954 508 958 508 958 524 962 524 962 536 958 536 958 544 954 544 954 548 950 548 950 552 942 552 942 548 938 548 938 544 934 544 934 536 926 536 926 528 922 528 922 508 918 508 918 552 914 552 914 536 910 536 910 552 914 552 914 556 910 556 910 568 914 568 914 572 918 572 918 576 922 576 922 580 926 580 926 584 930 584 930 588 918 588 918 592 914 592 914 596 902 596 902 600 890 600 890 596 882 596 882 592 874 592 874 588 870 588 870 552 866 552 866 504 870 504 870 492 874 492 874 484 878 484 878 472 882 472 882 464 886 464 886 460 882 460 882 456 874 456 874 452 870 452 870 448 866 448 866 444 858 444 858 436 850 436 850 432 846 432 846 436 842 436 842 424 854 424 854 428 878 428 878 432 906 432 906 428 910 428 910 424 914 424 914 420 922 420 922 416 930 416 930 412 950 412 950 408 986 408 986 404 994 404 994 400 1002 400 1002 396 1010 396 1010 392 1018 392 1018 388 1034 388 1034 400 1030 400 1030 392 1022 392 1022 400 1018 400 1018 404 1014 404 1014 412 1010 412 1010 416 1006 416 1006 420 1002 420 1002 424 998 424 998 432 994 432 994 440 998 440 998 444 1002 444 1002 448 1006 448 1006 452 1010 452 1010 456 1018 456 1018 460 1034 460 1034 448 1038 448 1038 456 1042 456 1042 464 1046 464 1046 468 1050 468 1050 476 1054 476 1054 484 1058 484 1058 492 1062 492 1062 500 1066 500"/>
      <polygon class="cls-24" points="1042 648 1042 708 1038 708 1038 716 1034 716 1034 736 1030 736 1030 744 1026 744 1026 752 1022 752 1022 768 1018 768 1018 808 1022 808 1022 832 1026 832 1026 852 1022 852 1022 856 1018 856 1018 860 1014 860 1014 880 1010 880 1010 888 1006 888 1006 844 1002 844 1002 840 978 840 978 836 946 836 946 832 910 832 910 828 898 828 898 832 894 832 894 844 890 844 890 856 886 856 886 864 882 864 882 876 878 876 878 884 874 884 874 888 854 888 854 872 858 872 858 860 862 860 862 844 866 844 866 836 870 836 870 828 882 828 882 824 890 824 890 820 894 820 894 816 898 816 898 812 902 812 902 808 906 808 906 804 910 804 910 796 914 796 914 792 918 792 918 784 922 784 922 764 926 764 926 740 930 740 930 716 934 716 934 688 938 688 938 684 942 684 942 664 946 664 946 652 966 652 966 656 978 656 978 652 986 652 986 648 1002 648 1002 652 1034 652 1034 648 1042 648"/>
      <polygon class="cls-24" points="966 600 966 612 962 612 962 604 958 604 958 600 966 600"/>
      <polygon class="cls-21" points="946 644 946 664 942 664 942 684 938 684 938 688 934 688 934 716 930 716 930 740 926 740 926 764 922 764 922 784 918 784 918 792 914 792 914 796 910 796 910 804 906 804 906 808 902 808 902 812 898 812 898 816 894 816 894 820 890 820 890 824 882 824 882 828 862 828 862 824 854 824 854 820 850 820 850 816 846 816 846 808 842 808 842 800 838 800 838 796 834 796 834 784 830 784 830 776 826 776 826 764 822 764 822 752 826 752 826 720 830 720 830 712 838 712 838 708 842 708 842 696 846 696 846 688 850 688 850 684 854 684 854 680 858 680 858 672 862 672 862 664 866 664 866 656 870 656 870 644 874 644 874 636 878 636 878 624 882 624 882 616 886 616 886 612 890 612 890 604 894 604 894 600 902 600 902 596 922 596 922 600 926 600 926 604 930 604 930 608 934 608 934 616 938 616 938 632 942 632 942 644 946 644"/>
      <polygon class="cls-21" points="1098 876 1098 888 1010 888 1010 880 1014 880 1014 872 1086 872 1086 876 1098 876"/>
      <polygon class="cls-21" points="1098 816 1098 872 1086 872 1086 868 1014 868 1014 860 1018 860 1018 856 1022 856 1022 852 1026 852 1026 832 1022 832 1022 808 1018 808 1018 768 1022 768 1022 752 1026 752 1026 744 1030 744 1030 736 1034 736 1034 716 1038 716 1038 708 1042 708 1042 648 1078 648 1078 656 1082 656 1082 668 1086 668 1086 704 1090 704 1090 752 1094 752 1094 816 1098 816"/>
      <polygon class="cls-21" points="994 872 994 888 890 888 890 880 894 880 894 872 898 872 898 860 902 860 902 852 906 852 906 840 910 840 910 832 946 832 946 836 978 836 978 840 990 840 990 872 994 872"/>
      <polygon class="cls-21" points="886 460 886 464 882 464 882 472 878 472 878 484 874 484 874 492 866 492 866 484 862 484 862 480 858 480 858 472 854 472 854 464 850 464 850 452 846 452 846 440 842 440 842 436 846 436 846 432 850 432 850 436 858 436 858 444 866 444 866 448 870 448 870 452 874 452 874 456 882 456 882 460 886 460"/>
      <polygon class="cls-21" points="1034 400 1034 460 1018 460 1018 456 1010 456 1010 452 1006 452 1006 448 1002 448 1002 444 998 444 998 440 994 440 994 432 998 432 998 424 1002 424 1002 420 1006 420 1006 416 1010 416 1010 412 1014 412 1014 404 1018 404 1018 400 1022 400 1022 392 1030 392 1030 400 1034 400"/>
      <polygon class="cls-21" points="978 632 978 644 974 644 974 648 970 648 970 652 950 652 950 644 946 644 946 632 942 632 942 616 938 616 938 608 934 608 934 604 930 604 930 600 926 600 926 596 922 596 922 592 918 592 918 588 930 588 930 584 942 584 942 588 954 588 954 596 958 596 958 604 962 604 962 612 966 612 966 616 970 616 970 624 974 624 974 632 978 632"/>
    </g>
    <g id="information">
      <g>
        <rect class="cls-1" x="942" y="632" width="4" height="12"/>
        <rect class="cls-1" x="946" y="644" width="4" height="8"/>
        <rect class="cls-1" x="938" y="616" width="4" height="16"/>
        <rect class="cls-1" x="934" y="608" width="4" height="8"/>
        <rect class="cls-1" x="926" y="600" width="4" height="4"/>
        <rect class="cls-1" x="930" y="604" width="4" height="4"/>
        <rect class="cls-1" x="914" y="592" width="8" height="4"/>
        <rect class="cls-1" x="922" y="596" width="4" height="4"/>
      </g>
      <g>
        <rect class="cls-1" x="1014" y="868" width="72" height="4"/>
        <rect class="cls-1" x="1086" y="872" width="12" height="4"/>
      </g>
      <g>
        <polygon class="cls-1" points="1022 492 1022 496 1018 496 1018 500 1014 500 1014 504 1010 504 1010 508 1006 508 1006 512 1002 512 1002 508 998 508 998 504 994 504 994 500 990 500 990 496 986 496 986 492 990 492 990 488 994 488 994 484 998 484 998 480 1002 480 1002 476 1006 476 1006 480 1010 480 1010 484 1014 484 1014 488 1018 488 1018 492 1022 492"/>
        <g>
          <rect class="cls-26" x="1002" y="472" width="4" height="4"/>
          <rect class="cls-26" x="998" y="476" width="4" height="4"/>
          <rect class="cls-26" x="1006" y="476" width="4" height="4"/>
          <rect class="cls-26" x="994" y="480" width="4" height="4"/>
          <rect class="cls-26" x="1010" y="480" width="4" height="4"/>
          <rect class="cls-26" x="990" y="484" width="4" height="4"/>
          <rect class="cls-26" x="1014" y="484" width="4" height="4"/>
          <rect class="cls-26" x="986" y="488" width="4" height="4"/>
          <rect class="cls-26" x="1018" y="488" width="4" height="4"/>
          <rect class="cls-26" x="982" y="492" width="4" height="4"/>
          <rect class="cls-26" x="1022" y="492" width="4" height="4"/>
          <rect class="cls-26" x="986" y="496" width="4" height="4"/>
          <rect class="cls-26" x="1018" y="496" width="4" height="4"/>
          <rect class="cls-26" x="990" y="500" width="4" height="4"/>
          <rect class="cls-26" x="1014" y="500" width="4" height="4"/>
          <rect class="cls-26" x="994" y="504" width="4" height="4"/>
          <rect class="cls-26" x="1010" y="504" width="4" height="4"/>
          <rect class="cls-26" x="998" y="508" width="4" height="4"/>
          <rect class="cls-26" x="1006" y="508" width="4" height="4"/>
          <rect class="cls-26" x="1002" y="512" width="4" height="4"/>
        </g>
        <g>
          <rect class="cls-20" x="1002" y="500" width="4" height="4"/>
          <rect class="cls-20" x="1002" y="484" width="4" height="12"/>
        </g>
      </g>
    </g>
  </g>
  <text class="cls-19" transform="translate(428.32 1053.02)"><tspan class="cls-31" x="0" y="0">FiR</tspan><tspan class="cls-32" x="24.23" y="0">S</tspan><tspan class="cls-31" x="34.59" y="0">T</tspan><tspan class="cls-30" x="45.27" y="0">V</tspan><tspan class="cls-15" x="55.95" y="0">A</tspan><tspan class="cls-31" x="67.59" y="0">U</tspan><tspan class="cls-29" x="79.3" y="0">L</tspan><tspan class="cls-31" x="86.89" y="0">T </tspan><tspan class="cls-12" x="101.36" y="0">P</tspan><tspan class="cls-4" x="111.58" y="0">r</tspan><tspan class="cls-12" x="117.34" y="0">e-boot E</tspan><tspan class="cls-3" x="182.36" y="0">n</tspan><tspan class="cls-12" x="191.58" y="0">vi</tspan><tspan class="cls-4" x="204.45" y="0">r</tspan><tspan class="cls-12" x="210.2" y="0">onment | File Sys</tspan><tspan class="cls-6" x="340.33" y="0">t</tspan><tspan class="cls-12" x="345.41" y="0">em L</tspan><tspan class="cls-2" x="382.3" y="0">ev</tspan><tspan class="cls-12" x="399.99" y="0">el Enc</tspan><tspan class="cls-10" x="445.91" y="0">r</tspan><tspan class="cls-12" x="452.18" y="0">yption </tspan><tspan class="cls-8" x="503.62" y="0">f</tspan><tspan class="cls-12" x="509.08" y="0">or </tspan><tspan class="cls-31" x="529.2" y="0">NKFS</tspan><tspan class="cls-12" x="572.77" y="0" xml:space="preserve"> Ne</tspan><tspan class="cls-10" x="598.65" y="0">r</tspan><tspan class="cls-7" x="604.92" y="0">K</tspan><tspan class="cls-12" x="615.04" y="0">e</tspan><tspan class="cls-10" x="624.37" y="0">r</tspan><tspan class="cls-12" x="630.64" y="0">nel File Sys</tspan><tspan class="cls-6" x="716.52" y="0">t</tspan><tspan class="cls-12" x="721.6" y="0">em | </tspan><tspan class="cls-9" x="759.27" y="0">P</tspan><tspan class="cls-5" x="769.4" y="0">ow</tspan><tspan class="cls-12" x="791.51" y="0">e</tspan><tspan class="cls-4" x="800.84" y="0">r</tspan><tspan class="cls-12" x="806.59" y="0">ed </tspan><tspan class="cls-2" x="830.22" y="0">b</tspan><tspan class="cls-12" x="839.7" y="0">y </tspan><tspan class="cls-31" x="853.2" y="0">Ne</tspan><tspan class="cls-25" x="874.92" y="0">r</tspan><tspan class="cls-23" x="881.69" y="0">K</tspan><tspan class="cls-31" x="892.56" y="0">e</tspan><tspan class="cls-28" x="902.09" y="0">r</tspan><tspan class="cls-31" x="908.73" y="0">nel </tspan><tspan class="cls-12" x="936.34" y="0">S</tspan><tspan class="cls-11" x="946.61" y="0">t</tspan><tspan class="cls-12" x="951.92" y="0">andalone Build</tspan></text>
  <text class="cls-13" transform="translate(485.15 984.41)"><tspan x="0" y="0">システムデータがFiR</tspan><tspan class="cls-36" x="151.62" y="0">S</tspan><tspan x="161.8" y="0">T</tspan><tspan class="cls-35" x="172.13" y="0">V</tspan><tspan class="cls-16" x="182.08" y="0">A</tspan><tspan x="192.8" y="0">U</tspan><tspan class="cls-34" x="204.71" y="0">L</tspan><tspan x="212.22" y="0">Tによって暗号化されています。Ne</tspan><tspan class="cls-17" x="467.93" y="0">r</tspan><tspan x="473.69" y="0">coneOSを起動するには、まずパスフレーズを入力してください。</tspan></text>
</svg>