<?xml version="1.0" encoding="UTF-8"?>
<svg id="Layer_1" data-name="Layer 1" xmlns="http://www.w3.org/2000/svg" viewBox="0 0 1920 1080">
  <defs>
    <style>
      .cls-1 {
        fill: #999;
        font-size: 16px;
      }

      .cls-1, .cls-2 {
        font-family: NerconeSansJP-Bold, 'Nercone Sans JP';
        font-weight: 700;
      }

      .cls-3 {
        fill: none;
        stroke: #fff;
        stroke-width: 12px;
      }

      .cls-3, .cls-4 {
        stroke-miterlimit: 10;
      }

      .cls-5 {
        fill: #272727;
      }

      .cls-6 {
        fill: #939393;
        font-family: NerconeSansJP-Regular, 'Nercone Sans JP';
        font-size: 12px;
      }

      .cls-7 {
        letter-spacing: 0em;
      }

      .cls-2 {
        fill: #fff;
        font-size: 24px;
      }

      .cls-8 {
        letter-spacing: -.06em;
      }

      .cls-9 {
        letter-spacing: -.06em;
      }

      .cls-10 {
        letter-spacing: -.02em;
      }

      .cls-11 {
        letter-spacing: -.02em;
      }

      .cls-12 {
        letter-spacing: -.02em;
      }

      .cls-13 {
        letter-spacing: -.02em;
      }

      .cls-14 {
        letter-spacing: -.05em;
      }

      .cls-15 {
        letter-spacing: -.05em;
      }

      .cls-16 {
        letter-spacing: -.03em;
      }

      .cls-17 {
        letter-spacing: 0em;
      }

      .cls-4 {
        stroke: #303030;
        stroke-width: 2px;
      }

      .cls-4, .cls-18 {
        fill: #1a1a1a;
      }

      .cls-19 {
        letter-spacing: 0em;
      }

      .cls-20 {
        letter-spacing: -.01em;
      }

      .cls-21 {
        letter-spacing: -.01em;
      }

      .cls-22 {
        letter-spacing: 0em;
      }

      .cls-23 {
        letter-spacing: 0em;
      }

      .cls-24 {
        letter-spacing: 0em;
      }

      .cls-25 {
        letter-spacing: 0em;
      }

      .cls-26 {
        letter-spacing: .01em;
      }

      .cls-27 {
        letter-spacing: 0em;
      }

      .cls-28 {
        letter-spacing: 0em;
      }

      .cls-29 {
        letter-spacing: .01em;
      }
    </style>
  </defs>
  <rect class="cls-18" width="1920" height="1080"/>
  <rect class="cls-4" x="384" y="156" width="1152" height="768"/>
  <text class="cls-6" transform="translate(584.98 902.94)"><tspan x="0" y="0" xml:space="preserve">EULA  Shu</tspan><tspan class="cls-23" x="59.03" y="0">t</tspan><tspan x="62.79" y="0">d</tspan><tspan class="cls-10" x="70.02" y="0">o</tspan><tspan x="76.86" y="0" xml:space="preserve">wn  </tspan><tspan class="cls-12" x="100.07" y="0">R</tspan><tspan x="107.57" y="0">eboot </tspan><tspan class="cls-23" x="142.97" y="0">t</tspan><tspan x="146.74" y="0">o open Fi</tspan><tspan class="cls-29" x="198.32" y="0">r</tspan><tspan x="202.83" y="0">m</tspan><tspan class="cls-25" x="213.25" y="0">w</tspan><tspan x="222.88" y="0">a</tspan><tspan class="cls-13" x="229.5" y="0">r</tspan><tspan x="233.69" y="0">e Se</tspan><tspan class="cls-24" x="258.36" y="0">t</tspan><tspan x="262.15" y="0" xml:space="preserve">tings  Upda</tspan><tspan class="cls-23" x="325.72" y="0">t</tspan><tspan x="329.48" y="0">e In</tspan><tspan class="cls-7" x="349.75" y="0">s</tspan><tspan class="cls-27" x="355.97" y="0">t</tspan><tspan x="359.94" y="0" xml:space="preserve">aller  Sw</tspan><tspan class="cls-7" x="407.29" y="0">i</tspan><tspan class="cls-23" x="410.12" y="0">t</tspan><tspan x="413.89" y="0">ch </tspan><tspan class="cls-23" x="430.89" y="0">t</tspan><tspan x="434.65" y="0">o </tspan><tspan class="cls-19" x="445.01" y="0">A</tspan><tspan class="cls-28" x="453.13" y="0">d</tspan><tspan class="cls-17" x="460.42" y="0">v</tspan><tspan x="466.95" y="0">anced In</tspan><tspan class="cls-7" x="514.76" y="0">s</tspan><tspan class="cls-27" x="520.97" y="0">t</tspan><tspan x="524.94" y="0" xml:space="preserve">aller  </tspan><tspan class="cls-12" x="555.02" y="0">R</tspan><tspan x="562.52" y="0">escu</tspan><tspan class="cls-13" x="589.29" y="0">r</tspan><tspan x="593.48" y="0" xml:space="preserve">e Mode  Open </tspan><tspan class="cls-15" x="675.61" y="0">W</tspan><tspan x="686.73" y="0">eb B</tspan><tspan class="cls-13" x="711.93" y="0">r</tspan><tspan class="cls-10" x="716.12" y="0">o</tspan><tspan x="722.96" y="0">wser</tspan></text>
  <g>
    <rect class="cls-5" x="1422" y="874" width="96" height="32"/>
    <text class="cls-1" transform="translate(1451.82 895.76)"><tspan x="0" y="0">N</tspan><tspan class="cls-11" x="12.06" y="0">e</tspan><tspan class="cls-26" x="21.12" y="0">x</tspan><tspan x="30.48" y="0">t</tspan></text>
  </g>
  <polyline class="cls-3" points="1050 527.19 870 467 870 557 960 557 1050 467 1050 557 1003.12 557"/>
  <text class="cls-2" transform="translate(768.99 646.35)"><tspan class="cls-8" x="0" y="0">T</tspan><tspan class="cls-20" x="14.4" y="0">r</tspan><tspan class="cls-10" x="23.71" y="0">av</tspan><tspan x="50.77" y="0">ele</tspan><tspan class="cls-9" x="85.36" y="0">r</tspan><tspan class="cls-16" x="93.46" y="0">,</tspan><tspan x="100.25" y="0"> </tspan><tspan class="cls-14" x="105.82" y="0">W</tspan><tspan x="129.27" y="0">elcome </tspan><tspan class="cls-22" x="219.66" y="0">t</tspan><tspan x="228.23" y="0">o N</tspan><tspan class="cls-21" x="266.44" y="0">e</tspan><tspan x="280.22" y="0">w </tspan><tspan class="cls-14" x="306.01" y="0">W</tspan><tspan x="329.46" y="0">o</tspan><tspan class="cls-29" x="344" y="0">r</tspan><tspan x="353.89" y="0">ld</tspan><tspan class="cls-16" x="375.22" y="0">.</tspan></text>
</svg>