<?xml version="1.0" encoding="UTF-8"?>
<svg id="_レイヤー_1" data-name="レイヤー 1" xmlns="http://www.w3.org/2000/svg" viewBox="0 0 64 64">
  <defs>
    <style>
      .cls-1 {
        fill: #939393;
        fill-rule: evenodd;
      }
    </style>
  </defs>
  <path class="cls-1" d="M32,0C14.32,0,0,14.32,0,32s14.32,32,32,32,32-14.33,32-32S49.67,0,32,0ZM21.58,47.12h-4.85v-27.77h4.85v27.77ZM19.15,17.3c-1.68,0-3.02-1.38-3.02-3.02s1.34-3.03,3.02-3.03,3.03,1.38,3.03,3.02-1.35,3.03-3.03,3.03ZM37.67,47.07h-10.94v-27.8h10.89c5.08,0,8.78,1.82,11.21,4.5,2.42,2.66,3.54,6.13,3.54,9.4,0,7.15-5.59,13.9-14.7,13.9Z"/>
  <path class="cls-1" d="M47.42,33.17c0,1.57-.47,3.94-1.98,5.9-1.49,1.94-4.02,3.53-8.24,3.53h-5.63v-18.85h5.43c3.65,0,6.24,1.1,7.92,2.8s2.5,4.04,2.5,6.62Z"/>
</svg>