<?xml version="1.0" encoding="UTF-8"?>
<svg id="_レイヤー_1" data-name="レイヤー 1" xmlns="http://www.w3.org/2000/svg" viewBox="0 0 64 64">
  <defs>
    <style>
      .cls-1 {
        fill: #939393;
      }
    </style>
  </defs>
  <path class="cls-1" d="M.7,63.39h13.29c.7,0,1.33-.39,1.72-.94L52.3,2.33c.47-.78-.08-1.72-1.02-1.72h-12.59c-.63,0-1.17.31-1.49.86L.08,62.3c-.23.47.08,1.09.63,1.09Z"/>
  <path class="cls-1" d="M46.52,62.45l17.28-27.75c.55-.86-.08-1.95-1.09-1.95h-12.51c-.47,0-.94.23-1.17.63l-17.75,28.38c-.47.7.08,1.64.94,1.64h12.74c.63,0,1.25-.31,1.56-.94Z"/>
</svg>